<svg width="26" height="26" viewBox="0 0 26 26" fill="none" xmlns="http://www.w3.org/2000/svg">
<g clip-path="url(#clip0_149_5222)">
<path d="M12.2385 8.37891C12.2385 7.95798 11.8977 7.61719 11.4768 7.61719H10.2688L12.0154 5.87059C12.2334 5.65259 12.2988 5.32529 12.1806 5.04044C12.063 4.75558 11.7847 4.57031 11.4768 4.57031H8.42992C8.00899 4.57031 7.6682 4.9111 7.6682 5.33203C7.6682 5.75296 8.00899 6.09375 8.42992 6.09375H9.63796L7.89136 7.84035C7.67336 8.05835 7.6079 8.38565 7.72612 8.6705C7.84375 8.95535 8.12186 9.14062 8.42992 9.14062H11.4768C11.8977 9.14062 12.2385 8.79984 12.2385 8.37891Z" fill="url(#paint0_linear_149_5222)"/>
<path d="M13.82 4.10019C13.9374 4.38504 14.2157 4.57031 14.5236 4.57031H17.5705C17.9914 4.57031 18.3322 4.22952 18.3322 3.80859C18.3322 3.38766 17.9914 3.04688 17.5705 3.04688H16.3624L18.109 1.30028C18.327 1.08228 18.3925 0.754974 18.2743 0.470123C18.1566 0.185272 17.8783 0 17.5705 0H14.5236C14.1027 0 13.7619 0.34079 13.7619 0.761719C13.7619 1.18265 14.1027 1.52344 14.5236 1.52344H15.7316L13.985 3.27003C13.767 3.48804 13.7016 3.81534 13.82 4.10019Z" fill="url(#paint1_linear_149_5222)"/>
<path d="M23.7148 12.1875H13C11.74 12.1875 10.7148 13.2126 10.7148 14.4727V17.5195C10.7148 17.9405 11.0556 18.2812 11.4766 18.2812H26V14.4727C26 13.2126 24.9749 12.1875 23.7148 12.1875Z" fill="url(#paint2_linear_149_5222)"/>
<path d="M9.19141 17.5195V16.7578H1.52344V8.37891C1.52344 7.95798 1.18265 7.61719 0.761719 7.61719C0.34079 7.61719 0 7.95798 0 8.37891V25.2383C0 25.6592 0.34079 26 0.761719 26C1.18265 26 1.52344 25.6592 1.52344 25.2383V22.9023H24.4766V25.2383C24.4766 25.659 24.8176 26 25.2383 26C25.659 26 26 25.659 26 25.2383V19.8047H11.4766C10.2146 19.8047 9.19141 18.7815 9.19141 17.5195Z" fill="url(#paint3_linear_149_5222)"/>
<path d="M9.19141 12.9492C9.19141 14.2112 8.16824 15.2344 6.90625 15.2344C5.64426 15.2344 4.62109 14.2112 4.62109 12.9492C4.62109 11.6872 5.64426 10.6641 6.90625 10.6641C8.16824 10.6641 9.19141 11.6872 9.19141 12.9492Z" fill="url(#paint4_linear_149_5222)"/>
</g>
<defs>
<linearGradient id="paint0_linear_149_5222" x1="7.80861" y1="9.14063" x2="12.5682" y2="4.94392" gradientUnits="userSpaceOnUse">
<stop stop-color="#3546D7"/>
<stop offset="1" stop-color="#C38BF5"/>
</linearGradient>
<linearGradient id="paint1_linear_149_5222" x1="13.9024" y1="4.57031" x2="18.6619" y2="0.373668" gradientUnits="userSpaceOnUse">
<stop stop-color="#3546D7"/>
<stop offset="1" stop-color="#C38BF5"/>
</linearGradient>
<linearGradient id="paint2_linear_149_5222" x1="11.1852" y1="18.2813" x2="15.9879" y2="7.66015" gradientUnits="userSpaceOnUse">
<stop stop-color="#3546D7"/>
<stop offset="1" stop-color="#C38BF5"/>
</linearGradient>
<linearGradient id="paint3_linear_149_5222" x1="0.800001" y1="26" x2="19.6351" y2="2.51297" gradientUnits="userSpaceOnUse">
<stop stop-color="#3546D7"/>
<stop offset="1" stop-color="#C38BF5"/>
</linearGradient>
<linearGradient id="paint4_linear_149_5222" x1="4.76172" y1="15.2344" x2="9.52122" y2="11.0381" gradientUnits="userSpaceOnUse">
<stop stop-color="#3546D7"/>
<stop offset="1" stop-color="#C38BF5"/>
</linearGradient>
<clipPath id="clip0_149_5222">
<rect width="26" height="26" fill="white"/>
</clipPath>
</defs>
</svg>
