<svg width="26" height="24" viewBox="0 0 26 24" fill="none" xmlns="http://www.w3.org/2000/svg">
<path d="M16.6582 11.69C14.6616 8.23209 14.8044 4.13478 16.6628 0.907239C14.8275 0.904475 12.9672 1.35963 11.2627 2.34457C7.59015 4.46647 5.64791 8.41728 5.89852 12.381C6.76921 12.4096 7.59291 12.7191 8.25629 13.2738C8.88374 12.9246 9.57845 12.7449 10.3026 12.7449C12.2311 12.7449 13.8987 14.0431 14.4193 15.8582C15.7792 16.2775 16.7384 17.5287 16.7384 19.0038C16.7384 20.5443 15.6724 21.8324 14.2415 22.1981C16.8075 22.7887 19.5937 22.457 22.0547 21.0372C23.7592 20.0532 25.0832 18.6702 25.999 17.0781C22.2749 17.0717 18.6548 15.1469 16.6582 11.69Z" fill="url(#paint0_linear_149_5205)"/>
<path d="M15.8346 19.0019C15.8346 17.7516 14.8754 16.7363 13.6565 16.6229C13.4455 14.9479 12.033 13.6478 10.3027 13.6478C9.47532 13.6478 8.72901 13.9528 8.13934 14.4421C7.5856 13.7344 6.73334 13.271 5.7659 13.271C4.32028 13.271 3.11698 14.2854 2.81569 15.6389C1.24384 15.7485 0 17.044 0 18.6444C0 20.3139 1.35441 21.6674 3.02484 21.6674C3.37957 21.6674 3.71679 21.5955 4.03281 21.4831C4.58379 22.2386 5.46922 22.7353 6.47535 22.7353C7.09083 22.7353 7.66207 22.5491 8.14026 22.2331C8.68571 22.762 9.42649 23.0918 10.2474 23.0918C11.4553 23.0918 12.4891 22.3778 12.9737 21.3532C13.1221 21.3818 13.2741 21.4011 13.4317 21.4011C14.7584 21.402 15.8346 20.3268 15.8346 19.0019Z" fill="url(#paint1_linear_149_5205)"/>
<path d="M22.4287 13.0286L22.8599 12.0796L23.8853 11.8981L23.1169 11.1933L23.2597 10.1604L22.354 10.6754L21.417 10.2203L21.6262 11.2421L20.9038 11.9921L21.9385 12.11L22.4287 13.0286Z" fill="url(#paint2_linear_149_5205)"/>
<path d="M1.72117 10.4785L2.45827 10.0998L3.18799 10.4914L3.05531 9.67414L3.65328 9.10105L2.8351 8.9739L2.47393 8.22852L2.1017 8.96929L1.28076 9.07894L1.86951 9.66308L1.72117 10.4785Z" fill="url(#paint3_linear_149_5205)"/>
<path d="M18.4633 8.63188L18.7996 9.26117L19.0954 8.60977L19.7984 8.4863L19.2713 8.00351L19.3699 7.2959L18.748 7.64786L18.1049 7.33552L18.2486 8.03668L17.7529 8.54988L18.4633 8.63188Z" fill="url(#paint4_linear_149_5205)"/>
<path d="M21.8504 6.76148L22.0567 7.14845L22.2383 6.7495L22.6704 6.6721L22.347 6.37542L22.4059 5.94238L22.0245 6.15983L21.6329 5.96726L21.7186 6.39662L21.4146 6.71172L21.8504 6.76148Z" fill="url(#paint5_linear_149_5205)"/>
<path d="M6.30006 4.15864L6.50645 4.54561L6.68796 4.14574L7.12008 4.06834L6.79668 3.77166L6.85657 3.33862L6.47512 3.55514L6.0817 3.3635L6.16923 3.79193L5.86426 4.10796L6.30006 4.15864Z" fill="url(#paint6_linear_149_5205)"/>
<defs>
<linearGradient id="paint0_linear_149_5205" x1="6.49609" y1="22.4766" x2="28.7112" y2="4.20473" gradientUnits="userSpaceOnUse">
<stop stop-color="#3546D7"/>
<stop offset="1" stop-color="#C38BF5"/>
</linearGradient>
<linearGradient id="paint1_linear_149_5205" x1="0.487218" y1="23.0918" x2="10.1894" y2="9.29982" gradientUnits="userSpaceOnUse">
<stop stop-color="#3546D7"/>
<stop offset="1" stop-color="#C38BF5"/>
</linearGradient>
<linearGradient id="paint2_linear_149_5205" x1="20.9955" y1="13.0286" x2="23.9948" y2="10.2798" gradientUnits="userSpaceOnUse">
<stop stop-color="#3546D7"/>
<stop offset="1" stop-color="#C38BF5"/>
</linearGradient>
<linearGradient id="paint3_linear_149_5205" x1="1.35376" y1="10.4914" x2="3.7217" y2="8.30254" gradientUnits="userSpaceOnUse">
<stop stop-color="#3546D7"/>
<stop offset="1" stop-color="#C38BF5"/>
</linearGradient>
<linearGradient id="paint4_linear_149_5205" x1="17.8159" y1="9.26117" x2="19.8711" y2="7.37522" gradientUnits="userSpaceOnUse">
<stop stop-color="#3546D7"/>
<stop offset="1" stop-color="#C38BF5"/>
</linearGradient>
<linearGradient id="paint5_linear_149_5205" x1="21.4532" y1="7.14845" x2="22.7145" y2="5.9905" gradientUnits="userSpaceOnUse">
<stop stop-color="#3546D7"/>
<stop offset="1" stop-color="#C38BF5"/>
</linearGradient>
<linearGradient id="paint6_linear_149_5205" x1="5.9029" y1="4.54561" x2="7.16513" y2="3.38774" gradientUnits="userSpaceOnUse">
<stop stop-color="#3546D7"/>
<stop offset="1" stop-color="#C38BF5"/>
</linearGradient>
</defs>
</svg>
