<svg width="26" height="26" viewBox="0 0 26 26" fill="none" xmlns="http://www.w3.org/2000/svg">
<path fill-rule="evenodd" clip-rule="evenodd" d="M12.492 8.89753C13.2568 8.89753 13.9596 8.64159 14.5487 8.17288L14.605 7.3096L14.6502 6.42448C14.6568 6.28788 14.6157 6.18429 14.5446 6.16093C14.4451 6.12792 14.2541 6.21679 14.0708 6.4905C13.9032 6.74136 13.724 6.76167 13.6031 6.73476C13.2847 6.66366 13.1557 6.22034 13.0501 5.52769C13.0461 5.50026 13.043 5.48046 13.041 5.46979C12.9572 5.04476 12.7622 4.54812 12.4656 4.42878C12.3179 4.36936 12.132 4.40542 11.9126 4.53644C11.8827 4.55421 11.484 4.82183 11.3469 4.91425C11.2393 5.45304 11.0036 5.95882 10.8488 6.25284C10.7502 6.4387 10.7284 6.60729 10.7832 6.75304C10.8655 6.97292 11.0813 7.05569 11.2393 7.11612C11.2773 7.13085 11.3307 7.15116 11.3632 7.16792C11.3637 7.19788 11.3647 7.23038 11.3652 7.2644C11.3708 7.46956 11.3774 7.75089 11.3652 7.90729C11.3632 7.93472 11.3606 7.96112 11.3586 7.98702C11.3291 8.33538 11.2921 8.76905 11.9878 8.863C12.1574 8.88585 12.3275 8.89753 12.492 8.89753ZM15.092 7.64018C15.4201 7.24866 15.6928 6.77386 15.8959 6.22694C15.9264 6.14468 15.9543 6.06241 15.9807 5.98015L11.9842 3.0389C11.5983 3.18565 11.3576 3.40097 11.2672 3.68077C11.1875 3.92808 11.2464 4.15913 11.3195 4.32265C11.5059 4.19976 11.7131 4.06468 11.7593 4.04132C12.0812 3.87628 12.3818 3.84784 12.655 3.95804C13.2273 4.18757 13.4548 4.94218 13.5391 5.37179C13.5422 5.3855 13.5463 5.41292 13.5523 5.45101C13.6077 5.81765 13.661 6.02128 13.7011 6.13401C14.0449 5.66937 14.4405 5.59167 14.7046 5.67901C15.0027 5.77804 15.1763 6.07358 15.157 6.45038L15.1118 7.34464L15.092 7.64018ZM16.1188 5.45151C16.3443 4.35972 16.1772 3.35679 15.6522 2.90483C15.6486 2.90179 15.6456 2.89925 15.642 2.89671C15.0991 2.47573 14.5284 2.26245 13.9459 2.26245C13.2918 2.26245 12.7683 2.53108 12.4489 2.75046L16.1188 5.45151Z" fill="url(#paint0_linear_149_5161)"/>
<path fill-rule="evenodd" clip-rule="evenodd" d="M17.4665 18.1524C17.501 17.7055 17.5437 17.25 17.5848 16.8056C17.8585 13.8522 18.1419 10.7987 16.525 8.61412L15.7663 7.58936C15.0391 8.65627 13.7986 9.40529 12.492 9.40529C12.4193 9.40529 12.3467 9.40326 12.2746 9.3992C12.236 9.76635 12.1847 10.196 12.1279 10.3605L11.2844 12.7721L8.74023 12.0906C8.62394 12.0596 8.50105 12.1145 8.44723 12.2231L7.29144 14.554C7.25793 14.6226 7.25641 14.7023 7.28789 14.7713C7.31887 14.8409 7.3798 14.8927 7.45344 14.912L11.6505 16.0368C11.8155 16.081 11.9816 16.1069 12.1471 16.1145L13.1531 15.9667C15.3601 15.6412 15.4078 11.793 15.3951 11.0247C15.3926 10.8851 15.5043 10.7693 15.6445 10.7672C15.7846 10.7647 15.9004 10.8764 15.9024 11.0166C15.9116 11.5625 15.8882 12.9656 15.4738 14.2077C15.1194 15.271 14.5506 15.984 13.8113 16.3034C13.6269 16.3831 13.4319 16.4385 13.2273 16.4685L12.1624 16.6254C12.1385 16.9174 12.0309 17.0433 11.7698 17.0738C11.7632 17.0743 11.7566 17.0753 11.75 17.0768C11.6348 17.0997 8.9068 17.643 7.70937 18.3037C6.68867 18.8669 6.41496 20.2461 6.67547 21.2576C6.90094 22.1321 7.4702 22.6541 8.1984 22.6541H17.5168C17.0714 22.384 16.723 21.995 16.6169 21.4643L16.2523 19.6408C16.2127 19.4442 16.2538 19.236 16.365 19.0695C16.6327 18.6673 17.0069 18.3001 17.4665 18.1524ZM20.2955 22.6541H20.3818C20.522 22.6541 20.6357 22.5409 20.6357 22.4007C20.6357 22.2961 20.5728 22.2067 20.4829 22.1676C20.4809 22.1844 20.4778 22.2012 20.4748 22.2174C20.4448 22.3814 20.3823 22.5282 20.2955 22.6541Z" fill="url(#paint1_linear_149_5161)"/>
<path fill-rule="evenodd" clip-rule="evenodd" d="M19.2996 22.649C19.6459 22.649 19.9176 22.4388 19.9755 22.1254C20.039 21.7796 19.8308 21.4419 19.4687 21.3038C19.1676 21.1885 18.8532 20.9189 18.8482 20.666L18.8304 19.7336C18.8177 19.0715 18.4272 18.5911 17.9016 18.5911C17.5096 18.5911 17.114 18.8607 16.7875 19.3508C16.7504 19.4066 16.7367 19.4752 16.7499 19.5412L17.115 21.3647C17.2963 22.2722 18.5323 22.5977 19.2336 22.647C19.2564 22.6485 19.2783 22.649 19.2996 22.649Z" fill="url(#paint2_linear_149_5161)"/>
<path fill-rule="evenodd" clip-rule="evenodd" d="M8.37793 11.6344C8.25605 10.8666 7.9016 10.4589 7.56391 10.4589C7.40445 10.4589 7.2648 10.5472 7.18051 10.7011C7.11703 10.8174 7.08504 10.9717 7.08504 11.1591V11.3277L6.00492 9.96729C5.76879 9.6687 5.51387 9.68596 5.38387 9.72202C4.91465 9.85354 4.66328 10.5746 4.59016 11.1525C4.46574 12.1433 4.76891 12.9532 5.40164 13.3183L6.9068 14.1872L7.99199 11.9975C8.07527 11.8289 8.21441 11.7035 8.37793 11.6344Z" fill="url(#paint3_linear_149_5161)"/>
<path fill-rule="evenodd" clip-rule="evenodd" d="M1.81234 16.7681H3.26367C3.40383 16.7681 3.51758 16.6543 3.51758 16.5142C3.51758 16.374 3.40383 16.2603 3.26367 16.2603H1.81234C1.67219 16.2603 1.55894 16.374 1.55894 16.5142C1.55894 16.6543 1.67219 16.7681 1.81234 16.7681Z" fill="url(#paint4_linear_149_5161)"/>
<path fill-rule="evenodd" clip-rule="evenodd" d="M1.49316 19.4284H2.63574C2.7759 19.4284 2.88965 19.3152 2.88965 19.175C2.88965 19.0349 2.7759 18.9211 2.63574 18.9211H1.49316C1.35301 18.9211 1.23926 19.0349 1.23926 19.175C1.23926 19.3152 1.35301 19.4284 1.49316 19.4284Z" fill="url(#paint5_linear_149_5161)"/>
<path fill-rule="evenodd" clip-rule="evenodd" d="M1.0435 22.0893H2.00732C2.14748 22.0893 2.26123 21.9761 2.26123 21.8359C2.26123 21.6958 2.14748 21.582 2.00732 21.582H1.0435C0.903339 21.582 0.789589 21.6958 0.789589 21.8359C0.789589 21.9761 0.903339 22.0893 1.0435 22.0893Z" fill="url(#paint6_linear_149_5161)"/>
<path fill-rule="evenodd" clip-rule="evenodd" d="M0.258163 24.7502H1.37891C1.51906 24.7502 1.63281 24.6365 1.63281 24.4963C1.63281 24.3562 1.51906 24.2429 1.37891 24.2429L0.258163 24.2424C0.118007 24.2424 0.00425696 24.3562 0.00425696 24.4963C0.00425696 24.6365 0.118007 24.7502 0.258163 24.7502Z" fill="url(#paint7_linear_149_5161)"/>
<path fill-rule="evenodd" clip-rule="evenodd" d="M1.37933 24.7509H24.6209C24.6986 24.7509 24.7717 24.7153 24.8199 24.6544C24.8682 24.5935 24.8855 24.5142 24.8677 24.4386L22.9832 16.4558C22.9563 16.341 22.8542 16.2603 22.7364 16.2603H18.1448C18.1265 16.4598 18.1082 16.6579 18.0899 16.8524C18.0518 17.2632 18.0137 17.674 17.9807 18.0853C18.8278 18.1321 19.3224 18.9176 19.3376 19.724L19.3549 20.6213C19.4062 20.7026 19.5687 20.7986 19.6499 20.8296C20.0105 20.9672 20.2923 21.2449 20.4198 21.5867L20.6853 21.702C20.9631 21.8223 21.1434 22.0965 21.1434 22.4007C21.1434 22.8212 20.8021 23.1619 20.3817 23.1619H8.19823C7.13436 23.1619 6.43561 22.3626 6.18374 21.3841C5.85671 20.1156 6.25433 18.5266 7.46393 17.8594C7.99054 17.5684 8.63241 17.3561 9.20878 17.1829C10.0045 16.9443 10.8348 16.7417 11.6508 16.5792C11.6529 16.5787 11.6549 16.5781 11.6569 16.5776L11.6585 16.5609C11.6117 16.5507 11.565 16.5395 11.5193 16.5274L10.522 16.2603H3.26382C3.146 16.2603 3.04393 16.341 3.01702 16.4558L1.13253 24.4386C1.11425 24.5142 1.13202 24.5935 1.18026 24.6544C1.2285 24.7153 1.30163 24.7509 1.37933 24.7509ZM19.3335 23.1563L19.3295 23.1619L19.3208 23.1569C19.3249 23.1569 19.3295 23.1563 19.3335 23.1563Z" fill="url(#paint8_linear_149_5161)"/>
<path fill-rule="evenodd" clip-rule="evenodd" d="M22.7362 16.7681H24.1875C24.3277 16.7681 24.4409 16.6543 24.4409 16.5142C24.4409 16.374 24.3277 16.2603 24.1875 16.2603H22.7362C22.596 16.2603 22.4823 16.374 22.4823 16.5142C22.4823 16.6543 22.596 16.7681 22.7362 16.7681Z" fill="url(#paint9_linear_149_5161)"/>
<path fill-rule="evenodd" clip-rule="evenodd" d="M23.3643 19.4284H24.5068C24.647 19.4284 24.7607 19.3152 24.7607 19.175C24.7607 19.0349 24.647 18.9211 24.5068 18.9211H23.3643C23.2241 18.9211 23.1104 19.0349 23.1104 19.175C23.1104 19.3152 23.2241 19.4284 23.3643 19.4284Z" fill="url(#paint10_linear_149_5161)"/>
<path fill-rule="evenodd" clip-rule="evenodd" d="M23.9927 22.0893H24.9566C25.0967 22.0893 25.21 21.9761 25.21 21.8359C25.21 21.6958 25.0967 21.582 24.9566 21.582H23.9927C23.8526 21.582 23.7388 21.6958 23.7388 21.8359C23.7388 21.9761 23.8526 22.0893 23.9927 22.0893Z" fill="url(#paint11_linear_149_5161)"/>
<path fill-rule="evenodd" clip-rule="evenodd" d="M24.621 24.7502H25.7417C25.8819 24.7502 25.9951 24.6365 25.9951 24.4963C25.9951 24.3562 25.8819 24.2429 25.7417 24.2429L24.621 24.2424C24.4808 24.2424 24.3671 24.3562 24.3671 24.4963C24.3671 24.6365 24.4808 24.7502 24.621 24.7502Z" fill="url(#paint12_linear_149_5161)"/>
<path fill-rule="evenodd" clip-rule="evenodd" d="M7.47854 6.33347C7.53135 6.33347 7.58366 6.31722 7.62784 6.28522C7.70756 6.22733 7.74666 6.12882 7.72788 6.03233L7.43487 4.5023L8.57135 3.4364C8.64295 3.36937 8.66936 3.26679 8.63889 3.17284C8.60842 3.0794 8.52666 3.01187 8.42916 2.99968L6.88389 2.80519L6.2212 1.3955C6.17956 1.30663 6.09018 1.24976 5.99166 1.24976C5.89315 1.24976 5.80377 1.30663 5.76213 1.3955L5.09944 2.80519L3.55416 2.99968C3.45666 3.01187 3.37491 3.0794 3.34444 3.17284C3.31397 3.26679 3.34038 3.36937 3.41198 3.4364L4.54846 4.5023L4.25545 6.03233C4.23717 6.12882 4.27577 6.22733 4.35549 6.28522C4.43522 6.34312 4.54135 6.34972 4.62717 6.30198L5.99166 5.55093L7.35616 6.30198C7.39475 6.32331 7.4369 6.33347 7.47854 6.33347Z" fill="url(#paint13_linear_149_5161)"/>
<path fill-rule="evenodd" clip-rule="evenodd" d="M18.5214 6.33347C18.563 6.33347 18.6052 6.32331 18.6438 6.30198L20.0083 5.55093L21.3728 6.30198C21.4591 6.34972 21.5647 6.34312 21.6444 6.28522C21.7242 6.22733 21.7628 6.12882 21.7445 6.03233L21.4515 4.5023L22.588 3.4364C22.6596 3.36937 22.686 3.26679 22.6555 3.17284C22.625 3.0794 22.5433 3.01187 22.4458 2.99968L20.9005 2.80519L20.2378 1.3955C20.1962 1.30663 20.1068 1.24976 20.0083 1.24976C19.9097 1.24976 19.8204 1.30663 19.7787 1.3955L19.116 2.80519L17.5708 2.99968C17.4728 3.01187 17.391 3.0794 17.361 3.17284C17.3306 3.26679 17.357 3.36937 17.4286 3.4364L18.5646 4.5023L18.2721 6.03233C18.2533 6.12882 18.2924 6.22733 18.3721 6.28522C18.4163 6.31722 18.4686 6.33347 18.5214 6.33347Z" fill="url(#paint14_linear_149_5161)"/>
<defs>
<linearGradient id="paint0_linear_149_5161" x1="16.0487" y1="8.89753" x2="9.42675" y2="4.09061" gradientUnits="userSpaceOnUse">
<stop stop-color="#3546D7"/>
<stop offset="1" stop-color="#C38BF5"/>
</linearGradient>
<linearGradient id="paint1_linear_149_5161" x1="20.2034" y1="22.6541" x2="4.68783" y2="9.89382" gradientUnits="userSpaceOnUse">
<stop stop-color="#3546D7"/>
<stop offset="1" stop-color="#C38BF5"/>
</linearGradient>
<linearGradient id="paint2_linear_149_5161" x1="19.8871" y1="22.649" x2="15.8765" y2="19.8241" gradientUnits="userSpaceOnUse">
<stop stop-color="#3546D7"/>
<stop offset="1" stop-color="#C38BF5"/>
</linearGradient>
<linearGradient id="paint3_linear_149_5161" x1="8.26054" y1="14.1872" x2="3.74141" y2="10.7976" gradientUnits="userSpaceOnUse">
<stop stop-color="#3546D7"/>
<stop offset="1" stop-color="#C38BF5"/>
</linearGradient>
<linearGradient id="paint4_linear_149_5161" x1="3.45731" y1="16.7681" x2="3.16877" y2="15.7869" gradientUnits="userSpaceOnUse">
<stop stop-color="#3546D7"/>
<stop offset="1" stop-color="#C38BF5"/>
</linearGradient>
<linearGradient id="paint5_linear_149_5161" x1="2.83887" y1="19.4284" x2="2.5078" y2="18.4789" gradientUnits="userSpaceOnUse">
<stop stop-color="#3546D7"/>
<stop offset="1" stop-color="#C38BF5"/>
</linearGradient>
<linearGradient id="paint6_linear_149_5161" x1="2.21595" y1="22.0893" x2="1.85476" y2="21.1656" gradientUnits="userSpaceOnUse">
<stop stop-color="#3546D7"/>
<stop offset="1" stop-color="#C38BF5"/>
</linearGradient>
<linearGradient id="paint7_linear_149_5161" x1="1.5827" y1="24.7502" x2="1.24758" y2="23.8027" gradientUnits="userSpaceOnUse">
<stop stop-color="#3546D7"/>
<stop offset="1" stop-color="#C38BF5"/>
</linearGradient>
<linearGradient id="paint8_linear_149_5161" x1="24.1438" y1="24.7509" x2="17.9365" y2="9.44331" gradientUnits="userSpaceOnUse">
<stop stop-color="#3546D7"/>
<stop offset="1" stop-color="#C38BF5"/>
</linearGradient>
<linearGradient id="paint9_linear_149_5161" x1="24.3807" y1="16.7681" x2="24.0921" y2="15.7869" gradientUnits="userSpaceOnUse">
<stop stop-color="#3546D7"/>
<stop offset="1" stop-color="#C38BF5"/>
</linearGradient>
<linearGradient id="paint10_linear_149_5161" x1="24.71" y1="19.4284" x2="24.3789" y2="18.4789" gradientUnits="userSpaceOnUse">
<stop stop-color="#3546D7"/>
<stop offset="1" stop-color="#C38BF5"/>
</linearGradient>
<linearGradient id="paint11_linear_149_5161" x1="25.1647" y1="22.0893" x2="24.8034" y2="21.1656" gradientUnits="userSpaceOnUse">
<stop stop-color="#3546D7"/>
<stop offset="1" stop-color="#C38BF5"/>
</linearGradient>
<linearGradient id="paint12_linear_149_5161" x1="25.945" y1="24.7502" x2="25.6098" y2="23.8028" gradientUnits="userSpaceOnUse">
<stop stop-color="#3546D7"/>
<stop offset="1" stop-color="#C38BF5"/>
</linearGradient>
<linearGradient id="paint13_linear_149_5161" x1="8.48769" y1="6.3337" x2="3.16857" y2="1.42687" gradientUnits="userSpaceOnUse">
<stop stop-color="#3546D7"/>
<stop offset="1" stop-color="#C38BF5"/>
</linearGradient>
<linearGradient id="paint14_linear_149_5161" x1="22.5043" y1="6.3337" x2="17.1852" y2="1.42687" gradientUnits="userSpaceOnUse">
<stop stop-color="#3546D7"/>
<stop offset="1" stop-color="#C38BF5"/>
</linearGradient>
</defs>
</svg>
