<svg width="144" height="40" viewBox="0 0 144 40" fill="none" xmlns="http://www.w3.org/2000/svg">
<path fill-rule="evenodd" clip-rule="evenodd" d="M49.7823 26.0443L45.6958 26.225L49.7079 26.3844C50.1437 26.4057 50.4838 26.783 50.4519 27.2187C50.1809 30.7739 49.1712 34.1217 47.577 37.1136C49.3678 38.1126 50.5263 39.287 50.5263 39.287C47.205 37.5546 37.1508 36.3005 25.2632 36.3005C16.2505 36.3005 8.29529 37.0232 3.52324 38.1232C2.00341 38.474 0.802427 38.8672 0 39.287C0 39.287 1.16378 38.1073 2.94932 37.1136C1.18504 33.7976 0.132852 30.0352 0.0106284 26.0443C2.43101e-07 25.6192 0.334787 25.2632 0.759914 25.2472L6.19091 25.0293L0.775856 24.7849C0.345415 24.7636 0.0106281 24.4023 0.0318844 23.9718C0.159422 21.4636 0.648318 19.0563 1.45606 16.7978C1.55703 16.4949 1.83867 16.293 2.1522 16.2824L15.0814 15.7669L3.25222 15.2355C2.68893 15.2089 2.3382 14.6137 2.58796 14.1089C3.5073 12.249 4.64982 10.5113 5.97835 8.9436C6.11651 8.77887 6.32376 8.6779 6.54164 8.66727L20.4805 8.10929L9.11897 7.59914C8.41751 7.56726 8.11461 6.70106 8.6407 6.23874C13.0833 2.35414 18.8969 0 25.2632 0C30.1734 0 34.7594 1.40292 38.6387 3.82614C39.287 4.23001 39.0266 5.22906 38.2614 5.26626L28.255 5.71264L41.6359 6.24936C41.8165 6.25468 41.9866 6.32907 42.1247 6.4513C44.8562 8.90109 47.0509 11.9354 48.5123 15.3577C48.7248 15.8572 48.3741 16.4205 47.8321 16.4418L36.2367 16.9626L48.7567 17.4621C49.0915 17.478 49.3785 17.7012 49.4741 18.0201C50.1596 20.3157 50.5263 22.7443 50.5263 25.2632C50.5263 25.2632 50.5263 25.2649 50.5263 25.2685C50.5263 25.683 50.1968 26.0231 49.7823 26.0443ZM16.2664 24.6786C15.0229 23.5573 13.4818 22.7283 12.7272 21.1819C12.6369 20.9906 12.504 20.7621 12.3127 20.7781C12.1214 20.7621 11.9886 20.9906 11.8982 21.1819C10.8939 23.2491 8.48128 24.0303 7.24841 25.9434C6.89237 26.496 6.65855 27.1071 6.49913 27.7555C6.20154 28.9724 6.19091 30.3115 6.19091 31.5869C6.19445 33.3937 6.19799 35.2005 6.20154 37.0073C6.61958 36.94 7.05179 36.8727 7.49817 36.8054C7.49463 35.4875 7.49109 34.1696 7.48754 32.8517C7.48754 31.7623 7.49817 30.6251 7.73199 29.5888C7.85422 29.0362 8.04552 28.5154 8.32186 28.0424C9.29433 26.4163 11.1968 25.7467 11.9833 23.9878C12.0577 23.823 12.1586 23.6264 12.3127 23.6424C12.4668 23.6264 12.5678 23.823 12.6422 23.9878C13.3915 25.6617 15.1505 26.3472 16.1548 27.8139C16.1548 26.7458 16.1708 25.6989 16.2664 24.6786ZM33.4575 22.723C33.2343 21.809 32.8995 20.9481 32.4 20.167C30.6623 17.4727 27.2613 16.3674 25.8477 13.4606C25.7521 13.264 25.6298 13.0354 25.4598 12.9398C25.4066 12.9079 25.3694 12.8388 25.3694 12.7697V11.877C25.3694 11.8185 25.4066 11.7654 25.4598 11.7548C25.683 11.7176 25.9062 11.6113 26.1028 11.4359C26.3579 11.2127 26.5332 10.9098 26.6236 10.575C26.5385 10.7291 26.4216 10.8673 26.2835 10.9789C25.7627 11.404 25.0453 11.2818 24.6414 10.6973C24.1791 10.0224 24.2854 9.02863 24.8646 8.52379C24.9815 8.41751 25.109 8.3378 25.2472 8.29529C24.9231 8.29529 24.5989 8.42814 24.3332 8.69916C23.7752 9.26245 23.653 10.2509 24.0515 10.9842C24.2907 11.4306 24.668 11.691 25.0665 11.7601C25.1144 11.7654 25.1569 11.8185 25.1569 11.8823V12.7697C25.1569 12.8388 25.1197 12.9079 25.0612 12.9398C24.8965 13.0354 24.7743 13.264 24.6786 13.4606C23.2651 16.3674 19.864 17.4727 18.1263 20.167C17.6268 20.9481 17.292 21.809 17.0688 22.723C16.6543 24.4395 16.6331 26.3207 16.6384 28.1168C16.6419 30.7278 16.6473 33.337 16.6543 35.9445C17.2531 35.9126 17.8606 35.8825 18.4771 35.8541C18.4735 33.8702 18.47 31.8863 18.4664 29.9024C18.4611 28.3719 18.4771 26.767 18.8065 25.3004C18.9819 24.5245 19.2476 23.7912 19.6409 23.1269C21.0066 20.8312 23.6849 19.8906 24.8008 17.4089C24.9018 17.1804 25.0506 16.9041 25.2632 16.9254C25.4757 16.9041 25.6245 17.1804 25.7255 17.4089C26.8414 19.8906 29.5197 20.8312 30.8855 23.1269C31.2787 23.7912 31.5444 24.5245 31.7198 25.3004C32.0492 26.767 32.0599 28.3719 32.0599 29.9024C32.0563 31.8863 32.051 33.8702 32.0439 35.8541C32.6639 35.8825 33.2733 35.9126 33.872 35.9445C33.8791 33.337 33.8844 30.7278 33.8879 28.1168C33.8932 26.3207 33.872 24.4395 33.4575 22.723ZM44.0272 27.7555C43.8678 27.1071 43.6339 26.496 43.2779 25.9434C42.045 24.0303 39.6324 23.2491 38.6281 21.1819C38.5377 20.9906 38.4049 20.7621 38.2136 20.7781C38.0223 20.7621 37.8894 20.9906 37.7991 21.1819C37.0445 22.7283 35.5034 23.5573 34.2599 24.6786C34.3556 25.6989 34.3715 26.7458 34.3715 27.8139C35.3759 26.3472 37.1348 25.6617 37.8841 23.9878C37.9585 23.823 38.0595 23.6264 38.2136 23.6424C38.3624 23.6264 38.4687 23.823 38.5431 23.9878C39.3295 25.7467 41.232 26.4163 42.2045 28.0424C42.4808 28.5154 42.6721 29.0362 42.7943 29.5888C43.0281 30.6251 43.0388 31.7623 43.0335 32.8517C43.0335 34.1696 43.0317 35.4875 43.0281 36.8054C43.4745 36.8727 43.9067 36.94 44.3248 37.0073C44.3283 35.2005 44.3319 33.3937 44.3354 31.5869C44.3354 30.3115 44.3248 28.9724 44.0272 27.7555Z" fill="white"/>
<path d="M63.4462 19.3686V6.59082H66.7161V19.3686H63.4462Z" fill="white"/>
<path d="M68.37 19.3686V6.59082H72.0439L75.571 13.8385H75.8649V6.59082H79.1347V19.3686H75.4607L71.9521 11.8945H71.6398V19.3686H68.37Z" fill="white"/>
<path d="M83.0707 19.3686V9.36532H80.058V6.59082H89.2429V9.36532H86.3405V19.3686H83.0707Z" fill="white"/>
<path d="M90.2009 19.3686V6.59082H98.9083V9.3087H93.4708V11.5736H97.8061V14.2726H93.4708V16.6319H98.9083V19.3686H90.2009Z" fill="white"/>
<path d="M100.148 19.3686V6.59082H105.163C106.253 6.59082 107.159 6.72294 107.881 6.98718C108.604 7.23883 109.143 7.68552 109.498 8.32724C109.865 8.95638 110.049 9.84346 110.049 10.9885C110.049 11.907 109.902 12.6746 109.608 13.2911C109.327 13.9077 108.904 14.3858 108.341 14.7256L109.976 19.3686H106.614L105.365 15.4994H103.418V19.3686H100.148ZM103.418 12.8004H105.255C105.61 12.8004 105.891 12.7249 106.1 12.5739C106.32 12.4229 106.479 12.2153 106.577 11.9511C106.675 11.6743 106.724 11.3597 106.724 11.0074C106.724 10.4286 106.596 9.99446 106.338 9.70505C106.093 9.41565 105.702 9.27095 105.163 9.27095H103.418V12.8004Z" fill="white"/>
<path d="M111.332 19.3686V6.59082H116.347C117.437 6.59082 118.343 6.72294 119.066 6.98718C119.789 7.23883 120.327 7.68552 120.683 8.32724C121.05 8.95638 121.234 9.84346 121.234 10.9885C121.234 11.907 121.087 12.6746 120.793 13.2911C120.511 13.9077 120.089 14.3858 119.525 14.7256L121.16 19.3686H117.798L116.549 15.4994H114.602V19.3686H111.332ZM114.602 12.8004H116.439C116.794 12.8004 117.076 12.7249 117.284 12.5739C117.505 12.4229 117.664 12.2153 117.762 11.9511C117.86 11.6743 117.909 11.3597 117.909 11.0074C117.909 10.4286 117.78 9.99446 117.523 9.70505C117.278 9.41565 116.886 9.27095 116.347 9.27095H114.602V12.8004Z" fill="white"/>
<path d="M122.517 19.3686V6.59082H131.224V9.3087H125.787V11.5736H130.122V14.2726H125.787V16.6319H131.224V19.3686H122.517Z" fill="white"/>
<path d="M131.582 19.3686L134.668 13.1968L131.582 6.59082H134.98L136.817 10.7809L138.875 6.59082H142.145L139.04 12.8193L142.034 19.3686H138.618L136.799 15.2918L134.944 19.3686H131.582Z" fill="white"/>
<path d="M63.8767 32.6961C63.5175 32.6961 63.1378 32.6751 62.7378 32.6332C62.3459 32.5912 61.9703 32.5409 61.6111 32.4822C61.2518 32.4151 60.9498 32.3563 60.7048 32.306L60.815 30.5822C61.0763 30.6073 61.3784 30.6409 61.7213 30.6828C62.0724 30.7248 62.4234 30.7625 62.7745 30.7961C63.1256 30.8213 63.4317 30.8338 63.693 30.8338C63.9461 30.8338 64.1461 30.8045 64.2931 30.7458C64.4482 30.687 64.5584 30.6031 64.6237 30.4941C64.6972 30.3767 64.734 30.2257 64.734 30.0411C64.734 29.8901 64.7013 29.7727 64.636 29.6888C64.5707 29.5965 64.4441 29.521 64.2563 29.4623C64.0767 29.3952 63.8155 29.3323 63.4726 29.2736C62.9419 29.1813 62.4928 29.0722 62.1254 28.9464C61.7662 28.8122 61.4764 28.6486 61.2559 28.4557C61.0355 28.2544 60.8763 28.0027 60.7783 27.7007C60.6803 27.3987 60.6313 27.0338 60.6313 26.606C60.6313 25.8846 60.7538 25.3268 60.9987 24.9325C61.2518 24.5383 61.607 24.2614 62.0642 24.1021C62.5214 23.9427 63.0643 23.863 63.693 23.863C63.9869 23.863 64.3176 23.8798 64.685 23.9133C65.0605 23.9469 65.4238 23.9846 65.7749 24.0266C66.1341 24.0685 66.4444 24.1146 66.7057 24.165L66.6199 25.9266C66.375 25.9014 66.0852 25.8762 65.7504 25.8511C65.4238 25.8175 65.0932 25.7881 64.7584 25.763C64.4237 25.7378 64.1298 25.7252 63.8767 25.7252C63.6399 25.7252 63.4399 25.7504 63.2766 25.8007C63.1215 25.8427 63.0072 25.9098 62.9337 26.0021C62.8684 26.0943 62.8357 26.216 62.8357 26.367C62.8357 26.5347 62.8725 26.6689 62.946 26.7696C63.0194 26.8619 63.146 26.9416 63.3256 27.0087C63.5134 27.0674 63.7787 27.1387 64.1216 27.2226C64.6523 27.34 65.0973 27.4617 65.4565 27.5875C65.8157 27.7133 66.1015 27.8685 66.3138 28.053C66.5342 28.2376 66.6934 28.4767 66.7914 28.7703C66.8894 29.0555 66.9383 29.4246 66.9383 29.8775C66.9383 30.5654 66.82 31.119 66.5832 31.5385C66.3464 31.9495 65.9994 32.2473 65.5422 32.4318C65.085 32.608 64.5298 32.6961 63.8767 32.6961Z" fill="white"/>
<path d="M67.0377 32.5451L69.0339 24.0266H72.5487L74.5571 32.5451H72.365L71.9976 31.1358H69.5238L69.1809 32.5451H67.0377ZM69.83 29.3868H71.7404L71.0056 25.8007H70.5893L69.83 29.3868Z" fill="white"/>
<path d="M75.0657 32.5451V24.0266H77.2456V30.6954H80.2827V32.5451H75.0657Z" fill="white"/>
<path d="M80.3176 32.5451L82.3138 24.0266H85.8286L87.837 32.5451H85.6449L85.2775 31.1358H82.8037L82.4608 32.5451H80.3176ZM83.1099 29.3868H85.0203L84.2855 25.8007H83.8691L83.1099 29.3868Z" fill="white"/>
<path d="M89.1827 32.5451V25.8762H87.1743V24.0266H93.2976V25.8762H91.3626V32.5451H89.1827Z" fill="white"/>
<path d="M97.918 32.5451V25.8762H95.9095V24.0266H102.033V25.8762H100.098V32.5451H97.918Z" fill="white"/>
<path d="M102.62 32.5451V24.0266H105.964C106.69 24.0266 107.295 24.1146 107.776 24.2908C108.258 24.4586 108.617 24.7564 108.854 25.1842C109.099 25.6036 109.221 26.195 109.221 26.9583C109.221 27.5707 109.123 28.0824 108.927 28.4934C108.74 28.9045 108.458 29.2232 108.082 29.4497L109.172 32.5451H106.931L106.099 29.9656H104.8V32.5451H102.62ZM104.8 28.1663H106.025C106.262 28.1663 106.45 28.116 106.588 28.0153C106.735 27.9146 106.841 27.7762 106.907 27.6001C106.972 27.4155 107.005 27.2058 107.005 26.9709C107.005 26.5851 106.919 26.2957 106.748 26.1027C106.584 25.9098 106.323 25.8133 105.964 25.8133H104.8V28.1663Z" fill="white"/>
<path d="M109.415 32.5451L111.411 24.0266H114.926L116.935 32.5451H114.742L114.375 31.1358H111.901L111.558 32.5451H109.415ZM112.207 29.3868H114.118L113.383 25.8007H112.967L112.207 29.3868Z" fill="white"/>
<path d="M120.423 32.6961C119.762 32.6961 119.215 32.6164 118.782 32.457C118.35 32.2976 118.007 32.046 117.754 31.702C117.501 31.3497 117.321 30.8926 117.215 30.3305C117.109 29.7685 117.056 29.0848 117.056 28.2795C117.056 27.4742 117.109 26.7948 117.215 26.2411C117.321 25.6791 117.501 25.2261 117.754 24.8822C118.007 24.5299 118.354 24.274 118.795 24.1146C119.244 23.9469 119.811 23.863 120.497 23.863C120.75 23.863 121.023 23.8798 121.317 23.9133C121.619 23.9469 121.913 23.9888 122.199 24.0391C122.485 24.0895 122.734 24.1398 122.946 24.1901L122.885 25.9391C122.738 25.914 122.546 25.8888 122.309 25.8636C122.081 25.8385 121.844 25.8175 121.599 25.8007C121.354 25.784 121.121 25.7756 120.901 25.7756C120.566 25.7756 120.289 25.8175 120.068 25.9014C119.856 25.9769 119.689 26.1111 119.566 26.304C119.452 26.4886 119.374 26.7402 119.333 27.059C119.293 27.3778 119.272 27.7846 119.272 28.2795C119.272 28.7661 119.293 29.1729 119.333 29.5001C119.374 29.8188 119.452 30.0747 119.566 30.2676C119.689 30.4522 119.856 30.5864 120.068 30.6703C120.289 30.7458 120.57 30.7835 120.913 30.7835C121.24 30.7835 121.591 30.7709 121.966 30.7458C122.35 30.7122 122.665 30.6828 122.909 30.6577L122.946 32.3941C122.758 32.436 122.526 32.4822 122.248 32.5325C121.971 32.5828 121.673 32.6206 121.354 32.6458C121.036 32.6793 120.725 32.6961 120.423 32.6961Z" fill="white"/>
<path d="M123.688 32.5451V24.0266H125.868V27.3736L126.677 27.361L128.024 24.0266H130.24L128.55 28.204L130.375 32.5451H128.122L126.689 29.3742L125.868 29.3994V32.5451H123.688Z" fill="white"/>
<path d="M130.819 32.5451V24.0266H136.624V25.8385H132.999V27.3484H135.889V29.1477H132.999V30.7206H136.624V32.5451H130.819Z" fill="white"/>
<path d="M137.399 32.5451V24.0266H140.742C141.469 24.0266 142.073 24.1146 142.555 24.2908C143.036 24.4586 143.396 24.7564 143.632 25.1842C143.877 25.6036 144 26.195 144 26.9583C144 27.5707 143.902 28.0824 143.706 28.4934C143.518 28.9045 143.236 29.2232 142.861 29.4497L143.951 32.5451H141.71L140.877 29.9656H139.579V32.5451H137.399ZM139.579 28.1663H140.803C141.04 28.1663 141.228 28.116 141.367 28.0153C141.514 27.9146 141.62 27.7762 141.685 27.6001C141.75 27.4155 141.783 27.2058 141.783 26.9709C141.783 26.5851 141.697 26.2957 141.526 26.1027C141.363 25.9098 141.101 25.8133 140.742 25.8133H139.579V28.1663Z" fill="white"/>
</svg>
