<svg width="151" height="163" viewBox="0 0 151 163" fill="none" xmlns="http://www.w3.org/2000/svg">
<path fill-rule="evenodd" clip-rule="evenodd" d="M133.704 60.8525L124.156 61.2746L133.53 61.6471C134.548 61.6968 135.343 62.5783 135.268 63.5965C134.635 71.903 132.276 79.7253 128.551 86.7157C132.735 89.05 135.442 91.794 135.442 91.794C127.682 87.7463 104.19 84.816 76.415 84.816C55.3569 84.816 36.7696 86.5046 25.6197 89.0748C22.0687 89.8943 19.2626 90.8131 17.3877 91.794C17.3877 91.794 20.1069 89.0376 24.2788 86.7157C20.1565 78.9679 17.6981 70.1771 17.4125 60.8525C17.3877 59.8592 18.1699 59.0273 19.1632 58.99L31.8527 58.4809L19.2005 57.9098C18.1948 57.8601 17.4125 57.0158 17.4622 56.0101C17.7602 50.1496 18.9025 44.525 20.7898 39.248C21.0257 38.5403 21.6837 38.0685 22.4163 38.0437L52.6253 36.8393L24.9865 35.5976C23.6704 35.5356 22.8509 34.1449 23.4345 32.9654C25.5825 28.6197 28.252 24.5595 31.3561 20.8967C31.6789 20.5118 32.1631 20.2759 32.6722 20.251L65.2403 18.9473L38.6941 17.7554C37.0552 17.6809 36.3474 15.657 37.5767 14.5768C47.9567 5.50044 61.5402 0 76.415 0C87.8877 0 98.603 3.27791 107.667 8.93976C109.182 9.88341 108.573 12.2177 106.785 12.3046L83.4054 13.3476L114.67 14.6016C115.092 14.614 115.489 14.7879 115.812 15.0734C122.194 20.7974 127.322 27.8871 130.736 35.8832C131.233 37.0504 130.414 38.3665 129.147 38.4161L102.055 39.6329L131.308 40.8001C132.09 40.8373 132.76 41.3588 132.984 42.1038C134.586 47.4677 135.442 53.1419 135.442 59.0273C135.442 59.0273 135.442 59.0314 135.442 59.0397C135.442 60.0082 134.672 60.8028 133.704 60.8525ZM55.3941 57.6615C52.4887 55.0416 48.8879 53.1047 47.1248 49.4915C46.9137 49.0445 46.6033 48.5106 46.1563 48.5479C45.7094 48.5106 45.399 49.0445 45.1879 49.4915C42.8412 54.3215 37.2042 56.1467 34.3236 60.6166C33.4917 61.9079 32.9454 63.3357 32.5729 64.8505C31.8776 67.6939 31.8527 70.8228 31.8527 73.8027C31.861 78.0243 31.8693 82.2458 31.8776 86.4674C32.8543 86.3101 33.8642 86.1528 34.9071 85.9956C34.8989 82.9163 34.8906 79.8371 34.8823 76.7578C34.8823 74.2124 34.9071 71.5554 35.4535 69.1342C35.739 67.8429 36.186 66.6261 36.8317 65.521C39.1039 61.7216 43.5489 60.1572 45.3865 56.0473C45.5604 55.6624 45.7963 55.203 46.1563 55.2403C46.5164 55.203 46.7523 55.6624 46.9262 56.0473C48.6769 59.9585 52.7867 61.5602 55.1334 64.9871C55.1334 62.4914 55.1706 60.0454 55.3941 57.6615ZM95.561 53.0923C95.0395 50.9566 94.2572 48.9452 93.0901 47.12C89.03 40.8249 81.0835 38.2423 77.7808 31.4506C77.5573 30.9912 77.2717 30.4573 76.8744 30.2338C76.7502 30.1593 76.6633 29.9979 76.6633 29.8365V27.7505C76.6633 27.6139 76.7502 27.4898 76.8744 27.4649C77.3959 27.378 77.9173 27.1297 78.3767 26.72C78.9727 26.1985 79.3825 25.4907 79.5935 24.7085C79.3949 25.0686 79.1217 25.3914 78.7989 25.6522C77.5821 26.6455 75.9059 26.3599 74.9622 24.9941C73.882 23.4172 74.1304 21.0954 75.4837 19.9158C75.7569 19.6675 76.0549 19.4812 76.3777 19.3819C75.6203 19.3819 74.8629 19.6923 74.2421 20.3255C72.9384 21.6417 72.6528 23.9511 73.584 25.6646C74.1428 26.7075 75.0243 27.3159 75.9556 27.4774C76.0673 27.4898 76.1666 27.6139 76.1666 27.7629V29.8365C76.1666 29.9979 76.0797 30.1593 75.9431 30.2338C75.5582 30.4573 75.2727 30.9912 75.0492 31.4506C71.7464 38.2423 63.8 40.8249 59.7398 47.12C58.5727 48.9452 57.7905 50.9566 57.269 53.0923C56.3005 57.1027 56.2508 61.4981 56.2632 65.6948C56.2715 71.7954 56.2839 77.8918 56.3005 83.9841C57.6994 83.9096 59.119 83.8392 60.5593 83.773C60.551 79.1376 60.5427 74.5022 60.5345 69.8667C60.5221 66.2908 60.5593 62.5411 61.3291 59.1142C61.7389 57.3014 62.3597 55.5879 63.2785 54.0359C66.4695 48.672 72.7273 46.4743 75.3347 40.6759C75.5707 40.142 75.9183 39.4964 76.415 39.546C76.9116 39.4964 77.2593 40.142 77.4952 40.6759C80.1026 46.4743 86.3605 48.672 89.5515 54.0359C90.4703 55.5879 91.0911 57.3014 91.5008 59.1142C92.2706 62.5411 92.2955 66.2908 92.2955 69.8667C92.2872 74.5022 92.2748 79.1376 92.2582 83.773C93.7068 83.8392 95.1305 83.9096 96.5294 83.9841C96.546 77.8918 96.5584 71.7954 96.5667 65.6948C96.5791 61.4981 96.5294 57.1027 95.561 53.0923ZM120.257 64.8505C119.885 63.3357 119.338 61.9079 118.506 60.6166C115.626 56.1467 109.989 54.3215 107.642 49.4915C107.431 49.0445 107.121 48.5106 106.674 48.5479C106.227 48.5106 105.916 49.0445 105.705 49.4915C103.942 53.1047 100.341 55.0416 97.4358 57.6615C97.6593 60.0454 97.6966 62.4914 97.6966 64.9871C100.043 61.5602 104.153 59.9585 105.904 56.0473C106.078 55.6624 106.314 55.203 106.674 55.2403C107.021 55.203 107.27 55.6624 107.443 56.0473C109.281 60.1572 113.726 61.7216 115.998 65.521C116.644 66.6261 117.091 67.8429 117.376 69.1342C117.923 71.5554 117.948 74.2124 117.935 76.7578C117.935 79.8371 117.931 82.9163 117.923 85.9956C118.966 86.1528 119.976 86.3101 120.952 86.4674C120.961 82.2458 120.969 78.0243 120.977 73.8027C120.977 70.8228 120.952 67.6939 120.257 64.8505Z" fill="white"/>
<path d="M5.76576 135.564V113.26H11.63V135.564H5.76576ZM14.5963 135.564V113.26H21.1853L27.5109 125.911H28.038V113.26H33.9023V135.564H27.3132L21.0206 122.517H20.4605V135.564H14.5963ZM40.9612 135.564V118.103H35.5581V113.26H52.0309V118.103H46.8255V135.564H40.9612ZM53.749 135.564V113.26H69.3652V118.004H59.6133V121.957H67.3884V126.668H59.6133V130.787H69.3652V135.564H53.749ZM71.588 135.564V113.26H80.5821C82.5369 113.26 84.1622 113.49 85.4581 113.952C86.7539 114.391 87.7203 115.17 88.3573 116.291C89.0162 117.389 89.3456 118.937 89.3456 120.936C89.3456 122.539 89.0821 123.879 88.5549 124.955C88.0498 126.032 87.292 126.866 86.2817 127.459L89.2138 135.564H83.1848L80.9445 128.81H77.4523V135.564H71.588ZM77.4523 124.099H80.7469C81.3838 124.099 81.889 123.967 82.2624 123.703C82.6577 123.44 82.9432 123.077 83.1189 122.616C83.2946 122.133 83.3825 121.584 83.3825 120.969C83.3825 119.959 83.1519 119.201 82.6906 118.696C82.2514 118.19 81.5485 117.938 80.5821 117.938H77.4523V124.099ZM91.647 135.564V113.26H100.641C102.596 113.26 104.221 113.49 105.517 113.952C106.813 114.391 107.779 115.17 108.416 116.291C109.075 117.389 109.405 118.937 109.405 120.936C109.405 122.539 109.141 123.879 108.614 124.955C108.109 126.032 107.351 126.866 106.341 127.459L109.273 135.564H103.244L101.004 128.81H97.5113V135.564H91.647ZM97.5113 124.099H100.806C101.443 124.099 101.948 123.967 102.321 123.703C102.717 123.44 103.002 123.077 103.178 122.616C103.354 122.133 103.441 121.584 103.441 120.969C103.441 119.959 103.211 119.201 102.75 118.696C102.31 118.19 101.608 117.938 100.641 117.938H97.5113V124.099ZM111.706 135.564V113.26H127.322V118.004H117.57V121.957H125.345V126.668H117.57V130.787H127.322V135.564H111.706ZM127.964 135.564L133.498 124.791L127.964 113.26H134.059L137.353 120.574L141.043 113.26H146.907L141.339 124.132L146.71 135.564H140.582L137.32 128.448L133.993 135.564H127.964ZM6.53779 158.827C5.89352 158.827 5.21265 158.791 4.49517 158.717C3.79233 158.644 3.11878 158.556 2.47451 158.454C1.83025 158.337 1.28848 158.234 0.849205 158.146L1.04688 155.137C1.51544 155.181 2.0572 155.24 2.67219 155.313C3.30181 155.386 3.93144 155.452 4.56106 155.511C5.19068 155.555 5.73977 155.577 6.20833 155.577C6.66225 155.577 7.02099 155.525 7.28455 155.423C7.56276 155.32 7.76043 155.174 7.87757 154.984C8.00935 154.779 8.07524 154.515 8.07524 154.193C8.07524 153.929 8.01667 153.724 7.89953 153.578C7.78239 153.417 7.55544 153.285 7.21866 153.183C6.89653 153.065 6.42797 152.956 5.81299 152.853C4.86123 152.692 4.0559 152.502 3.39699 152.282C2.75272 152.048 2.23291 151.762 1.83757 151.426C1.44222 151.074 1.1567 150.635 0.980987 150.108C0.805278 149.581 0.717423 148.944 0.717423 148.197C0.717423 146.938 0.937059 145.964 1.37633 145.276C1.83025 144.588 2.46719 144.104 3.28717 143.826C4.10714 143.548 5.08087 143.409 6.20833 143.409C6.73546 143.409 7.32848 143.438 7.98739 143.497C8.66094 143.555 9.31253 143.621 9.94215 143.694C10.5864 143.768 11.1428 143.848 11.6114 143.936L11.4576 147.011C11.0184 146.967 10.4986 146.923 9.89822 146.879C9.31253 146.82 8.71951 146.769 8.11917 146.725C7.51883 146.681 6.9917 146.659 6.53779 146.659C6.11316 146.659 5.75442 146.703 5.46157 146.791C5.18336 146.864 4.97837 146.982 4.84659 147.143C4.72945 147.304 4.67088 147.516 4.67088 147.78C4.67088 148.072 4.73677 148.307 4.86855 148.482C5.00033 148.643 5.22729 148.783 5.54942 148.9C5.8862 149.002 6.36208 149.127 6.97706 149.273C7.92882 149.478 8.72683 149.69 9.3711 149.91C10.0154 150.13 10.5278 150.401 10.9086 150.723C11.3039 151.045 11.5894 151.462 11.7651 151.975C11.9408 152.472 12.0287 153.117 12.0287 153.907C12.0287 155.108 11.8164 156.075 11.3918 156.807C10.9671 157.524 10.3448 158.044 9.52484 158.366C8.70487 158.674 7.70918 158.827 6.53779 158.827ZM12.207 158.564L15.7871 143.694H22.0906L25.6927 158.564H21.7612L21.1023 156.104H16.6656L16.0506 158.564H12.207ZM17.2147 153.051H20.641L19.3232 146.791H18.5764L17.2147 153.051ZM26.6047 158.564V143.694H30.5142V155.335H35.9612V158.564H26.6047ZM36.0238 158.564L39.6039 143.694H45.9074L49.5095 158.564H45.578L44.9191 156.104H40.4824L39.8674 158.564H36.0238ZM41.0315 153.051H44.4578L43.14 146.791H42.3933L41.0315 153.051ZM51.9229 158.564V146.923H48.3209V143.694H59.3027V146.923H55.8324V158.564H51.9229ZM67.5891 158.564V146.923H63.9871V143.694H74.9689V146.923H71.4987V158.564H67.5891ZM76.0228 158.564V143.694H82.0189C83.3221 143.694 84.4056 143.848 85.2695 144.156C86.1334 144.448 86.7777 144.968 87.2023 145.715C87.6416 146.447 87.8612 147.479 87.8612 148.812C87.8612 149.881 87.6855 150.774 87.3341 151.491C86.9973 152.209 86.4922 152.765 85.8186 153.161L87.7734 158.564H83.754L82.2605 154.061H79.9324V158.564H76.0228ZM79.9324 150.92H82.1287C82.5534 150.92 82.8901 150.833 83.1391 150.657C83.4026 150.481 83.593 150.24 83.7101 149.932C83.8273 149.61 83.8858 149.244 83.8858 148.834C83.8858 148.16 83.7321 147.655 83.4246 147.318C83.1317 146.982 82.6632 146.813 82.0189 146.813H79.9324V150.92ZM88.2089 158.564L91.789 143.694H98.0925L101.695 158.564H97.7631L97.1042 156.104H92.6675L92.0525 158.564H88.2089ZM93.2166 153.051H96.6429L95.3251 146.791H94.5783L93.2166 153.051ZM107.951 158.827C106.765 158.827 105.784 158.688 105.008 158.41C104.232 158.132 103.617 157.692 103.163 157.092C102.709 156.477 102.387 155.679 102.197 154.698C102.007 153.717 101.911 152.524 101.911 151.118C101.911 149.712 102.007 148.526 102.197 147.56C102.387 146.579 102.709 145.788 103.163 145.188C103.617 144.573 104.24 144.126 105.03 143.848C105.836 143.555 106.853 143.409 108.083 143.409C108.537 143.409 109.028 143.438 109.555 143.497C110.097 143.555 110.624 143.628 111.136 143.716C111.649 143.804 112.095 143.892 112.476 143.98L112.366 147.033C112.103 146.989 111.758 146.945 111.334 146.901C110.924 146.857 110.499 146.82 110.06 146.791C109.621 146.762 109.203 146.747 108.808 146.747C108.208 146.747 107.71 146.82 107.315 146.967C106.934 147.099 106.634 147.333 106.414 147.67C106.209 147.992 106.07 148.431 105.997 148.988C105.923 149.544 105.887 150.254 105.887 151.118C105.887 151.967 105.923 152.677 105.997 153.249C106.07 153.805 106.209 154.252 106.414 154.588C106.634 154.91 106.934 155.145 107.315 155.291C107.71 155.423 108.215 155.489 108.83 155.489C109.416 155.489 110.045 155.467 110.719 155.423C111.407 155.364 111.971 155.313 112.41 155.269L112.476 158.3C112.139 158.373 111.722 158.454 111.224 158.542C110.726 158.63 110.192 158.696 109.621 158.739C109.05 158.798 108.493 158.827 107.951 158.827ZM113.807 158.564V143.694H117.717V149.537L119.166 149.515L121.582 143.694H125.558L122.527 150.986L125.799 158.564H121.758L119.188 153.029L117.717 153.073V158.564H113.807ZM126.595 158.564V143.694H137.006V146.857H130.504V149.493H135.688V152.634H130.504V155.379H137.006V158.564H126.595ZM138.396 158.564V143.694H144.392C145.695 143.694 146.779 143.848 147.643 144.156C148.507 144.448 149.151 144.968 149.576 145.715C150.015 146.447 150.235 147.479 150.235 148.812C150.235 149.881 150.059 150.774 149.707 151.491C149.371 152.209 148.865 152.765 148.192 153.161L150.147 158.564H146.127L144.634 154.061H142.306V158.564H138.396ZM142.306 150.92H144.502C144.927 150.92 145.263 150.833 145.512 150.657C145.776 150.481 145.966 150.24 146.083 149.932C146.201 149.61 146.259 149.244 146.259 148.834C146.259 148.16 146.105 147.655 145.798 147.318C145.505 146.982 145.036 146.813 144.392 146.813H142.306V150.92Z" fill="white"/>
</svg>
