<svg width="26" height="26" viewBox="0 0 26 26" fill="none" xmlns="http://www.w3.org/2000/svg">
<g clip-path="url(#clip0_149_5050)">
<path d="M12.7065 8.17031C8.42995 8.17031 4.95107 11.6492 4.95107 15.9258C4.95107 17.289 5.31041 18.6296 5.9895 19.8044H19.4236C20.1027 18.6296 20.462 17.289 20.462 15.9258C20.462 11.6492 16.9831 8.17031 12.7065 8.17031ZM12.7065 6.44688C13.1828 6.44688 13.5683 6.06146 13.5683 5.58516V3.86172C13.5683 3.38542 13.1828 3 12.7065 3C12.2302 3 11.8448 3.38542 11.8448 3.86172V5.58516C11.8448 6.06146 12.2302 6.44688 12.7065 6.44688ZM2.36592 15.0641H0.64248C0.16618 15.0641 -0.219238 15.4495 -0.219238 15.9258C-0.219238 16.4021 0.16618 16.7875 0.64248 16.7875H2.36592C2.84222 16.7875 3.22764 16.4021 3.22764 15.9258C3.22764 15.4495 2.84222 15.0641 2.36592 15.0641ZM24.7706 15.0641H23.0472C22.5709 15.0641 22.1854 15.4495 22.1854 15.9258C22.1854 16.4021 22.5709 16.7875 23.0472 16.7875H24.7706C25.2469 16.7875 25.6323 16.4021 25.6323 15.9258C25.6323 15.4495 25.2469 15.0641 24.7706 15.0641ZM23.9005 9.46289C23.6615 9.04973 23.1322 8.90748 22.7232 9.14733L21.2312 10.009C20.8188 10.2472 20.6774 10.774 20.9156 11.1863C21.154 11.599 21.682 11.7393 22.0929 11.5019L23.5849 10.6402C23.9972 10.402 24.1386 9.87525 23.9005 9.46289ZM17.446 7.7167C17.8561 7.95362 18.3845 7.81459 18.6233 7.40114L19.485 5.90911C19.7232 5.49674 19.5818 4.96995 19.1694 4.73182C18.7579 4.49198 18.2303 4.63422 17.9922 5.04739L17.1304 6.53942C16.8923 6.95178 17.0336 7.47858 17.446 7.7167ZM6.78981 7.40114C7.02816 7.81385 7.55617 7.95408 7.96709 7.7167C8.37945 7.47853 8.52083 6.95178 8.28265 6.53942L7.42093 5.04739C7.18109 4.63422 6.65429 4.49198 6.24365 4.73182C5.83129 4.97 5.68991 5.49674 5.92809 5.90911L6.78981 7.40114ZM4.1819 10.009L2.68987 9.14733C2.27751 8.90748 1.75157 9.04973 1.51259 9.46289C1.27441 9.87525 1.41579 10.402 1.82815 10.6402L3.32019 11.5019C3.73031 11.7388 4.25871 11.5998 4.49747 11.1863C4.73564 10.774 4.59427 10.2472 4.1819 10.009Z" fill="url(#paint0_linear_149_5050)"/>
<path d="M26.5516 18.511H-1.13828C-1.61458 18.511 -2 18.8964 -2 19.3727C-2 19.849 -1.61458 20.2344 -1.13828 20.2344H26.5516C27.0279 20.2344 27.4133 19.849 27.4133 19.3727C27.4133 18.8964 27.0279 18.511 26.5516 18.511Z" fill="url(#paint1_linear_149_5050)"/>
</g>
<defs>
<linearGradient id="paint0_linear_149_5050" x1="0.576195" y1="19.8044" x2="17.4265" y2="-3.05005" gradientUnits="userSpaceOnUse">
<stop stop-color="#3546D7"/>
<stop offset="1" stop-color="#C38BF5"/>
</linearGradient>
<linearGradient id="paint1_linear_149_5050" x1="-1.09497" y1="20.2344" x2="-0.855578" y2="16.6323" gradientUnits="userSpaceOnUse">
<stop stop-color="#3546D7"/>
<stop offset="1" stop-color="#C38BF5"/>
</linearGradient>
<clipPath id="clip0_149_5050">
<rect width="26" height="26" fill="white"/>
</clipPath>
</defs>
</svg>
