<svg width="201" height="206" viewBox="0 0 201 206" fill="none" xmlns="http://www.w3.org/2000/svg">
<path d="M57.6163 171.606C97.9114 171.582 138.231 171.484 178.551 171.484C177.35 139.027 171.324 106.742 160.693 76.3675C157.362 66.8877 153.271 57.0895 145.653 51.2351C137.619 45.0377 127.257 44.3029 117.557 42.4902C107.881 40.702 96.2457 36.5623 91.7385 27.0825C86.5944 37.3706 75.5715 42.2697 65.1609 45.2582C54.7503 48.2711 43.6293 50.3533 35.1784 57.6284C24.6943 66.7163 20.6525 81.879 17.958 96.1599C13.2549 121.023 10.8053 146.302 9.87451 171.68C25.7721 171.582 41.6942 171.606 57.6163 171.606Z" fill="url(#paint0_linear_131_2661)"/>
<path d="M38.4606 104.243C37.5052 103.851 36.7214 103.092 36.1825 102.21C35.6191 101.328 35.3006 100.324 35.0557 99.3197C34.8842 98.5603 34.6637 97.7275 34.5658 96.9436C34.5658 98.5113 34.3208 100.079 33.6349 101.475C32.9736 102.872 31.8223 104.096 30.3525 104.635C31.7733 105.174 32.8511 106.448 33.5859 107.746C34.3208 109.069 34.7127 110.563 34.9332 112.057C35.1047 110.588 35.3496 109.118 35.864 107.722C36.3784 106.35 37.2358 105.076 38.4606 104.243Z" fill="white"/>
<path d="M153.491 95.8169C153.026 95.5965 152.658 95.2046 152.413 94.7391C152.168 94.2982 152.046 93.7838 151.948 93.2694C151.874 92.902 151.801 92.4856 151.776 92.0936C151.727 92.853 151.556 93.6368 151.188 94.2982C150.796 94.9841 150.184 95.5475 149.449 95.768C150.135 96.0864 150.625 96.7478 150.968 97.4092C151.286 98.095 151.409 98.8544 151.482 99.5893C151.605 98.8789 151.776 98.144 152.07 97.4826C152.389 96.7968 152.854 96.2089 153.491 95.8169Z" fill="white"/>
<path d="M72.1421 75.7306C71.4807 75.4121 70.9663 74.8242 70.6234 74.1873C70.2804 73.5505 70.0845 72.8156 69.962 72.1052C69.864 71.5663 69.766 70.9784 69.7415 70.415C69.6436 71.5173 69.3986 72.6196 68.8597 73.575C68.3453 74.5303 67.4635 75.3141 66.4102 75.6326C67.39 76.0735 68.1003 77.0043 68.5658 77.9841C69.0067 78.9395 69.2026 80.0173 69.3006 81.0706C69.4721 80.0418 69.717 79.013 70.158 78.0576C70.5744 77.1023 71.2358 76.2695 72.1421 75.7306Z" fill="white"/>
<path d="M7.76758 174.79C7.13069 174.79 6.49381 174.742 5.85693 174.644C5.19555 174.521 4.58316 174.325 3.92178 174.178C2.7215 173.909 1.44773 174.031 0.320939 174.497C-0.266953 174.741 0.0269941 175.672 0.614886 175.427C1.76618 174.937 2.94196 174.913 4.14224 175.256C5.36702 175.574 6.5673 175.77 7.81657 175.77C8.45345 175.746 8.37996 174.766 7.76758 174.79Z" fill="#66192A"/>
<path d="M8.96753 173.468C7.93872 173.321 7.03239 172.855 6.10156 172.439C5.12174 171.998 4.11742 171.631 3.03962 171.435C2.42723 171.337 2.18228 172.292 2.79466 172.39C3.84797 172.586 4.82779 172.929 5.80761 173.37C6.73844 173.811 7.69376 174.276 8.72258 174.423C8.96753 174.448 9.23698 174.35 9.31047 174.056C9.38395 173.835 9.23698 173.517 8.96753 173.468Z" fill="#66192A"/>
<path d="M10.5845 170.798C10.511 170.847 9.99656 170.7 9.92307 170.675C9.66179 170.626 9.40867 170.569 9.16371 170.504C8.60032 170.381 8.03692 170.234 7.47352 170.112C6.39572 169.867 5.26893 169.72 4.16663 169.793C3.52974 169.818 3.52974 170.798 4.16663 170.773C5.4159 170.675 6.64068 170.92 7.86545 171.214C8.45334 171.337 9.06573 171.508 9.65362 171.631C10.217 171.753 10.7804 171.9 11.2703 171.484C11.7357 171.092 11.0499 170.406 10.5845 170.798Z" fill="#66192A"/>
<path d="M12.4951 168.422C12.2011 168.52 11.9562 168.422 11.6867 168.324C11.3764 168.242 11.0743 168.152 10.7804 168.054C10.217 167.858 9.65358 167.687 9.09018 167.564C7.9144 167.27 6.71412 167.099 5.51384 167.221C5.24439 167.27 5.02393 167.442 5.02393 167.711C5.02393 167.956 5.24439 168.25 5.51384 168.201C6.76311 168.054 8.01238 168.275 9.21266 168.593C9.82505 168.765 10.4374 168.961 11.0498 169.157C11.5887 169.328 12.1766 169.573 12.74 169.377C13.3279 169.181 13.0829 168.226 12.4951 168.422Z" fill="#66192A"/>
<path d="M13.8665 165.972C12.8051 165.858 11.7599 165.695 10.7311 165.482C10.2249 165.368 9.71863 165.245 9.21239 165.115C8.69799 164.992 8.18358 164.845 7.66918 164.992C7.05679 165.188 7.30174 166.119 7.91413 165.948C8.35505 165.825 8.84496 166.046 9.28588 166.144C9.79212 166.274 10.3065 166.389 10.8291 166.487C11.8252 166.699 12.8377 166.854 13.8665 166.952C14.136 166.976 14.3564 166.707 14.3564 166.462C14.3564 166.193 14.136 165.997 13.8665 165.972Z" fill="#66192A"/>
<path d="M15.8508 163.988C13.7116 163.514 11.5478 163.155 9.35954 162.91C9.09009 162.886 8.86963 163.155 8.86963 163.4C8.86963 163.694 9.09009 163.866 9.35954 163.89C11.4662 164.135 13.5483 164.486 15.6059 164.943C16.2183 165.09 16.4877 164.135 15.8508 163.988Z" fill="#66192A"/>
<path d="M17.4431 161.808C16.8797 161.857 16.3163 161.857 15.7529 161.759C15.214 161.661 14.7241 161.489 14.2097 161.391C13.0829 161.146 11.9561 161.171 10.8048 161.22C10.1679 161.244 10.1679 162.224 10.8048 162.2C11.9561 162.151 13.0829 162.126 14.1852 162.396C15.2875 162.641 16.3163 162.886 17.4431 162.788C18.08 162.739 18.08 161.759 17.4431 161.808Z" fill="#66192A"/>
<path d="M19.4027 160.534C17.3451 160.24 15.4345 159.162 13.3033 159.211C12.6665 159.236 12.6665 160.216 13.3033 160.191C15.3365 160.142 17.1736 161.195 19.1578 161.489C19.4272 161.538 19.6967 161.416 19.7702 161.146C19.8192 160.902 19.6722 160.583 19.4027 160.534Z" fill="#66192A"/>
<path d="M21.8522 158.893C20.6764 158.648 19.5088 158.37 18.3494 158.06C17.2716 157.766 16.0958 157.325 14.969 157.644C14.3566 157.815 14.6015 158.771 15.2139 158.599C16.2427 158.305 17.3695 158.82 18.3494 159.064C19.4272 159.342 20.5131 159.603 21.6073 159.848C22.2197 159.971 22.4646 159.04 21.8522 158.893Z" fill="#66192A"/>
<path d="M22.6851 157.791C21.6563 157.333 20.6029 156.901 19.5251 156.492C18.5208 156.1 17.394 155.586 16.2917 155.88C15.6793 156.027 15.9243 156.982 16.5367 156.811C17.0021 156.688 17.4675 156.811 17.9329 156.958C18.4228 157.105 18.9128 157.301 19.3782 157.472C20.3417 157.848 21.2888 158.24 22.2196 158.648C22.4646 158.77 22.7341 158.721 22.881 158.477C23.0035 158.256 22.93 157.913 22.6851 157.791Z" fill="#66192A"/>
<path d="M25.4529 155.904C24.7915 155.953 24.1546 155.904 23.5177 155.733C22.9053 155.562 22.3419 155.292 21.7785 154.998C20.6272 154.435 19.378 154.116 18.0797 154.19C17.4428 154.239 17.4428 155.219 18.0797 155.17C18.7411 155.145 19.4025 155.194 20.0639 155.366C20.6762 155.537 21.2151 155.831 21.7785 156.1C22.9298 156.664 24.1546 156.958 25.4529 156.884C26.0653 156.835 26.0653 155.855 25.4529 155.904Z" fill="#66192A"/>
<path d="M8.99193 174.129C7.69366 174.227 6.61586 173.713 5.39108 173.37C4.16631 173.027 2.89254 172.831 1.61878 172.782C0.981892 172.733 0.981892 173.713 1.61878 173.762C2.89254 173.811 4.16631 174.031 5.41558 174.399C6.00347 174.57 6.56687 174.815 7.15476 174.962C7.76715 175.109 8.37954 175.158 8.99193 175.109C9.62881 175.036 9.62881 174.056 8.99193 174.129Z" fill="black"/>
<path d="M10.0452 172.708C8.96744 172.202 7.88148 171.696 6.78734 171.19C5.75853 170.7 4.72972 170.357 3.57843 170.381C2.96604 170.406 2.96604 171.386 3.57843 171.361C4.65623 171.337 5.58706 171.704 6.51789 172.145C7.5467 172.619 8.56735 173.084 9.57983 173.541C10.1432 173.811 10.6331 172.953 10.0452 172.708Z" fill="black"/>
<path d="M11.9071 169.769C9.38407 169.597 7.08149 168.128 4.48496 168.569C3.87258 168.667 4.11753 169.622 4.75442 169.524C5.9547 169.303 7.15498 169.622 8.30626 169.965C9.48205 170.308 10.6578 170.675 11.9071 170.749C12.544 170.773 12.5195 169.793 11.9071 169.769Z" fill="black"/>
<path d="M13.5485 167.662C11.3684 166.928 9.01685 165.874 6.64079 166.193C6.39583 166.217 6.17537 166.389 6.15088 166.683C6.15088 166.903 6.39583 167.197 6.64079 167.173C7.79208 167.026 8.89438 167.222 9.99667 167.54C11.099 167.858 12.2013 168.25 13.3036 168.618C13.8915 168.814 14.1609 167.858 13.5485 167.662Z" fill="black"/>
<path d="M14.8957 165.58C12.838 164.992 10.9519 163.841 8.77179 163.718C8.1594 163.694 8.1594 164.674 8.77179 164.698C10.8539 164.796 12.6911 165.972 14.6507 166.511C15.2386 166.682 15.5081 165.752 14.8957 165.58Z" fill="black"/>
<path d="M16.7815 163.327C15.6547 162.959 14.5524 162.567 13.4011 162.249C12.2498 161.906 11.0985 161.71 9.89822 161.881C9.65327 161.906 9.50629 162.224 9.55529 162.469C9.62877 162.763 9.89822 162.861 10.1677 162.812C11.2455 162.665 12.3478 162.959 13.4011 163.278C14.4544 163.572 15.5077 163.939 16.5365 164.257C17.1489 164.453 17.3938 163.498 16.7815 163.327Z" fill="black"/>
<path d="M18.0066 161.906C17.0758 161.44 16.1449 160.926 15.1896 160.534C14.2098 160.118 13.181 159.848 12.1277 160.118C11.5153 160.265 11.7602 161.22 12.3726 161.073C13.279 160.853 14.1853 161.122 14.9936 161.514C15.851 161.906 16.6838 162.347 17.5412 162.763C18.1046 163.033 18.57 162.2 18.0066 161.906Z" fill="black"/>
<path d="M20.5296 159.971C18.3985 159.726 16.5124 158.256 14.3078 158.477C14.0383 158.526 13.8179 158.697 13.8179 158.966C13.8179 159.211 14.0383 159.505 14.3078 159.456C15.3856 159.358 16.3899 159.677 17.3942 160.044C18.423 160.436 19.4273 160.828 20.5296 160.951C20.7991 160.975 21.0195 160.706 21.0195 160.461C21.0195 160.167 20.7991 159.995 20.5296 159.971Z" fill="black"/>
<path d="M22.0239 158.648C20.9461 158.305 19.8928 157.929 18.8639 157.521C18.3495 157.325 17.8351 157.105 17.3452 156.884C16.8553 156.688 16.3409 156.492 15.7775 156.566C15.5081 156.59 15.2876 156.762 15.2876 157.056C15.2876 157.276 15.5081 157.57 15.7775 157.546C16.2919 157.472 16.7573 157.693 17.2227 157.913C17.7127 158.109 18.2107 158.305 18.717 158.501C19.7294 158.909 20.7501 159.277 21.7789 159.603C22.3668 159.799 22.6118 158.844 22.0239 158.648Z" fill="black"/>
<path d="M23.9344 157.374C21.7298 156.713 19.8927 155.072 17.5656 154.729C17.2961 154.704 17.0267 154.802 16.9532 155.096C16.8797 155.317 17.0512 155.635 17.2961 155.684C19.6232 156.027 21.4849 157.668 23.6895 158.33C24.3019 158.526 24.5468 157.57 23.9344 157.374Z" fill="black"/>
<path d="M26.3353 155.929C25.1595 155.586 24.1552 154.851 23.1264 154.214C22.0486 153.577 20.9218 153.039 19.6725 152.99C19.0356 152.965 19.0356 153.945 19.6725 153.969C20.8728 154.018 21.9261 154.631 22.9304 155.243C23.9347 155.88 24.939 156.541 26.0903 156.884C26.6782 157.056 26.9232 156.101 26.3353 155.929Z" fill="black"/>
<path d="M174.753 155.047C173.994 154.998 173.284 155.096 172.549 155.243C171.838 155.39 171.128 155.415 170.418 155.415C169.781 155.415 169.781 156.394 170.418 156.394C171.152 156.394 171.912 156.37 172.647 156.223C173.357 156.076 174.018 155.978 174.753 156.027C174.998 156.051 175.243 155.782 175.243 155.537C175.243 155.268 175.023 155.072 174.753 155.047Z" fill="#66192A"/>
<path d="M178.158 156.443C177.693 156.419 177.252 156.394 176.787 156.443C176.321 156.492 175.88 156.639 175.439 156.835C174.606 157.227 173.798 157.521 172.867 157.546C172.23 157.57 172.23 158.55 172.867 158.526C173.823 158.501 174.729 158.256 175.586 157.864C175.978 157.668 176.346 157.497 176.787 157.423C177.228 157.35 177.693 157.399 178.158 157.423C178.795 157.472 178.771 156.492 178.158 156.443Z" fill="#66192A"/>
<path d="M182.298 158.305C181 158.134 179.849 158.574 178.624 158.966C177.375 159.383 176.052 159.677 174.754 159.873C174.484 159.897 174.337 160.216 174.386 160.461C174.46 160.73 174.729 160.853 174.999 160.804C176.223 160.64 177.432 160.371 178.624 159.995C179.702 159.652 180.878 159.113 182.053 159.26C182.323 159.285 182.568 159.187 182.641 158.917C182.715 158.672 182.568 158.354 182.298 158.305Z" fill="#66192A"/>
<path d="M182.665 159.236C182.249 159.726 181.391 159.848 180.804 159.995C180.118 160.191 179.407 160.314 178.697 160.485C177.423 160.803 176.174 161.293 175.194 162.2C174.729 162.616 175.439 163.302 175.88 162.886C176.884 161.979 178.207 161.612 179.505 161.318C180.191 161.146 180.902 160.999 181.587 160.803C182.2 160.632 182.935 160.436 183.351 159.922C183.768 159.456 183.082 158.77 182.665 159.236Z" fill="#66192A"/>
<path d="M185.433 160.681C184.184 160.24 182.91 160.657 181.759 161.146C180.534 161.685 179.31 162.2 178.06 162.592C177.448 162.788 177.693 163.743 178.305 163.547C179.481 163.171 180.64 162.73 181.784 162.224C182.837 161.734 184.013 161.195 185.164 161.636C185.752 161.857 185.997 160.901 185.433 160.681Z" fill="#66192A"/>
<path d="M187.491 162.2C186.144 162.126 184.772 162.298 183.498 162.739C182.298 163.155 181.147 164.086 179.848 164.11C179.211 164.11 179.211 165.09 179.848 165.09C181.196 165.066 182.273 164.257 183.498 163.792C184.772 163.302 186.144 163.106 187.491 163.18C188.128 163.228 188.128 162.249 187.491 162.2Z" fill="#66192A"/>
<path d="M190.406 164.037C187.54 163.449 185.017 165.36 182.176 165.286C181.563 165.286 181.563 166.266 182.176 166.266C183.547 166.291 184.846 165.899 186.119 165.507C187.418 165.09 188.789 164.698 190.161 164.992C190.774 165.115 191.043 164.159 190.406 164.037Z" fill="#66192A"/>
<path d="M191.386 165.409C190.725 165.556 190.161 165.972 189.549 166.217C188.887 166.462 188.201 166.609 187.491 166.707C186.095 166.927 184.699 166.952 183.327 167.295C182.715 167.442 182.959 168.397 183.572 168.25C184.944 167.907 186.34 167.858 187.736 167.662C188.422 167.564 189.083 167.417 189.72 167.197C190.382 166.952 190.969 166.511 191.631 166.339C192.243 166.192 191.998 165.262 191.386 165.409Z" fill="#66192A"/>
<path d="M192.905 167.393C191.827 168.299 190.357 168.544 189.01 168.716C187.54 168.912 186.071 169.059 184.772 169.818C184.233 170.136 184.723 170.969 185.262 170.675C186.61 169.891 188.177 169.818 189.671 169.597C191.092 169.401 192.488 169.034 193.591 168.079C194.081 167.662 193.37 166.976 192.905 167.393Z" fill="#66192A"/>
<path d="M195.55 168.814C194.179 168.593 192.905 169.034 191.656 169.524C190.333 170.038 188.985 170.43 187.565 170.602C186.952 170.675 186.952 171.655 187.565 171.582C188.912 171.41 190.235 171.116 191.509 170.626C192.684 170.185 193.983 169.548 195.305 169.744C195.918 169.842 196.163 168.912 195.55 168.814Z" fill="#66192A"/>
<path d="M197.192 172.071C195.991 171.557 194.669 171.924 193.419 172.071C192.072 172.218 190.7 172.267 189.378 171.924C188.765 171.753 188.52 172.708 189.133 172.855C190.382 173.198 191.68 173.223 192.978 173.1C193.615 173.027 194.252 172.953 194.889 172.88C195.477 172.782 196.138 172.684 196.726 172.929C197.29 173.198 197.779 172.341 197.192 172.071Z" fill="#66192A"/>
<path d="M199.91 174.741C197.412 173.247 194.497 173.909 191.753 173.541C191.484 173.517 191.239 173.615 191.165 173.884C191.092 174.129 191.239 174.447 191.508 174.496C194.105 174.839 197.044 174.178 199.42 175.574C199.959 175.893 200.449 175.06 199.91 174.741Z" fill="#66192A"/>
<path d="M200.646 174.643C199.445 174.325 198.221 174.57 197.045 174.937C195.869 175.305 194.718 175.746 193.468 175.672C192.832 175.648 192.832 176.628 193.468 176.652C194.644 176.726 195.795 176.358 196.922 175.991C198.049 175.648 199.225 175.28 200.401 175.599C201.013 175.746 201.258 174.815 200.646 174.643Z" fill="black"/>
<path d="M198.538 172.953C196.236 172.317 194.129 173.737 191.876 173.639C191.239 173.615 191.239 174.595 191.876 174.619C192.978 174.668 194.056 174.374 195.134 174.105C196.162 173.835 197.24 173.615 198.293 173.884C198.881 174.056 199.151 173.125 198.538 172.953Z" fill="black"/>
<path d="M195.379 170.749C194.301 170.43 193.223 170.822 192.219 171.263C191.19 171.704 190.137 171.949 189.01 171.924C188.373 171.924 188.373 172.904 189.01 172.904C190.088 172.929 191.165 172.733 192.17 172.341C193.101 171.973 194.105 171.386 195.134 171.68C195.746 171.875 195.991 170.92 195.379 170.749Z" fill="black"/>
<path d="M193.664 168.642C193.615 168.422 193.321 168.201 193.076 168.299C191.827 168.813 190.504 169.156 189.157 169.352C188.054 169.524 186.878 169.524 185.972 170.332C185.507 170.749 186.217 171.434 186.683 171.018C187.442 170.332 188.716 170.406 189.671 170.259C190.92 170.063 192.145 169.72 193.321 169.254C193.566 169.156 193.737 168.936 193.664 168.642Z" fill="black"/>
<path d="M192.439 166.584C191.312 166.658 190.259 167.074 189.181 167.491C188.152 167.907 187.099 168.299 185.997 168.226C185.36 168.177 185.36 169.156 185.997 169.205C188.299 169.377 190.185 167.711 192.439 167.564C193.076 167.54 193.076 166.56 192.439 166.584Z" fill="black"/>
<path d="M190.48 164.453C188.275 166.07 185.311 165.36 182.837 166.266C182.249 166.462 182.494 167.417 183.106 167.197C185.654 166.266 188.642 167.001 190.945 165.311C191.459 164.943 190.969 164.086 190.48 164.453Z" fill="black"/>
<path d="M188.348 162.959C187.099 163.18 185.801 163.351 184.576 163.718C184.013 163.89 183.474 164.086 182.959 164.38C182.469 164.649 182.053 165.115 181.489 165.262C180.877 165.409 181.122 166.364 181.734 166.192C182.322 166.046 182.739 165.654 183.253 165.36C183.743 165.041 184.257 164.821 184.821 164.674C186.046 164.306 187.344 164.135 188.593 163.89C189.23 163.792 188.961 162.837 188.348 162.959Z" fill="black"/>
<path d="M185.581 160.902C183.18 162.004 180.387 161.881 178.134 163.302C177.595 163.645 178.085 164.502 178.599 164.159C180.853 162.739 183.67 162.837 186.046 161.759C186.634 161.489 186.144 160.657 185.581 160.902Z" fill="black"/>
<path d="M184.062 159.579C181.857 159.628 180.044 161.073 177.889 161.294C177.619 161.318 177.399 161.49 177.399 161.783C177.399 162.028 177.619 162.298 177.889 162.273C178.991 162.151 179.995 161.783 181 161.367C181.98 160.975 183.008 160.583 184.062 160.559C184.699 160.559 184.699 159.579 184.062 159.579Z" fill="black"/>
<path d="M182.347 158.231C181.857 158.525 181.367 158.77 180.804 158.917C180.241 159.064 179.653 159.113 179.065 159.211C177.963 159.358 176.909 159.701 175.954 160.289C175.44 160.632 175.905 161.489 176.444 161.146C177.424 160.558 178.452 160.265 179.579 160.118C180.731 159.971 181.808 159.701 182.837 159.089C183.352 158.746 182.886 157.888 182.347 158.231Z" fill="black"/>
<path d="M180.755 157.276C179.702 157.252 178.648 157.399 177.644 157.693C176.591 158.011 175.611 158.501 174.607 158.917C174.362 159.015 174.313 159.383 174.435 159.579C174.582 159.848 174.852 159.873 175.097 159.775C176.003 159.383 176.934 158.942 177.889 158.648C178.82 158.354 179.775 158.232 180.755 158.256C181.392 158.281 181.392 157.301 180.755 157.276Z" fill="black"/>
<path d="M177.889 155.415C176.86 155.488 175.831 155.659 174.827 155.953C173.92 156.247 173.014 156.737 172.059 156.688C171.422 156.688 171.422 157.668 172.059 157.668C173.039 157.717 173.945 157.276 174.876 156.982C175.856 156.639 176.86 156.468 177.889 156.394C178.526 156.37 178.526 155.39 177.889 155.415Z" fill="black"/>
<path d="M194.987 175.893C189.549 171.141 184.111 166.38 178.673 161.612C177.317 160.42 175.962 159.228 174.606 158.036C173.504 157.08 172.402 155.953 171.054 155.292C168.139 153.847 164.735 155.464 161.722 155.831C154.765 156.664 147.784 155.243 140.876 154.435C134.066 153.651 127.232 153.406 120.398 153.455C106.656 153.577 92.9627 154.949 79.2453 155.733C65.6503 156.517 51.9083 156.713 38.4112 154.459C36.7456 154.19 35.0799 153.847 33.3897 153.504C31.8464 153.185 30.2542 152.891 28.6375 153.038C25.7961 153.332 25.3306 154.606 23.371 156.541C18.8148 161.097 12.5685 166.34 8.72268 171.508C7.96332 172.537 6.02818 175.427 5.95469 175.574C5.68524 176.432 56.048 179.126 81.4009 178.293C87.6227 178.097 93.8691 177.803 100.115 177.828C106.288 177.852 112.437 178.489 118.61 178.661C124.733 178.832 130.71 177.901 136.785 177.289C142.762 176.677 148.788 176.701 154.789 176.946C168.09 177.509 181.514 179.077 194.766 176.726C195.109 176.652 195.256 176.138 194.987 175.893Z" fill="#AB2F3D"/>
<path d="M185.997 173.468C185.964 173.468 185.932 173.468 185.899 173.468C183.988 170.21 181.392 167.54 178.746 165.041C176.125 162.543 173.48 160.093 170.834 157.619C162.702 157.644 154.569 157.595 146.461 157.595C106.974 157.595 67.4631 157.889 27.9763 157.546C23.9591 162.347 19.7213 166.927 15.2877 171.263C15.0182 171.533 15.1407 172.096 15.5081 172.169C26.3106 174.08 37.2601 174.35 48.1851 174.521C59.2898 174.684 70.3944 174.782 81.499 174.815C103.855 174.88 126.203 174.701 148.543 174.276C161.011 174.031 173.578 173.174 185.997 174.546C186.634 174.619 186.609 173.541 185.997 173.468Z" fill="#D15358"/>
<g style="mix-blend-mode:multiply" opacity="0.3">
<path d="M25.5264 168.814C33.6344 170.871 42.1343 171.239 50.3648 169.916L49.4585 171.655C48.9686 172.635 49.385 173.835 50.3893 174.301C54.0637 175.991 58.4239 175.991 62.5636 175.917L169.266 174.08C170.809 174.056 172.328 173.541 173.504 172.512C176.541 169.867 174.778 166.291 172.328 164.355C168.482 161.318 163.216 160.975 158.317 160.755C138.181 159.873 118.046 158.991 97.8861 158.574C77.6283 158.158 57.3216 158.207 37.0883 159.211C33.4629 159.407 28.4659 158.77 25.2324 160.73C21.1172 163.18 20.2354 167.466 25.5264 168.814Z" fill="#D15358"/>
</g>
<path d="M194.987 175.893C194.938 175.86 194.889 175.819 194.84 175.77C194.807 175.787 194.774 175.803 194.742 175.819C181.514 178.171 168.09 176.603 154.789 176.04C148.788 175.795 142.762 175.77 136.785 176.358C130.71 176.995 124.733 177.926 118.61 177.754C112.437 177.583 106.288 176.946 100.115 176.922C93.8691 176.897 87.6227 177.191 81.4009 177.387C57.5667 178.171 11.6621 175.819 6.4446 174.839C6.15065 175.231 5.97919 175.525 5.95469 175.574C5.68524 176.432 56.048 179.126 81.4009 178.293C87.6227 178.097 93.8691 177.803 100.115 177.828C106.288 177.852 112.437 178.489 118.61 178.661C124.733 178.857 130.71 177.901 136.785 177.289C142.762 176.677 148.788 176.701 154.789 176.946C168.09 177.509 181.514 179.077 194.742 176.726C195.109 176.652 195.256 176.138 194.987 175.893Z" fill="#66192A"/>
<path d="M174.386 156.198C173.872 154.851 173.578 153.406 173.504 151.936C173.382 148.997 174.557 146.131 174.239 143.191C173.994 140.644 172.304 137.998 169.487 137.974C169.291 137.974 169.168 138.072 169.095 138.194C168.874 138.219 168.654 138.366 168.629 138.66C168.36 140.938 168.262 143.216 168.164 145.518C168.148 146.368 168.123 147.217 168.091 148.066C168.058 148.85 168.025 149.642 167.993 150.442C167.895 152.426 167.748 154.435 167.405 156.394C167.086 158.305 166.547 160.167 165.959 162.004C165.323 164.037 164.71 166.095 164.71 168.226C164.686 168.52 164.931 168.691 165.2 168.716C166.735 168.863 168.278 169.018 169.83 169.181C170.908 169.279 172.059 169.255 172.696 168.275C172.696 168.258 172.696 168.25 172.696 168.25C172.867 168.005 172.99 167.711 173.112 167.393C173.21 167.123 173.284 166.854 173.382 166.585C173.643 165.817 173.904 165.049 174.165 164.282C174.655 162.91 175.17 161.538 175.268 160.093C175.366 158.672 174.851 157.497 174.386 156.198Z" fill="#FCB088"/>
<path d="M171.887 167.932C171.373 167.711 170.957 167.442 170.761 166.903C170.516 166.291 170.565 165.605 170.589 164.968C170.908 158.501 173.21 152.083 171.569 145.616C171.52 145.322 171.299 145.249 171.079 145.273C170.687 144.882 170.124 144.71 169.56 144.784C169.021 144.857 168.58 145.151 168.164 145.518C168.148 146.368 168.123 147.217 168.091 148.066C168.058 148.85 168.025 149.642 167.993 150.442C167.895 152.426 167.748 154.435 167.405 156.394C167.086 158.305 166.547 160.167 165.959 162.004C165.323 164.037 164.71 166.095 164.71 168.226C164.686 168.52 164.931 168.691 165.2 168.716C166.735 168.863 168.278 169.018 169.83 169.181C170.908 169.279 172.059 169.255 172.696 168.275C172.696 168.258 172.696 168.25 172.696 168.25C172.426 168.152 172.157 168.054 171.887 167.932Z" fill="#E0875E"/>
<path d="M173.259 144.465C172.638 142.963 172.001 141.477 171.348 140.007C170.736 138.586 170.246 136.847 168.948 135.916C168.017 135.23 166.89 134.985 165.788 134.814C165.665 134.446 165.445 134.079 165.126 133.834C164.979 133.711 164.832 133.638 164.661 133.54C163.314 132.511 161.477 132.634 159.909 133.099C158.856 133.418 157.851 133.883 156.773 134.079C155.598 134.299 154.373 134.128 153.173 134.054C151.36 133.932 149.327 133.981 147.882 135.255C147.539 135.573 147.269 136.039 146.926 136.431C146.706 136.7 146.461 136.945 146.142 137.067C145.603 137.288 144.942 137.116 144.403 137.043C144.281 137.018 144.158 136.994 144.036 136.994C144.019 136.945 144.011 136.896 144.011 136.847C142.272 127.833 140.557 118.818 138.059 110C137.544 108.163 136.981 106.35 136.393 104.537C136.467 101.255 134.678 98.193 132.694 95.621C130.269 92.4856 127.452 89.6441 124.366 87.17C122.872 85.9697 121.279 84.647 119.516 83.8631C117.679 83.0303 115.694 83.1283 113.735 83.2018C109.375 83.4222 104.941 83.4957 100.605 84.0101C98.5231 84.2796 96.4899 84.7205 94.5303 85.5043C92.6197 86.2637 90.7825 87.219 88.9698 88.1743C85.1485 90.134 81.3272 92.1181 77.5304 94.1757C69.9613 98.2665 62.5147 102.627 55.4845 107.624C53.7371 108.865 52.0143 110.147 50.3159 111.47C48.7972 112.621 47.107 113.797 46.1027 115.462C45.6373 116.295 45.3188 117.104 44.5595 117.716C43.8981 118.279 43.1142 118.671 42.3794 119.161C41.2281 119.921 40.1993 121.121 40.2483 122.615C40.2728 123.178 40.4687 123.693 40.8362 124.085C40.8606 124.134 40.8606 124.183 40.9096 124.256C43.2857 127.71 46.5926 130.527 50.4384 132.242C54.8966 134.25 59.9427 134.765 64.7193 135.573C64.9316 135.606 65.1439 135.638 65.3562 135.671C70.0593 136.479 74.7624 137.288 79.3921 138.488C81.8171 139.125 84.2177 139.86 86.5693 140.742C88.6759 141.55 90.8315 142.603 92.1787 144.465C92.9381 145.518 93.33 146.694 93.33 147.968C93.3545 149.389 93.1096 150.785 93.0851 152.206C93.0606 154.827 93.477 157.423 94.2364 159.897C94.1629 159.995 94.1139 160.093 94.1384 160.265C94.3833 162.273 94.6528 164.306 95.4611 166.193C95.8531 167.123 96.392 167.981 97.0778 168.716C97.8617 169.524 98.7925 170.161 99.6254 170.871C100.409 171.533 101.169 172.267 102.124 172.61C103.226 173.002 104.475 172.978 105.627 172.978C108.15 172.978 110.697 172.708 113.22 172.586C115.792 172.463 118.315 172.635 120.863 172.953C123.411 173.272 125.958 173.419 128.53 173.419C133.576 173.419 138.647 173.492 143.717 173.345C146.485 173.247 149.229 172.782 151.972 172.39C154.716 171.998 157.508 171.729 160.227 172.316C160.325 172.512 160.497 172.635 160.766 172.537C162.064 172.096 163.412 171.631 164.563 170.847C165.616 170.136 166.425 169.181 167.037 168.079C167.119 167.964 167.192 167.85 167.257 167.736C168.703 164.943 169.438 161.783 170.295 158.77C171.226 155.472 172.157 152.173 173.087 148.874C173.308 148.139 173.577 147.355 173.675 146.572C173.749 145.837 173.528 145.175 173.259 144.465Z" fill="white"/>
<path d="M167.037 168.079C166.425 169.181 165.617 170.136 164.563 170.847C163.412 171.631 162.065 172.096 160.766 172.537C160.497 172.635 160.326 172.512 160.228 172.316C157.509 171.729 154.716 171.998 151.973 172.39C149.229 172.782 146.486 173.247 143.718 173.345C138.647 173.492 133.576 173.419 128.53 173.419C125.958 173.419 123.411 173.272 120.863 172.953C118.316 172.635 115.793 172.463 113.221 172.586C110.698 172.708 108.15 172.978 105.627 172.978C104.476 172.978 103.227 173.002 102.124 172.61C101.169 172.267 100.41 171.533 99.6257 170.871C98.7928 170.161 97.862 169.524 97.0782 168.716C96.3923 167.981 95.8534 167.123 95.4615 166.193C94.6531 164.306 94.3837 162.273 94.1387 160.265C94.1142 160.093 94.1632 159.995 94.2367 159.897C93.4773 157.423 93.0609 154.827 93.0854 152.206C93.1099 150.785 93.3548 149.389 93.3303 147.968C93.3303 146.694 92.9384 145.518 92.1791 144.465C90.8318 142.603 88.6762 141.55 86.5696 140.742C84.218 139.86 81.8175 139.125 79.3924 138.488C74.7627 137.288 70.0596 136.48 65.3565 135.671C64.3032 132.585 63.7398 129.327 63.8622 126.069C63.9602 123.374 64.4256 118.475 66.6792 116.565C67.904 115.536 69.8147 115.389 71.2844 114.924C73.1215 114.385 74.9097 113.674 76.6244 112.866C80.2252 111.176 83.5811 108.922 86.5451 106.277C88.4802 104.513 90.2684 102.578 91.8361 100.471C92.277 99.8588 93.2324 100.398 92.9629 101.084C91.6402 104.439 90.0969 107.697 88.4802 110.906C87.8923 112.131 88.9946 113.478 90.2929 113.111L91.2972 112.841C93.4528 112.253 95.5349 114.017 95.3145 116.246C95.1185 118.23 94.996 120.19 94.9225 122.174C94.8736 123.84 94.9715 125.824 96.6862 126.583C97.4456 126.926 98.3274 126.877 99.1113 126.534C100.826 125.775 101.708 124.134 102.541 122.566C101.61 125.285 101.022 128.127 100.85 130.993C100.581 135.132 101.095 139.468 99.5032 143.314C102.075 143.191 104.696 143.779 106.974 145.004C106.117 145.518 105.088 145.788 104.084 145.714C104.696 146.033 105.137 146.768 105.137 147.478C105.162 148.531 104.525 149.462 103.79 150.222C103.08 150.981 102.222 151.618 101.659 152.5C100.385 154.435 100.752 157.105 101.928 159.113C104.157 162.837 108.297 165.041 112.584 165.703C116.846 166.364 121.231 165.629 125.468 164.723C126.252 164.576 127.11 164.404 127.771 164.845C128.383 165.213 128.506 166.315 127.918 166.634C133.601 164.429 138.916 161.294 143.595 157.374C142.738 156.762 141.611 156.59 140.631 156.933C142.248 152.132 143.105 147.037 143.154 141.942C143.154 140.546 143.105 139.076 143.571 137.753C143.685 137.427 143.832 137.125 144.012 136.847C144.575 135.916 145.506 135.181 146.584 135.108C146.584 135.573 146.706 136.014 146.927 136.431C147.661 137.778 149.401 138.635 150.895 138.096C151.997 137.68 152.952 136.627 154.275 137.263C154.986 137.582 155.475 138.243 155.647 139.003C156.284 141.624 155.916 144.49 154.667 146.866C154.839 144.882 154.888 142.701 153.785 141.036C152.683 139.346 150.013 138.586 148.641 140.08C152.316 144.906 151.777 152.598 147.122 156.492C153.32 151.177 158.807 145.004 163.363 138.243C164.147 144.318 160.179 149.928 156.112 154.533C154.324 156.566 152.463 158.55 150.601 160.559C149.931 161.277 149.254 162.004 148.568 162.739C147.931 163.4 147.294 164.086 146.584 164.649C142.664 167.711 136.54 167.246 133.258 170.969C134.287 172.439 136.54 171.827 138.157 171.067C143.236 168.699 148.306 166.34 153.369 163.988C155.377 163.033 157.435 162.077 159.003 160.51C162.751 156.713 162.726 150.613 165.225 145.91C166.302 152.206 165.249 158.844 162.285 164.502C161.869 165.335 161.379 166.168 162.04 167.246C162.457 167.932 163.167 168.373 163.951 168.52C165.004 168.74 166.033 168.471 167.037 168.079Z" fill="#EDF3F4"/>
<path d="M76.3793 156.517C74.8606 155.341 73.1459 154.484 71.2353 154.043C71.1128 154.018 70.9903 153.994 70.8433 154.067C70.2065 154.41 69.4961 154.459 68.7857 154.508C68.0509 154.557 67.316 154.614 66.5811 154.68C65.1359 154.802 63.6662 154.974 62.2209 155.219C60.8002 155.464 59.3549 155.782 57.9587 156.198C57.4688 156.345 56.6359 156.468 56.293 156.909C55.9501 157.35 56.0725 158.109 56.0481 158.623C56.0481 158.844 56.2195 159.064 56.4155 159.113C57.3708 159.358 58.4486 159.015 59.3794 158.868C59.7714 158.795 60.1633 158.721 60.5307 158.672C60.2613 158.844 59.9918 159.015 59.7959 159.236C59.257 159.799 59.8938 160.363 60.4327 160.608C61.1921 160.926 62.0494 160.804 62.8088 160.485C63.6906 160.118 64.548 159.407 65.5523 159.407C66.0177 159.407 66.4097 159.652 66.8261 159.824C67.267 159.995 67.7324 160.069 68.1978 160.093C69.3001 160.142 70.4269 160.093 71.5292 160.02C72.46 159.946 73.2439 159.75 73.9788 159.162C74.8116 158.525 75.5955 157.864 76.3793 157.227C76.5753 157.056 76.5753 156.688 76.3793 156.517Z" fill="#E0875E"/>
<path d="M79.8331 153.039C79.5065 152.271 79.1718 151.503 78.8288 150.736C78.5022 149.968 78.1756 149.201 77.849 148.433C77.5795 147.797 77.3101 147.16 76.8447 146.67C76.0118 145.788 74.6891 145.518 73.5868 145.91C73.3908 145.984 73.2928 146.131 73.2683 146.278C71.9619 148.727 70.6473 151.177 69.3246 153.626C69.2021 153.896 69.3246 154.288 69.643 154.361C72.4845 154.851 75.0075 156.541 76.5262 158.991C76.7222 159.334 77.1631 159.309 77.3836 158.991C77.8572 158.289 78.3389 157.578 78.8288 156.86C79.2452 156.247 79.7596 155.611 80.1026 154.949C80.47 154.288 80.1026 153.675 79.8331 153.039Z" fill="#EDF3F4"/>
<path d="M60.1633 154.9C60.0164 153.749 59.306 152.745 58.7426 151.765C58.3997 151.177 58.0567 150.589 57.7138 150.001C57.3953 149.462 56.9054 148.85 56.8075 148.237C56.685 147.625 56.9054 146.89 57.0034 146.278C57.1014 145.608 57.1994 144.939 57.2974 144.269C57.4443 143.167 57.8608 141.844 57.3219 140.791C56.832 139.835 55.8276 139.247 54.9703 138.635C53.8435 137.835 52.7167 137.043 51.5899 136.259C49.0914 134.479 46.5847 132.699 44.0698 130.919C43.8983 130.821 43.6044 130.846 43.4819 130.993C42.3796 132.364 41.3018 133.736 40.1995 135.108C39.7096 135.696 39.2932 136.112 38.5583 136.333C37.8479 136.553 37.1376 136.773 36.4517 137.043C33.8307 138.072 31.3811 139.664 29.5685 141.844C27.8048 143.975 26.6535 146.596 26.482 149.364C26.2861 152.353 27.2169 155.341 28.6866 157.889C30.3033 160.755 32.6059 163.131 34.982 165.335C34.9575 165.58 35.031 165.825 35.3249 165.923C37.2355 166.609 39.3911 165.825 41.2528 165.384C42.0612 165.213 43.09 165.139 43.6289 164.429C43.8248 164.159 43.9228 163.865 44.0698 163.547C44.2658 163.131 44.4127 162.935 44.8781 163.204C45.2456 163.425 45.564 163.767 45.9314 164.012C46.3234 164.29 46.748 164.527 47.2052 164.723C48.0381 165.115 48.9199 165.384 49.8507 165.507C50.6101 165.605 51.6634 165.752 52.4228 165.507C53.1331 165.262 52.9127 164.306 52.7657 163.792C52.6187 163.327 52.4962 163.033 53.0351 162.861C53.4026 162.739 53.7945 162.714 54.1374 162.543C54.6519 162.273 54.9703 161.783 55.0193 161.22C55.4847 161.22 55.9501 161.048 56.2931 160.706C56.8075 160.216 56.9789 159.53 57.0279 158.844C58.6691 158.011 60.4573 157.007 60.1633 154.9Z" fill="#FCB088"/>
<path d="M52.3979 161.808C52.1285 161.195 51.5651 160.681 50.9037 160.534C50.5608 160.485 50.2178 160.485 49.8994 160.608C49.532 160.73 49.2625 160.926 49.0421 161.244C48.8951 161.465 48.9931 161.808 49.2135 161.906C49.483 162.053 49.7279 161.955 49.8994 161.734C49.8504 161.783 49.8504 161.783 49.8749 161.734C49.9076 161.718 49.9321 161.702 49.9484 161.685C49.9484 161.661 49.9729 161.661 49.9974 161.636C50.0464 161.604 50.0954 161.571 50.1444 161.538C50.1688 161.538 50.1933 161.538 50.2178 161.538C50.2668 161.522 50.324 161.506 50.3893 161.489C50.4056 161.489 50.4301 161.489 50.4628 161.489C50.5118 161.489 50.5608 161.489 50.6098 161.489C50.6261 161.489 50.6343 161.489 50.6343 161.489C50.6506 161.489 50.6751 161.498 50.7077 161.514C50.7567 161.514 50.8057 161.53 50.8547 161.563C50.8547 161.563 50.8547 161.563 50.8792 161.563C50.9119 161.579 50.9364 161.596 50.9527 161.612C51.0017 161.644 51.0507 161.677 51.0997 161.71C51.1323 161.726 51.1568 161.742 51.1732 161.759C51.2221 161.808 51.263 161.849 51.2956 161.881C51.312 161.914 51.3365 161.938 51.3691 161.955C51.4344 162.069 51.4916 162.183 51.5406 162.298C51.6631 162.518 52.006 162.616 52.2265 162.469C52.4469 162.322 52.5204 162.053 52.3979 161.808Z" fill="#E0875E"/>
<path d="M42.992 136.21C42.7961 135.549 41.6693 132.095 40.5425 133.295C40.322 133.54 40.224 133.883 40.0526 134.177C39.8076 134.553 39.5218 134.895 39.1952 135.206C38.6563 135.745 38.0195 136.186 37.3091 136.504C37.1621 136.504 37.0396 136.577 36.9417 136.724C36.4272 137.533 36.4027 138.488 36.2803 139.394L35.8883 142.628C35.6271 144.816 35.3658 147.013 35.1045 149.217C34.835 151.373 34.7126 153.553 34.7615 155.733C34.8105 157.987 34.933 160.216 34.7615 162.469C34.7371 162.886 35.3249 163.106 35.5944 162.812C36.1823 162.151 36.7947 161.538 37.3091 160.853C37.5295 160.583 37.701 160.289 37.799 159.946C37.946 159.505 37.9215 159.015 38.1909 158.623C38.5828 158.06 39.2932 157.791 39.9301 157.644C40.5425 157.497 41.2039 157.472 41.5958 156.958C41.9877 156.443 41.9632 155.611 41.8652 155.023C41.7673 154.337 41.3998 153.798 40.7385 153.528C40.1751 153.308 39.5627 153.332 38.9993 153.161C38.2889 152.941 37.6765 152.426 37.3336 151.789C36.5252 150.246 37.4805 148.605 38.3379 147.331C39.2197 146.008 40.371 145.175 41.5713 144.196C42.6981 143.314 43.433 142.211 43.5799 140.766C43.7269 139.272 43.4085 137.655 42.992 136.21Z" fill="black"/>
<path d="M36.4026 151.177C36.8925 146.229 37.5784 141.281 37.8723 136.284C37.8968 136.112 37.8233 135.99 37.7008 135.916C37.6274 135.696 37.4314 135.524 37.1374 135.598C33.6836 136.48 30.3522 137.802 27.2168 139.517C25.7715 140.325 24.2038 141.158 23.077 142.407C22.0727 143.534 21.3868 144.955 21.0194 146.425C20.554 148.139 20.505 149.928 20.5295 151.691C20.554 153.455 20.4805 155.341 21.0929 156.982C21.6808 158.526 22.7586 159.946 23.8364 161.147C24.9142 162.347 26.2124 163.327 27.6577 164.061C29.2254 164.87 30.9401 165.409 32.6548 165.85C33.112 165.964 33.5693 166.078 34.0265 166.193C34.345 166.266 34.7369 166.413 35.0798 166.462C35.3493 166.683 35.8882 166.56 35.9372 166.095C36.1086 163.621 35.8392 161.122 35.9127 158.623C35.9617 156.149 36.1576 153.651 36.4026 151.177Z" fill="white"/>
<path d="M35.4471 154.361C32.9976 154.459 30.548 154.263 28.1475 153.7C25.8694 153.161 23.3709 152.426 21.5092 150.956C21.0193 150.589 20.3089 151.275 20.8233 151.667C22.783 153.185 25.2815 154.018 27.6821 154.582C30.2296 155.194 32.8506 155.464 35.4471 155.341C36.084 155.317 36.084 154.337 35.4471 154.361Z" fill="#EDF3F4"/>
<path d="M35.79 137.361C35.888 136.725 34.9327 136.48 34.8347 137.092C33.267 146.474 32.7036 155.978 33.1935 165.458C33.2425 166.095 34.2223 166.095 34.1733 165.458C33.6834 156.076 34.2223 146.621 35.79 137.361Z" fill="#EDF3F4"/>
<path d="M37.1617 138.047C35.349 137.802 33.5608 138.292 31.8461 138.856C30.205 139.395 28.6127 140.056 27.1185 140.938C24.375 142.579 21.999 144.93 20.7252 147.894C20.4802 148.482 21.3376 148.972 21.5825 148.384C22.7583 145.641 24.8894 143.461 27.437 141.918C28.8087 141.06 30.2784 140.423 31.7972 139.909C33.3894 139.37 35.202 138.758 36.9167 139.003C37.5291 139.076 37.7741 138.145 37.1617 138.047Z" fill="#EDF3F4"/>
<path d="M22.9053 154.851C22.7747 154.737 22.6522 154.606 22.5379 154.459C22.4644 154.41 22.4154 154.312 22.3664 154.263C22.3501 154.247 22.3419 154.231 22.3419 154.214C22.3092 154.182 22.2766 154.149 22.2439 154.116C22.1459 153.969 22.0561 153.814 21.9745 153.651C21.9418 153.569 21.9091 153.488 21.8765 153.406C21.8602 153.39 21.852 153.373 21.852 153.357C21.8357 153.308 21.8193 153.267 21.803 153.235C21.7295 152.99 21.4846 152.794 21.2151 152.867C20.9702 152.941 20.7742 153.21 20.8477 153.479C21.1171 154.263 21.5825 154.998 22.2194 155.537C22.4154 155.709 22.7338 155.733 22.9053 155.537C23.0768 155.366 23.1258 155.023 22.9053 154.851Z" fill="#EDF3F4"/>
<path d="M21.8768 153.406C21.8523 153.308 21.8523 153.381 21.8768 153.406V153.406Z" fill="#EDF3F4"/>
<path d="M22.783 149.683C22.7585 149.56 22.685 149.438 22.5625 149.389C22.5135 149.372 22.4727 149.356 22.44 149.34C22.3584 149.323 22.2767 149.323 22.1951 149.34L21.4112 149.487C21.3459 149.487 21.2887 149.511 21.2398 149.56C21.1744 149.593 21.1254 149.642 21.0928 149.707C21.0438 149.805 21.0193 149.952 21.0438 150.075C21.0928 150.197 21.1663 150.319 21.2887 150.368C21.3214 150.385 21.3622 150.401 21.4112 150.417C21.4929 150.45 21.5745 150.45 21.6562 150.417L22.44 150.295C22.5054 150.279 22.5625 150.246 22.6115 150.197C22.6605 150.164 22.7013 150.115 22.734 150.05C22.8075 149.952 22.832 149.805 22.783 149.683Z" fill="#EDF3F4"/>
<path d="M26.2373 150.834C26.6538 147.331 27.854 143.926 28.099 140.374C28.1235 139.762 27.1437 139.762 27.1192 140.374C26.9967 142.211 26.5558 143.975 26.1394 145.763C25.7474 147.527 25.429 149.291 25.233 151.079C24.8166 154.729 24.9146 158.403 25.4535 162.028C25.527 162.665 26.4823 162.42 26.3843 161.783C25.8699 158.158 25.8209 154.484 26.2373 150.834Z" fill="#EDF3F4"/>
<path d="M46.1761 148.997C45.3923 148.384 44.4859 147.821 43.5796 147.356C41.8649 146.498 39.7828 146.547 38.1171 147.527C37.5782 147.821 38.0681 148.678 38.607 148.36C39.8808 147.625 41.473 147.503 42.8447 148.09C43.5551 148.409 44.192 148.874 44.8534 149.266C45.3188 149.56 46.4456 150.148 46.1271 150.883C45.8822 151.446 46.715 151.936 46.9845 151.348C47.3764 150.442 46.9355 149.56 46.1761 148.997Z" fill="#E0875E"/>
<path d="M44.2905 151.128C44.2171 150.858 43.9476 150.736 43.6782 150.785C43.2127 150.858 42.7228 150.883 42.2574 150.858C42.2411 150.826 42.2166 150.801 42.1839 150.785C42.1839 150.785 42.1839 150.793 42.1839 150.809C42.1023 150.728 42.0206 150.638 41.939 150.54C41.89 150.458 41.841 150.377 41.792 150.295C41.7593 150.197 41.7349 150.107 41.7185 150.026C41.7185 149.96 41.7185 149.895 41.7185 149.83C41.7185 149.56 41.4736 149.315 41.2286 149.34C40.9592 149.34 40.7387 149.56 40.7387 149.83C40.7387 150.074 40.7632 150.344 40.8612 150.589C40.1998 150.344 39.5874 149.977 39.122 149.364C38.975 149.168 38.6076 149.193 38.4361 149.364C38.2157 149.585 38.2646 149.854 38.4361 150.05C39.7344 151.74 41.9635 152.034 43.9231 151.716C44.1926 151.691 44.3395 151.373 44.2905 151.128Z" fill="#E0875E"/>
<path d="M58.5713 154.435C57.1016 152.622 55.5583 150.875 53.9416 149.193C53.2558 148.482 52.5209 147.723 51.5901 147.331C50.5368 146.915 49.41 147.037 48.3077 147.209C47.6708 147.282 47.9402 148.237 48.5526 148.139C49.5814 147.992 50.6592 147.87 51.5901 148.433C52.4229 148.923 53.0843 149.732 53.7457 150.417C55.1827 151.936 56.5627 153.504 57.8854 155.121C58.2773 155.61 58.9632 154.925 58.5713 154.435Z" fill="#E0875E"/>
<path d="M81.9646 167.491C79.711 166.193 77.3595 165.139 74.9099 164.282C74.7384 164.086 74.4445 164.012 74.224 164.257C74.0444 164.47 73.8648 164.674 73.6851 164.87C73.5545 165.033 73.4238 165.188 73.2932 165.335C73.1707 165.458 73.0482 165.629 72.9013 165.776C72.8359 165.841 72.7543 165.89 72.6563 165.923C72.3869 165.997 72.0439 165.972 71.7745 165.972C70.6313 166.005 69.4964 166.005 68.3696 165.972C67.2673 165.923 66.1895 165.85 65.0872 165.752C64.6708 165.727 64.2789 165.727 63.8869 165.899C63.348 166.119 62.9561 166.291 62.3682 166.291C61.3394 166.291 60.2861 166.217 59.2328 166.266C58.8898 166.291 58.5469 166.34 58.2285 166.486C58.057 166.584 57.8855 166.682 57.763 166.829C57.5671 167.025 57.4936 167.123 57.1751 167.197C56.3423 167.442 55.7054 168.177 54.995 168.642C54.2112 169.157 53.3539 169.597 52.472 169.916C51.9984 170.095 51.5167 170.242 51.0268 170.357C50.6593 170.43 50.2184 170.455 49.9735 170.798C49.7775 171.092 49.851 171.484 50.0959 171.729C50.1939 171.851 50.3409 171.924 50.4879 171.998C50.5859 172.022 50.6838 172.022 50.7573 172.047C50.8227 172.047 50.888 172.047 50.9533 172.047H50.9778C50.9288 172.316 51.1248 172.61 51.4432 172.635C52.521 172.684 53.5743 172.635 54.6276 172.463C54.5541 172.635 54.4806 172.806 54.4806 172.904C54.4561 173.223 54.6031 173.492 54.8971 173.639C55.289 173.86 55.8524 173.737 56.2933 173.737C56.9302 173.737 57.5426 173.713 58.155 173.664C59.2818 173.59 60.3351 173.321 61.4129 173.125C62.6866 172.904 63.6665 173.541 64.8667 173.762C65.969 173.982 67.1203 173.933 68.2471 173.933C69.4719 173.958 70.7212 173.958 71.9704 173.909C73.1952 173.884 74.42 173.835 75.6448 173.713C76.6246 173.615 77.5799 173.468 78.4373 172.978C79.1231 172.586 79.6865 172.071 80.2009 171.459C80.7398 170.798 81.1807 170.063 81.5727 169.303C81.7686 168.912 81.9564 168.528 82.1361 168.152C82.2586 167.932 82.1851 167.638 81.9646 167.491Z" fill="#FCB088"/>
<path d="M61.6819 170.577C60.5796 170.259 59.5018 170.553 58.424 170.871C57.2972 171.198 56.1623 171.492 55.0192 171.753C54.4068 171.875 54.5782 172.831 55.1906 172.708C56.2521 172.48 57.3136 172.21 58.375 171.9C59.3304 171.631 60.3837 171.214 61.3635 171.508C61.9759 171.68 62.2943 170.749 61.6819 170.577Z" fill="#E0875E"/>
<path d="M63.3227 171.043C63.3064 170.994 63.2901 170.953 63.2737 170.92C63.2411 170.839 63.1839 170.773 63.1023 170.724C63.0859 170.708 63.0696 170.7 63.0533 170.7C63.0043 170.651 62.9471 170.626 62.8818 170.626C62.8328 170.61 62.7757 170.61 62.7103 170.626C62.645 170.626 62.5879 170.651 62.5389 170.7C62.4735 170.732 62.4246 170.773 62.3919 170.822C62.3756 170.871 62.3511 170.912 62.3184 170.945C62.3021 171.026 62.3021 171.108 62.3184 171.19C62.3347 171.239 62.3429 171.279 62.3429 171.312C62.3919 171.394 62.449 171.459 62.5144 171.508C62.5307 171.524 62.547 171.533 62.5634 171.533C62.6123 171.565 62.6695 171.59 62.7348 171.606C62.8001 171.622 62.8655 171.622 62.9308 171.606C62.9961 171.59 63.0533 171.565 63.1023 171.533C63.1676 171.5 63.2166 171.451 63.2492 171.386C63.2656 171.353 63.2819 171.32 63.2982 171.288C63.3309 171.206 63.339 171.124 63.3227 171.043Z" fill="#E0875E"/>
<path d="M60.5798 168.226C59.7714 168.226 58.9386 168.201 58.1302 168.324C57.3219 168.422 56.587 168.838 55.8276 169.156C54.2926 169.793 52.7249 170.373 51.1245 170.896C50.5366 171.092 50.8061 172.047 51.4185 171.851C52.9535 171.328 54.4641 170.765 55.9501 170.161C56.6605 169.867 57.3709 169.45 58.1302 169.303C58.9386 169.156 59.7959 169.205 60.6288 169.205C61.2657 169.23 61.2167 168.25 60.5798 168.226Z" fill="#E0875E"/>
<path d="M60.8245 166.511C59.6732 166.462 58.5464 166.584 57.4196 166.829C57.1747 166.878 57.0522 167.221 57.1257 167.442C57.2237 167.736 57.4931 167.809 57.7381 167.736C58.7914 167.515 59.8447 167.442 60.9225 167.466C61.1674 167.491 61.3879 167.197 61.3634 166.952C61.3389 166.658 61.0939 166.511 60.8245 166.511Z" fill="#E0875E"/>
<path d="M78.7553 167.858C76.9916 167.025 75.1545 166.193 73.6847 164.87C73.5541 165.033 73.4235 165.188 73.2928 165.335C73.1703 165.458 73.0479 165.629 72.9009 165.776C73.8807 166.903 75.13 167.76 76.3792 168.593C77.702 169.491 78.9758 170.447 80.2005 171.459C80.7394 170.798 81.1804 170.063 81.5723 169.303C80.6904 168.74 79.7106 168.324 78.7553 167.858Z" fill="#E0875E"/>
<path d="M99.2092 152.034C99.1602 150.883 99.0132 149.732 98.8172 148.58C98.4008 146.253 97.7149 143.975 97.0536 141.722C96.3922 139.443 95.7308 137.141 95.3634 134.814C95.0449 132.781 94.7755 130.723 92.6689 129.792C91.7135 129.376 90.6847 129.204 89.7049 128.959C88.5291 128.665 87.3615 128.339 86.202 127.98C83.8995 127.294 81.6459 126.485 79.3923 125.677C79.1473 125.595 78.9024 125.514 78.6574 125.432C78.1838 124.697 77.7021 123.979 77.2122 123.276C76.265 121.921 75.2771 120.598 74.2482 119.308C73.2929 118.108 72.3131 116.834 71.0638 115.928C68.4183 114.017 64.8175 114.923 61.9515 115.83C58.8406 116.81 55.8766 118.328 53.1576 120.141C50.5366 121.856 48.087 123.84 45.6865 125.848C43.8901 124.852 42.1673 123.75 40.5179 122.542C40.3464 122.419 40.0525 122.468 39.9055 122.615C38.6318 124.101 37.358 125.587 36.0842 127.073C36.0352 127.098 36.0107 127.147 35.9862 127.196C35.8638 127.392 35.8148 127.637 36.0107 127.857C39.0482 131.14 42.0856 134.43 45.1231 137.729C45.7355 138.366 46.3234 139.052 47.1072 139.492C47.5481 139.737 48.0135 139.884 48.381 140.227C48.7239 140.546 48.9934 140.913 49.3118 141.256C50.5366 142.603 52.3982 143.265 54.0884 143.853C55.6072 144.392 57.3218 144.588 58.7426 143.902L61.682 145.298C63.2498 146.057 64.793 146.866 66.4587 147.356C68.1244 147.845 69.8635 147.919 71.5782 148.017C73.2603 148.131 74.9423 148.237 76.6243 148.335C76.1834 149.854 75.8894 151.52 76.5753 152.99C76.9672 153.773 77.7266 154.214 78.1675 154.949C78.4615 155.415 78.29 155.806 78.045 156.247C77.7266 156.811 77.3837 157.35 77.0652 157.913C75.8894 159.897 74.6402 161.881 73.5379 163.914C73.048 164.796 73.5134 165.311 74.2482 165.825C75.0076 166.364 75.8159 166.78 76.6488 167.197C78.5594 168.103 80.5926 168.887 82.1603 170.332C82.4052 170.553 82.6992 170.479 82.8707 170.308C82.9033 170.292 82.9441 170.275 82.9931 170.259C85.7121 168.471 88.3087 166.487 90.7337 164.306C92.5709 164.429 93.8936 162.886 94.8979 161.489C95.6655 160.428 96.433 159.367 97.2005 158.305C97.8619 157.399 98.6213 156.517 98.9397 155.415C99.2581 154.337 99.2582 153.161 99.2092 152.034Z" fill="white"/>
<path d="M76.6243 123.693C74.5421 123.13 72.4355 122.542 70.2799 122.272C68.0508 122.003 65.7483 122.444 63.5192 122.689C62.8823 122.738 62.8823 123.717 63.5192 123.668C65.6503 123.424 67.9039 122.983 70.0595 123.228C72.1906 123.472 74.3217 124.085 76.3793 124.648C76.9917 124.82 77.2367 123.864 76.6243 123.693Z" fill="#EDF3F4"/>
<path d="M58.4978 142.456C57.4935 140.791 56.5136 139.101 55.4848 137.435C54.603 136.014 53.5987 134.691 52.2514 133.687C51.7615 133.295 51.2716 134.152 51.7615 134.52C53.0353 135.475 53.9661 136.822 54.7745 138.17C55.7543 139.762 56.6851 141.354 57.6404 142.946C57.9589 143.485 58.8162 142.995 58.4978 142.456Z" fill="#EDF3F4"/>
<path d="M51.2962 132.536C51.2799 132.503 51.2635 132.462 51.2472 132.413C51.1982 132.348 51.141 132.291 51.0757 132.242C50.9124 132.144 50.7573 132.038 50.6103 131.923C50.5613 131.891 50.5042 131.874 50.4388 131.874C50.3735 131.858 50.3082 131.858 50.2429 131.874C50.1776 131.891 50.1204 131.923 50.0714 131.972C50.0224 132.005 49.9816 132.054 49.9489 132.119C49.9326 132.152 49.9163 132.185 49.8999 132.217C49.8836 132.315 49.8836 132.405 49.8999 132.487C49.9163 132.519 49.9326 132.552 49.9489 132.585C49.9979 132.666 50.0551 132.732 50.1204 132.781C50.2837 132.879 50.4388 132.985 50.5858 133.099C50.6348 133.132 50.692 133.148 50.7573 133.148C50.8226 133.164 50.8879 133.164 50.9532 133.148C51.0186 133.132 51.0757 133.099 51.1247 133.05C51.1737 133.017 51.2145 132.968 51.2472 132.903C51.2635 132.87 51.2799 132.83 51.2962 132.781C51.3125 132.699 51.3125 132.617 51.2962 132.536Z" fill="#EDF3F4"/>
<path d="M89.5332 134.618C89.4352 134.005 88.4554 134.005 88.5533 134.618C88.9208 137.557 86.4222 139.59 84.3646 141.232C81.9314 143.159 79.5063 145.094 77.0894 147.037C76.5995 147.429 77.2854 148.115 77.7753 147.723C80.3718 145.665 82.9684 143.608 85.5649 141.526C87.6715 139.811 89.9006 137.557 89.5332 134.618Z" fill="#EDF3F4"/>
<path d="M86.4713 135.426C86.3978 135.304 86.2754 135.206 86.1529 135.181C86.0304 135.157 85.9079 135.157 85.7854 135.23C85.6875 135.304 85.5895 135.402 85.565 135.524C85.516 135.867 85.467 136.202 85.418 136.529C85.4017 136.594 85.4017 136.659 85.418 136.724C85.418 136.79 85.4343 136.847 85.467 136.896C85.5405 137.018 85.6385 137.116 85.7609 137.141C85.8834 137.165 86.0304 137.165 86.1284 137.092C86.2509 137.018 86.3488 136.92 86.3733 136.773L86.5203 135.794C86.5366 135.728 86.5366 135.663 86.5203 135.598C86.5203 135.532 86.504 135.475 86.4713 135.426Z" fill="#EDF3F4"/>
<path fill-rule="evenodd" clip-rule="evenodd" d="M91.6644 163.082C91.2562 163.408 90.7908 163.629 90.2682 163.743C89.9252 163.841 89.5823 163.865 89.2149 163.89C89.2639 163.939 89.3129 163.98 89.3619 164.012C89.8518 164.453 89.1414 165.139 88.676 164.698C85.663 161.955 81.4743 160.779 78.7798 157.644C78.3634 157.154 79.0492 156.468 79.4657 156.933C80.3475 157.962 81.3763 158.77 82.4786 159.505C82.2582 158.232 82.5031 156.909 83.1155 155.757C83.4094 155.219 84.2668 155.708 83.9728 156.247C83.4339 157.203 83.287 158.281 83.4584 159.334C83.5564 159.187 83.6544 159.04 83.7524 158.893C83.8993 158.672 84.1688 158.55 84.4138 158.697C84.6342 158.819 84.7567 159.138 84.6097 159.358L83.8993 160.387C84.4056 160.681 84.9118 160.975 85.4181 161.269C85.4181 161.269 85.4181 161.261 85.4181 161.244C86.6673 159.015 88.1126 156.713 90.4641 155.513C90.6846 155.415 91.0275 155.464 91.1255 155.708C91.4685 156.468 91.1745 157.203 90.8561 157.913C90.5866 158.525 90.2437 159.113 89.8273 159.652C89.0434 160.681 88.0391 161.538 86.9123 162.175C87.2389 162.388 87.5573 162.6 87.8676 162.812C87.9656 162.69 88.0881 162.567 88.1861 162.445C88.333 162.281 88.4882 162.118 88.6515 161.955C88.9944 161.612 89.3863 161.293 89.7783 161C89.9987 160.828 90.3172 160.975 90.4397 161.195C90.5866 161.416 90.4641 161.71 90.2682 161.857C90.1702 161.93 90.1212 161.955 90.0232 162.053C89.9252 162.118 89.8354 162.192 89.7538 162.273C89.5741 162.437 89.3945 162.6 89.2149 162.763C89.1822 162.812 89.1414 162.861 89.0924 162.91C89.1904 162.91 89.2965 162.91 89.4108 162.91C89.6068 162.886 89.7293 162.861 89.9742 162.812C90.0722 162.796 90.162 162.771 90.2437 162.739C90.2927 162.722 90.3417 162.706 90.3907 162.69C90.4233 162.69 90.456 162.682 90.4886 162.665C90.4396 162.682 90.4478 162.682 90.5131 162.665C90.5948 162.616 90.6764 162.567 90.7581 162.518C90.8071 162.502 90.8561 162.477 90.9051 162.445C90.9296 162.42 91.052 162.322 90.9785 162.396C91.199 162.224 91.444 162.2 91.6644 162.396C91.8604 162.543 91.8604 162.91 91.6644 163.082ZM86.5449 161.244C87.4512 160.73 88.2351 160.069 88.8964 159.26C89.2639 158.795 89.5823 158.305 89.8273 157.815C89.9579 157.57 90.0722 157.317 90.1702 157.056C90.2029 156.974 90.2274 156.884 90.2437 156.786C88.627 157.864 87.5247 159.554 86.5449 161.244Z" fill="#EDF3F4"/>
<path d="M89.9006 138.856C88.3819 141.134 86.9367 143.608 84.9035 145.494C83.9727 146.351 82.8459 147.111 81.6211 147.503C80.3964 147.894 78.8286 148.066 77.7508 147.233C77.2609 146.841 76.5506 147.527 77.0405 147.919C79.4165 149.756 82.7479 148.458 84.83 146.841C87.3531 144.882 89.0188 141.942 90.758 139.346C91.1254 138.807 90.268 138.317 89.9006 138.856Z" fill="#EDF3F4"/>
<path d="M88.5294 163.327C88.3334 163.131 88.0395 163.155 87.8435 163.327C85.6389 165.123 83.4343 166.919 81.2297 168.716C81.0338 168.887 81.0583 169.23 81.2297 169.401C81.4257 169.597 81.7196 169.573 81.9156 169.401C84.1202 167.605 86.3248 165.809 88.5294 164.012C88.7499 163.841 88.7009 163.498 88.5294 163.327Z" fill="#EDF3F4"/>
<path d="M81.9393 164.404C81.4739 163.939 80.739 163.792 80.1511 164.086C79.9062 164.208 79.8082 164.551 79.9552 164.772C80.1021 164.992 80.3716 165.066 80.6166 164.943C80.6329 164.943 80.641 164.943 80.641 164.943C80.6574 164.943 80.6655 164.943 80.6655 164.943C80.6819 164.927 80.7064 164.919 80.739 164.919C80.7717 164.919 80.7962 164.919 80.8125 164.919C80.8288 164.919 80.8452 164.919 80.8615 164.919C80.8778 164.919 80.886 164.919 80.886 164.919C80.9105 164.919 80.9595 164.943 80.984 164.943C81.0003 164.943 81.0248 164.951 81.0575 164.968C81.082 164.968 81.1065 164.992 81.131 165.017C81.1473 165.017 81.1636 165.025 81.1799 165.041C81.2126 165.058 81.2453 165.082 81.2779 165.115C81.2779 165.131 81.2861 165.147 81.3024 165.164C81.3188 165.196 81.3351 165.229 81.3514 165.262C81.3677 165.278 81.3841 165.303 81.4004 165.335C81.4004 165.335 81.4004 165.36 81.4249 165.36C81.4249 165.376 81.4249 165.384 81.4249 165.384C81.4249 165.417 81.4331 165.441 81.4494 165.458C81.4494 165.49 81.4576 165.531 81.4739 165.58C81.4739 165.597 81.4739 165.605 81.4739 165.605C81.4739 165.621 81.4739 165.629 81.4739 165.629C81.4739 165.694 81.4739 165.752 81.4739 165.801C81.4739 165.85 81.4739 165.89 81.4739 165.923C81.4739 165.939 81.4739 165.956 81.4739 165.972C81.4576 166.021 81.4412 166.07 81.4249 166.119C81.4249 166.135 81.4249 166.152 81.4249 166.168C81.4086 166.184 81.4004 166.201 81.4004 166.217C81.3841 166.217 81.3759 166.225 81.3759 166.242C81.3759 166.242 81.3514 166.266 81.3269 166.291C81.3106 166.307 81.2943 166.315 81.2779 166.315C81.2534 166.34 81.2289 166.364 81.2044 166.364C81.1881 166.38 81.1636 166.389 81.131 166.389C81.0983 166.389 81.0656 166.397 81.033 166.413C81.033 166.413 81.0248 166.413 81.0085 166.413C81.0085 166.413 81.0003 166.413 80.984 166.413C80.935 166.413 80.8942 166.413 80.8615 166.413C80.8288 166.413 80.7962 166.413 80.7635 166.413C80.7472 166.413 80.7227 166.413 80.69 166.413C80.6574 166.397 80.6247 166.38 80.5921 166.364C80.5594 166.364 80.5267 166.356 80.4941 166.34H80.4696C80.4451 166.34 80.4206 166.315 80.4206 166.315C80.4043 166.299 80.3798 166.291 80.3471 166.291C80.2981 166.258 80.2491 166.225 80.2001 166.193C80.1838 166.176 80.1675 166.16 80.1511 166.144C80.1021 166.111 80.0613 166.078 80.0287 166.046C79.996 166.029 79.9715 166.005 79.9552 165.972L79.9307 165.948C79.9307 165.948 79.9307 165.939 79.9307 165.923C79.9143 165.907 79.8898 165.882 79.8572 165.85C79.8572 165.833 79.8572 165.825 79.8572 165.825V165.776C79.8572 165.727 79.8572 165.678 79.8327 165.752C79.8817 165.507 79.7592 165.213 79.4898 165.164C79.2448 165.09 78.9509 165.237 78.9019 165.507C78.7549 166.193 79.2448 166.78 79.8082 167.099C80.2736 167.368 80.8615 167.491 81.4004 167.344C81.6454 167.246 81.9148 167.123 82.0863 166.903C82.3067 166.658 82.4047 166.34 82.4537 165.997C82.5027 165.433 82.3557 164.821 81.9393 164.404Z" fill="#EDF3F4"/>
<path d="M61.2654 115.781C57.4931 116.663 54.0392 118.598 51.0998 121.096C49.581 122.346 48.1848 123.742 46.911 125.236C45.6373 126.73 44.339 128.323 43.8246 130.233C43.2367 132.462 43.9471 134.789 45.0739 136.724C45.3923 137.263 46.2007 136.724 45.8822 136.186C44.9024 134.495 44.2655 132.487 44.7554 130.527C45.2208 128.69 46.5681 127.147 47.7684 125.75C50.0954 123.056 52.8144 120.655 55.9254 118.916C57.689 117.912 59.5997 117.177 61.5593 116.712C62.1717 116.565 61.8533 115.634 61.2654 115.781Z" fill="#EDF3F4"/>
<path d="M70.6227 116.663C69.7899 115.781 68.6141 115.438 67.4628 115.217C66.238 114.972 64.9643 114.825 63.764 115.242C63.1761 115.462 63.4945 116.369 64.1069 116.173C65.1357 115.805 66.238 115.977 67.2913 116.173C68.2712 116.369 69.2755 116.663 70.0103 117.397C70.1818 117.593 70.5492 117.52 70.6962 117.348C70.8677 117.128 70.8187 116.834 70.6227 116.663Z" fill="#EDF3F4"/>
<path d="M45.5636 126.902C44.4123 126.069 43.31 125.065 42.3302 123.938C42.1587 123.742 41.8158 123.766 41.6443 123.938C41.4483 124.134 41.4728 124.428 41.6443 124.624C42.6731 125.824 43.8244 126.853 45.0982 127.759C45.3186 127.931 45.6371 127.784 45.7595 127.588C45.9065 127.318 45.784 127.073 45.5636 126.902Z" fill="#EDF3F4"/>
<path d="M41.2527 122.958L41.2037 122.86C41.171 122.811 41.1302 122.77 41.0812 122.738C41.0322 122.689 40.9751 122.656 40.9098 122.64C40.8444 122.623 40.7791 122.623 40.7138 122.64C40.6485 122.64 40.5913 122.656 40.5423 122.689C40.5097 122.721 40.477 122.746 40.4443 122.762C40.379 122.827 40.33 122.901 40.2974 122.983C40.2974 123.032 40.2974 123.072 40.2974 123.105C40.2974 123.203 40.3137 123.285 40.3464 123.35L40.3953 123.448C40.428 123.513 40.4688 123.562 40.5178 123.595C40.5668 123.628 40.624 123.652 40.6893 123.668C40.7546 123.701 40.8199 123.709 40.8853 123.693C40.9506 123.693 41.0077 123.668 41.0567 123.619C41.0894 123.603 41.1302 123.579 41.1792 123.546C41.2282 123.481 41.269 123.407 41.3017 123.325C41.3017 123.293 41.3017 123.252 41.3017 123.203C41.3017 123.121 41.2853 123.04 41.2527 122.958Z" fill="#EDF3F4"/>
<path d="M129.093 164.723C127.256 165.997 126.129 162.298 125.664 161.195C125.223 160.191 124.782 159.187 124.366 158.182C123.9 157.056 123.753 156.051 123.949 154.802C124.562 150.809 125.37 146.67 124.317 142.652C124.023 141.55 123.557 140.521 123.214 139.443C122.823 138.243 122.676 137.018 122.774 135.769C122.774 135.598 122.725 135.475 122.627 135.402C122.61 135.369 122.594 135.336 122.578 135.304C121.892 134.226 122.406 132.977 122.97 131.948C123.557 130.894 124.17 129.89 124.39 128.641C124.586 127.465 124.537 126.24 124.488 125.04C124.439 123.668 124.562 122.346 124.611 120.998C124.66 119.725 124.439 118.524 123.9 117.348C123.386 116.222 122.676 115.168 122.014 114.14C120.642 112.082 119.124 110.122 117.483 108.261C115.964 106.57 114.298 104.611 112.191 103.655C109.889 102.627 107.537 103.386 105.48 104.66C103.398 105.934 101.634 107.648 99.4783 108.824C97.2247 110.073 94.7262 110.784 92.3011 111.592C86.4957 113.527 80.7638 115.756 75.1543 118.206C74.5909 118.475 75.0808 119.308 75.6442 119.063C80.5188 116.932 85.4914 114.972 90.5375 113.233C92.889 112.4 95.3141 111.714 97.6412 110.759C99.8947 109.853 101.781 108.53 103.716 107.085C105.553 105.689 107.782 103.949 110.207 104.121C112.608 104.292 114.47 106.448 115.988 108.089C117.654 109.853 119.173 111.739 120.544 113.723C121.941 115.732 123.655 117.985 123.655 120.533C123.655 122.003 123.459 123.448 123.508 124.918C123.557 126.289 123.655 127.71 123.288 129.033C122.7 131.213 120.202 133.418 121.72 135.794C121.737 135.826 121.761 135.851 121.794 135.867C121.72 136.969 121.818 138.072 122.088 139.149C122.382 140.252 122.872 141.281 123.214 142.358C123.9 144.587 123.949 146.964 123.753 149.266C123.631 150.466 123.459 151.667 123.263 152.867C123.092 153.994 122.774 155.17 122.847 156.321C122.921 157.399 123.386 158.354 123.802 159.334C124.276 160.444 124.75 161.563 125.223 162.69C125.664 163.669 126.056 164.772 126.962 165.433C127.722 165.972 128.775 166.119 129.583 165.58C130.098 165.237 129.632 164.38 129.093 164.723Z" fill="#EDF3F4"/>
<path d="M156.014 165.188C155.181 164.992 154.324 164.919 153.467 164.968C152.413 165.017 151.36 165.213 150.307 165.09C149.523 164.968 148.298 164.845 147.759 164.208C147.22 163.547 146.975 162.592 146.559 161.857C146.118 161.073 145.579 160.216 144.844 159.677C143.962 159.04 142.958 159.162 141.954 159.358C141.341 159.481 141.586 160.436 142.199 160.314C142.836 160.191 143.546 160.044 144.158 160.387C144.575 160.632 144.893 161.073 145.163 161.465C145.751 162.298 146.118 163.204 146.559 164.135C146.975 164.968 147.563 165.433 148.47 165.678C149.498 165.972 150.527 166.168 151.605 166.095C152.707 166.046 153.785 165.85 154.887 165.972C155.941 166.095 156.945 166.437 157.827 167.001C159.493 168.054 160.57 170.063 160.252 172.047C160.154 172.684 161.085 172.929 161.207 172.316C161.746 168.887 159.223 165.948 156.014 165.188Z" fill="#EDF3F4"/>
<path fill-rule="evenodd" clip-rule="evenodd" d="M148.837 153.283C143.987 160.044 136.173 163.278 128.628 166.046C124.905 168.128 120.863 169.548 116.772 170.651C114.641 171.214 112.51 171.729 110.379 172.218C108.517 172.635 106.435 173.198 104.671 172.12C104.426 171.973 104.304 171.582 104.573 171.361C106.092 170.063 108.37 169.891 110.281 169.524C112.412 169.108 114.568 168.716 116.723 168.275C121.034 167.417 125.346 166.34 129.363 164.502C129.559 164.429 129.73 164.453 129.853 164.551C136.687 162.004 143.644 158.893 147.979 152.794C148.347 152.304 149.204 152.769 148.837 153.283ZM120.985 168.348C119.875 168.609 118.748 168.863 117.605 169.108C115.474 169.548 113.318 169.94 111.187 170.357C110.158 170.536 109.138 170.732 108.125 170.945C107.39 171.116 106.606 171.263 105.921 171.606C107.537 172.096 109.423 171.435 110.967 171.067C112.975 170.602 114.959 170.136 116.944 169.573C118.315 169.197 119.663 168.789 120.985 168.348Z" fill="#EDF3F4"/>
<path d="M149.792 141.428C149.327 140.987 148.641 141.673 149.106 142.114C150.233 143.142 150.503 145.077 150.478 146.547C150.454 148.139 149.964 149.707 149.082 151.054C148.714 151.569 149.572 152.059 149.915 151.52C150.944 150.001 151.458 148.213 151.458 146.376C151.458 144.71 151.066 142.603 149.792 141.428Z" fill="#EDF3F4"/>
<path fill-rule="evenodd" clip-rule="evenodd" d="M145.677 150.613C145.114 152.573 143.717 154.19 142.37 155.684C141.88 156.223 141.366 156.786 140.851 157.301C140.721 157.546 140.59 157.791 140.459 158.036C140.337 158.28 140.092 158.305 139.872 158.231C139.112 158.917 138.279 159.554 137.349 160.069C136.369 160.632 135.315 161.097 134.262 161.563C133.209 162.004 132.131 162.396 130.98 162.445C130.269 162.469 129.167 162.322 129.534 161.318C129.853 160.412 130.759 159.53 131.445 158.868C131.911 158.427 132.596 159.113 132.155 159.554C131.715 159.971 131.298 160.412 130.955 160.902C130.808 161.073 130.71 161.293 130.588 161.465C130.718 161.481 130.849 161.481 130.98 161.465C132.253 161.416 133.454 160.853 134.605 160.338C135.658 159.848 136.736 159.358 137.716 158.721C138.573 158.158 139.333 157.472 140.043 156.737C142.958 151.103 144.134 144.685 143.399 138.39C143.325 137.753 144.33 137.753 144.379 138.39C144.648 140.668 144.648 142.946 144.428 145.224C145.897 146.547 146.216 148.752 145.677 150.613ZM144.281 146.547C143.913 149.266 143.203 151.936 142.15 154.508C143.031 153.504 143.864 152.426 144.403 151.226C145.089 149.756 145.187 147.894 144.281 146.547Z" fill="#EDF3F4"/>
<path d="M163.216 135.328C161.06 139.37 158.39 143.118 155.255 146.449C154.814 146.914 155.524 147.6 155.941 147.159C159.15 143.755 161.869 139.933 164.049 135.818C164.343 135.255 163.51 134.765 163.216 135.328Z" fill="#EDF3F4"/>
<path d="M154.79 147.796C154.773 147.747 154.741 147.698 154.692 147.649C154.594 147.551 154.471 147.502 154.349 147.502C154.226 147.502 154.104 147.551 154.006 147.649C153.81 147.829 153.622 148.017 153.442 148.213C153.393 148.262 153.361 148.311 153.344 148.36C153.312 148.425 153.295 148.49 153.295 148.556C153.295 148.621 153.312 148.678 153.344 148.727C153.361 148.793 153.393 148.85 153.442 148.899C153.54 148.997 153.663 149.046 153.785 149.046C153.908 149.046 154.03 148.997 154.128 148.899C154.324 148.719 154.512 148.531 154.692 148.335C154.741 148.286 154.773 148.229 154.79 148.164C154.822 148.115 154.839 148.058 154.839 147.992C154.839 147.927 154.822 147.862 154.79 147.796Z" fill="#EDF3F4"/>
<path d="M171.422 143.167C171.201 141.746 170.736 140.423 170.271 139.076C170.075 138.488 169.119 138.733 169.34 139.321C170.099 141.55 170.736 143.755 170.565 146.155C170.393 148.531 169.609 150.858 168.825 153.112C167.282 157.57 165.837 162.077 164.147 166.486C163.412 168.422 162.408 170.357 160.546 171.386C159.982 171.704 160.472 172.561 161.036 172.243C162.677 171.312 163.779 169.744 164.539 168.054C165.494 165.972 166.155 163.743 166.89 161.587C167.739 159.154 168.597 156.713 169.462 154.263C170.271 151.912 171.128 149.536 171.446 147.061C171.618 145.763 171.642 144.465 171.422 143.167Z" fill="#EDF3F4"/>
<path d="M127.256 132.266C123.141 138.488 116.625 143.02 109.375 144.71C107.464 145.151 104.892 145.739 103.251 144.294C102.785 143.877 102.099 144.563 102.565 144.98C104.035 146.278 106.019 146.302 107.88 146.008C109.889 145.69 111.849 145.126 113.735 144.367C117.458 142.897 120.863 140.742 123.753 137.974C125.395 136.406 126.864 134.642 128.114 132.756C128.457 132.242 127.624 131.752 127.256 132.266Z" fill="#EDF3F4"/>
<path d="M133.92 106.742C133.675 106.669 133.356 106.815 133.332 107.085L132.817 110.269C132.768 110.514 132.891 110.784 133.16 110.857C133.405 110.931 133.724 110.784 133.773 110.514C133.936 109.453 134.099 108.391 134.262 107.33C134.311 107.085 134.189 106.815 133.92 106.742Z" fill="#EDF3F4"/>
<path d="M132.18 112.082C131.151 117.153 129.437 122.052 127.036 126.632C125.836 128.91 124.488 131.115 122.97 133.197C122.21 134.25 121.427 135.328 120.447 136.186C119.491 136.994 118.34 137.533 117.189 137.998C114.298 139.199 111.31 140.325 108.199 140.791C107.587 140.889 107.832 141.844 108.444 141.746C111.334 141.305 114.078 140.252 116.797 139.199C117.973 138.758 119.148 138.268 120.202 137.557C121.304 136.822 122.186 135.867 122.994 134.814C126.179 130.65 128.726 125.995 130.612 121.096C131.69 118.255 132.523 115.315 133.111 112.351C133.233 111.715 132.303 111.47 132.18 112.082Z" fill="#EDF3F4"/>
<path d="M126.105 124.207C123.925 127.392 120.814 129.89 117.238 131.286C116.65 131.531 116.895 132.462 117.483 132.242C121.329 130.723 124.636 128.102 126.963 124.697C127.306 124.183 126.473 123.693 126.105 124.207Z" fill="#EDF3F4"/>
<path d="M122.015 104.978C121.868 108.359 121.647 112.204 119.051 114.703C116.846 116.834 113.539 117.226 110.624 117.495C109.987 117.569 109.987 118.549 110.624 118.475C113.809 118.157 117.336 117.74 119.761 115.389C122.529 112.694 122.823 108.628 122.994 104.978C123.019 104.341 122.039 104.341 122.015 104.978Z" fill="#EDF3F4"/>
<path d="M99.4543 128.273C99.2093 128.151 98.9399 128.224 98.7929 128.445C98.5316 128.853 98.2622 129.245 97.9845 129.621C97.9682 129.637 97.9519 129.662 97.9355 129.694C97.9029 129.743 97.8702 129.784 97.8376 129.817C97.7559 129.915 97.6824 130.013 97.6171 130.111C97.4538 130.29 97.2905 130.47 97.1272 130.65C96.9557 130.846 96.9312 131.164 97.1272 131.335C97.3232 131.507 97.6416 131.556 97.8376 131.335C98.4989 130.601 99.1113 129.792 99.6502 128.935C99.7727 128.714 99.6747 128.371 99.4543 128.273Z" fill="#EDF3F4"/>
<path fill-rule="evenodd" clip-rule="evenodd" d="M110.746 106.032C110.183 109.706 108.223 113.16 106.558 116.442C104.761 120.002 102.851 123.505 100.826 126.951C100.752 127.073 100.679 127.147 100.556 127.171C100.262 127.539 99.5764 127.098 99.7968 126.559C101.463 122.444 103.226 118.353 104.696 114.164C105.308 112.376 105.872 110.539 106.313 108.677C106.525 107.763 106.705 106.832 106.852 105.885C106.999 105.027 107.048 104.17 107.268 103.313C107.586 102.137 108.689 100.226 110.109 101.377C110.722 101.867 110.82 102.651 110.869 103.386C110.942 104.268 110.893 105.15 110.746 106.032ZM109.889 103.386C109.864 103.019 109.864 102.504 109.595 102.235C109.179 101.769 108.836 102.21 108.615 102.602C108.174 103.288 108.076 104.145 107.978 104.954C107.856 105.713 107.758 106.497 107.611 107.256C106.754 111.739 105.161 116.05 103.447 120.288C104.263 118.786 105.055 117.275 105.823 115.756C107.366 112.67 109.154 109.51 109.742 106.105C109.913 105.199 109.962 104.292 109.889 103.386Z" fill="#EDF3F4"/>
<path d="M98.4497 95.18C97.4698 102.357 95.8041 109.436 93.5016 116.295C93.2811 116.883 94.2364 117.128 94.4324 116.54C96.7595 109.681 98.4007 102.602 99.405 95.425C99.503 94.8126 98.5476 94.5677 98.4497 95.18Z" fill="#EDF3F4"/>
<path d="M93.967 117.74C93.8935 117.642 93.771 117.544 93.6485 117.52C93.5261 117.495 93.4036 117.495 93.2811 117.569C93.1831 117.618 93.0851 117.74 93.0606 117.863C92.9953 118.206 92.9218 118.557 92.8402 118.916C92.8157 119.039 92.8402 119.161 92.8892 119.284C92.9627 119.382 93.0851 119.48 93.2076 119.504C93.3301 119.553 93.4526 119.529 93.575 119.48C93.673 119.406 93.771 119.284 93.7955 119.161L93.9915 118.108C94.016 117.985 94.016 117.863 93.967 117.74Z" fill="#EDF3F4"/>
<path d="M94.2122 103.19C93.0609 107.844 91.2972 112.302 88.9701 116.491C88.6517 117.03 89.509 117.52 89.8275 116.957C92.2035 112.719 93.9917 108.163 95.1675 103.435C95.3145 102.823 94.3591 102.578 94.2122 103.19Z" fill="#EDF3F4"/>
<path d="M123.778 94.984C123.435 94.4451 122.578 94.935 122.921 95.4739C124.048 97.3601 124.66 99.5157 124.709 101.72C124.733 102.357 125.713 102.357 125.689 101.72C125.64 99.3442 124.978 97.0172 123.778 94.984Z" fill="#EDF3F4"/>
<path d="M122.431 101.965C122.284 101.639 122.178 101.304 122.113 100.961C122.088 100.838 121.99 100.716 121.892 100.667C121.77 100.594 121.623 100.569 121.525 100.618C121.255 100.692 121.108 100.936 121.157 101.206C121.255 101.647 121.402 102.039 121.574 102.455C121.623 102.553 121.77 102.651 121.868 102.676C121.99 102.725 122.137 102.7 122.235 102.627C122.333 102.578 122.431 102.455 122.456 102.333C122.472 102.3 122.48 102.259 122.48 102.21C122.48 102.129 122.464 102.047 122.431 101.965Z" fill="#EDF3F4"/>
<path d="M107.195 60.6903C107.758 65.9569 104.892 71.4438 100.214 73.9424C95.5349 76.4164 89.3375 75.7061 85.3937 72.1787C81.4744 68.6269 80.1272 62.454 82.3073 57.6284C84.4874 52.8028 90.0479 49.7408 95.2899 50.5492C93.6487 52.6558 93.0853 56.3546 94.2121 58.7797C95.3144 61.2292 97.8619 62.9684 100.532 63.1154C103.226 63.2624 105.823 62.9929 107.195 60.6903Z" fill="white"/>
<path d="M53.1086 100.398C51.8349 100.398 51.8349 102.357 53.1086 102.357C54.3579 102.357 54.3579 100.398 53.1086 100.398Z" fill="white"/>
<path d="M50.1938 61.9396C48.9445 61.9396 48.9445 63.8992 50.1938 63.8992C51.4676 63.8992 51.4676 61.9396 50.1938 61.9396Z" fill="white"/>
<path d="M129.78 68.4554C128.506 68.4554 128.506 70.4151 129.78 70.4151C131.054 70.4151 131.054 68.4554 129.78 68.4554Z" fill="white"/>
<path d="M152.512 117.324C151.262 117.324 151.262 119.284 152.512 119.284C153.785 119.284 153.785 117.324 152.512 117.324Z" fill="white"/>
<path d="M20.4558 126.755C19.182 126.755 19.182 128.714 20.4558 128.714C21.7051 128.714 21.7051 126.755 20.4558 126.755Z" fill="white"/>
<path d="M110.673 46.7034C109.399 46.7034 109.399 48.663 110.673 48.663C111.947 48.663 111.947 46.7034 110.673 46.7034Z" fill="white"/>
<defs>
<linearGradient id="paint0_linear_131_2661" x1="15.0646" y1="171.68" x2="166.783" y2="15.6411" gradientUnits="userSpaceOnUse">
<stop stop-color="#3546D7"/>
<stop offset="1" stop-color="#C38BF5"/>
</linearGradient>
</defs>
</svg>
