<svg width="291" height="164" viewBox="0 0 291 164" fill="none" xmlns="http://www.w3.org/2000/svg">
<g style="mix-blend-mode:multiply">
<path d="M52.3033 85.6485C51.0963 85.7756 35.8499 86.5379 36.8028 85.9026C37.7557 85.2674 50.4611 83.8063 51.541 83.0439C53.0021 82.0275 38.7721 82.4722 45.2519 81.1381C50.0799 80.1217 49.9528 80.1217 52.3669 78.47C53.6374 77.5171 52.4304 77.6442 49.8258 77.6442C47.9835 77.7077 33.7535 78.5971 33.4359 78.0888L33.563 77.9618C35.5323 77.0089 46.3954 75.9925 40.4238 73.5149C37.9463 72.4985 39.5345 72.1809 43.4731 71.4185C50.4611 69.9574 59.3548 68.941 66.7239 68.0516C82.6691 66.0188 43.7908 67.5434 62.7217 66.527C65.0722 66.3364 82.5421 65.7011 83.2409 65.3835C82.8597 64.7482 49.2541 65.7647 45.0613 65.8282C40.8685 65.8917 25.368 66.3999 24.161 64.8753C23.0175 63.6047 24.9868 63.4142 29.0526 63.033C34.7064 62.4613 40.2968 62.1436 46.0777 61.5084C47.4753 61.3813 74.3471 58.3956 62.2135 58.1415C54.7809 58.0144 31.7207 58.7767 26.8291 58.1415C22.5728 57.5697 35.2146 55.9815 36.2946 55.8545C40.8685 55.2192 48.1106 54.2028 51.9222 53.1864C51.7951 52.6782 50.9057 52.6782 49.3176 52.5511C48.6823 52.4876 40.1062 52.0429 43.2825 51.4076C49.5717 50.5818 73.5848 48.9936 79.9375 49.1842C92.3252 49.6924 119.578 47.7231 133.3 46.9607C142.702 46.5161 152.231 46.1349 161.506 45.4996C165.063 45.182 168.684 44.8644 172.115 44.5467C175.609 44.2926 178.467 44.1656 181.898 44.102C183.041 44.102 184.121 44.0385 185.392 44.102C187.615 44.102 188.886 44.102 190.601 44.4197C190.093 44.2926 186.345 43.7209 189.585 44.1656C191.999 44.5467 193.523 45.8808 191.617 46.8337C187.615 48.9301 177.451 49.0571 171.479 49.5018C165.444 49.9465 157.249 50.7088 153.12 52.6146C153.247 52.6782 153.247 52.6782 153.247 52.7417C155.28 53.504 176.371 53.0593 180.437 53.0593L180.818 52.9958C182.47 52.9958 198.224 53.0593 194.413 54.3298C192.824 54.8381 176.18 56.4262 173.322 56.8074C168.494 57.3791 156.551 59.0308 156.042 61.0637C155.915 61.5719 153.565 61.5084 152.739 62.0801C157.122 63.4142 185.455 61.9531 188.441 62.5883C190.601 62.9695 182.47 64.113 181.199 64.3035C179.039 64.6847 165.444 66.7176 166.651 67.6705C167.922 68.7504 182.025 67.9246 171.225 70.148C169.574 70.4656 160.871 71.8632 162.713 72.4985C165.127 72.9432 168.811 72.6891 164.428 74.4043C160.553 75.8654 150.071 78.1524 144.671 78.7241C143.083 78.8512 137.747 79.2323 136.921 79.7405C135.46 80.5029 134.952 80.5029 131.966 80.757C127.646 81.2017 121.611 81.5193 117.037 81.8369C111.32 82.2816 107.889 82.4087 102.172 82.5357C98.1696 82.5992 88.5771 83.6792 83.622 83.9333C78.6669 84.2509 73.8389 84.378 68.8838 84.6956C63.2935 85.0768 57.8937 85.3944 52.3033 85.6485Z" fill="url(#paint0_linear_142_1880)"/>
</g>
<g style="mix-blend-mode:multiply">
<path d="M142.702 66.8446C143.972 66.7176 159.155 65.8917 158.202 66.527C157.249 67.1622 144.544 68.6869 143.464 69.5127C142.067 70.4656 156.297 69.9574 149.753 71.355C144.989 72.3714 145.116 72.3714 142.702 74.0231C141.431 74.976 142.638 74.849 145.243 74.849C147.085 74.7219 161.315 73.8326 161.633 74.3408L161.506 74.4678C159.536 75.4207 148.673 76.4371 154.645 78.9147C157.186 79.9311 155.598 80.2487 151.659 81.0746C144.671 82.5357 135.777 83.5521 128.345 84.5686C112.463 86.6014 151.342 84.8862 132.411 86.0297C130.06 86.2203 112.59 86.9826 111.891 87.2367C112.273 87.9355 145.878 86.6649 150.071 86.6014C154.264 86.5379 169.764 86.0297 170.971 87.4908C172.178 88.7613 170.145 88.9519 166.08 89.3331C160.426 89.9683 154.835 90.286 149.055 90.9212C147.72 91.1118 120.785 94.2246 132.982 94.4152C140.415 94.4787 163.475 93.5894 168.367 94.2246C172.559 94.7964 159.981 96.3845 158.901 96.5751C154.327 97.2104 147.085 98.2268 143.274 99.3068C143.401 99.815 144.29 99.815 145.942 99.8785C146.513 99.942 155.153 100.387 151.913 101.022C145.624 101.848 121.675 103.627 115.322 103.436C102.871 102.991 75.6812 105.024 61.9594 105.85C52.5574 106.422 42.9649 106.803 33.69 107.502C30.1325 107.819 26.575 108.137 23.081 108.455C19.6506 108.772 16.7919 108.899 13.2979 109.026C12.218 109.026 11.0745 109.026 9.86749 109.026C7.58052 109.026 6.37352 109.026 4.59477 108.709C5.10298 108.772 8.85106 109.408 5.61119 108.899C3.26071 108.582 1.67254 107.311 3.64187 106.295C7.58052 104.198 17.7448 104.008 23.7163 103.563C29.7514 103.055 37.9463 102.229 42.012 100.323C41.885 100.26 41.885 100.26 41.885 100.26C39.9156 99.4973 18.8248 100.006 14.6955 100.069H14.3779C12.7262 100.069 -3.02844 100.069 0.783164 98.8621C2.30781 98.2903 19.0153 96.5751 21.874 96.2575C26.6385 95.6222 38.5816 93.9705 39.1533 91.8741C39.2168 91.3659 41.5673 91.4295 42.3932 90.8577C38.0098 89.5237 9.6769 91.1118 6.62762 90.4765C4.53124 90.1589 12.6627 88.9519 13.8697 88.7613C16.0931 88.3802 29.6243 86.3473 28.4808 85.3309C27.2103 84.3145 13.1073 85.1403 23.9069 82.9169C25.4951 82.5992 34.1982 81.0746 32.3559 80.5029C29.9419 80.0582 26.2574 80.3123 30.6407 78.5971C34.5159 77.1359 44.9342 74.7855 50.3975 74.2137C51.9857 74.0231 57.3219 73.642 58.1478 73.1973C59.6089 72.435 60.1171 72.3714 63.0394 72.0538C67.3592 71.6726 73.4577 71.2915 78.0317 70.9103C83.6855 70.4656 87.1795 70.3386 92.8969 70.148C96.8356 70.0845 106.492 69.0045 111.447 68.6869C116.338 68.3692 121.166 68.1787 126.121 67.861C131.712 67.4799 137.175 67.0987 142.702 66.8446Z" fill="url(#paint1_linear_142_1880)"/>
</g>
<g style="mix-blend-mode:multiply">
<path d="M170.527 114.426C168.812 113.537 172.814 112.139 163.412 112.457C148.61 113.029 133.364 114.744 118.435 115.379C114.306 115.57 110.177 115.76 105.984 115.824C97.0265 116.078 88.3868 116.65 79.239 116.459C70.917 116.332 59.7363 117.094 51.3508 118.047C49.1908 118.365 45.5698 118.174 43.2829 118.301C41.8217 118.301 31.2128 119 31.2763 117.602C31.2763 117.602 30.5775 117.158 33.7539 115.697C36.6126 114.236 40.1065 113.029 43.2829 111.567C46.5863 109.979 48.8097 108.963 52.1131 107.057C59.4187 102.864 70.7264 106.168 77.8414 102.547C81.8436 100.514 72.0605 99.5608 71.2982 99.4973C63.4844 99.0526 54.5906 99.4338 46.5863 99.3067C38.4548 99.1162 30.1964 98.9891 22.192 98.735C12.4089 98.3538 18.698 96.1939 23.526 93.9705C27.02 92.2553 30.1328 90.9847 33.6903 89.4601C34.5162 89.206 39.0266 87.1096 38.0737 86.0296C35.9138 83.3615 22.2555 83.6792 16.8557 79.9311C15.204 78.7876 18.0627 78.0253 19.2062 77.7712C23.3355 76.5642 30.9587 77.1994 36.1043 75.9924C40.1065 75.1666 43.2829 74.7854 47.2215 74.0866C50.652 73.5149 49.7626 72.4985 47.0945 72.2443C45.3157 72.1173 36.2314 72.1173 35.5961 70.9103C35.7232 69.3221 39.2172 67.7975 40.6783 65.8917C42.3935 63.7953 43.537 62.4612 39.5348 61.5719C34.5162 60.4284 26.0036 61.0001 22.192 58.0144C19.3968 55.9815 36.0408 51.9793 37.2478 51.6617C41.7582 50.4547 57.767 46.2619 60.308 43.3397C62.8491 40.3539 53.8918 39.0834 60.8162 36.86C62.0868 36.5423 63.6114 36.2247 64.9455 35.9706C69.71 35.1447 74.6015 34.7 79.4931 34.2554C83.5588 33.8107 82.86 32.0955 85.6552 31.0155C86.9893 30.5073 87.1163 29.9355 88.5139 29.1097C93.2149 26.5051 99.8852 26.7592 105.221 26.378C116.593 25.6793 128.853 26.3145 140.288 26.4416C147.149 26.5051 152.803 26.6322 159.854 26.1875C170.845 25.5522 181.771 25.044 192.698 24.4722H193.46C203.878 23.964 214.17 23.964 224.461 23.6464C227.764 23.5193 242.249 23.7735 244.726 24.6628C242.249 26.9498 229.48 28.7285 233.545 31.7143C236.15 33.5566 240.787 35.2083 244.091 35.9706C245.361 36.2882 251.015 37.1776 249.364 38.8928C248.22 40.1633 241.994 42.7044 247.648 43.0856C250.952 43.4032 252.159 43.975 253.429 46.7066C254.509 49.3112 248.538 50.4547 246.695 51.0264C243.011 51.9158 226.367 55.7274 223.889 57.9508C220.84 60.746 228.844 62.1436 230.369 62.3977C233.164 62.5883 248.601 62.7153 245.933 67.4798C245.87 67.7975 243.011 70.7197 244.091 69.0045C243.964 69.068 241.423 70.3385 241.105 70.4656C235.007 72.9431 216.901 76.3736 213.598 78.6605C211.946 80.1852 212.899 80.884 214.805 81.5828C217.727 82.7263 222.365 83.3615 225.605 84.1874C232.847 85.712 244.281 86.6014 252.032 87.1096C252.985 87.1096 267.85 87.3637 265.753 89.7142C264.038 91.4294 255.526 93.907 252.54 95.1775C247.775 97.0833 246.759 98.3538 242.884 100.895C236.658 105.024 223.508 105.532 215.885 106.485C210.358 107.184 196.065 108.709 192.253 112.33C189.966 114.426 189.966 114.299 186.472 114.744C182.661 115.061 173.576 115.697 170.527 114.426Z" fill="url(#paint2_linear_142_1880)"/>
</g>
<g style="mix-blend-mode:multiply">
<path d="M246.187 95.6857C245.425 95.3045 247.267 94.6058 242.884 94.7963C235.959 95.0504 228.844 95.8128 221.856 96.1304C219.887 96.1939 217.981 96.321 216.012 96.321C211.819 96.448 207.817 96.7021 203.497 96.6386C199.622 96.5751 194.413 96.8927 190.474 97.3374C189.458 97.528 187.806 97.4009 186.726 97.4645C186.027 97.4645 181.072 97.7821 181.072 97.1468C181.072 97.1468 180.755 96.9562 182.279 96.2575C183.613 95.5587 185.201 95.0504 186.726 94.3516C188.251 93.5893 189.331 93.1446 190.855 92.2553C194.286 90.2859 199.558 91.8106 202.862 90.1589C204.768 89.206 200.194 88.6978 199.813 88.6978C196.128 88.5072 191.999 88.6978 188.251 88.5707C184.439 88.5072 180.627 88.4437 176.879 88.3166C172.305 88.1896 175.228 87.1731 177.515 86.0932C179.103 85.3309 180.564 84.6956 182.216 83.9968C182.66 83.8697 184.693 82.9168 184.312 82.4086C183.296 81.1381 176.879 81.3287 174.338 79.5499C173.576 79.0417 174.91 78.6605 175.482 78.5335C177.388 77.9617 180.945 78.2794 183.359 77.7076C185.265 77.3265 186.726 77.1359 188.568 76.8183C190.156 76.5642 189.712 76.056 188.505 75.9289C187.679 75.8654 183.423 75.9289 183.105 75.3572C183.169 74.5948 184.82 73.896 185.519 73.0067C186.281 71.9902 186.853 71.4185 184.947 70.9738C182.597 70.4656 178.658 70.7197 176.879 69.3221C175.545 68.3692 183.359 66.4634 183.867 66.3364C186.027 65.7646 193.46 63.7953 194.667 62.4612C195.874 61.0636 191.681 60.4284 194.921 59.4119C195.493 59.2849 196.191 59.0943 196.827 59.0308C199.05 58.6496 201.337 58.3955 203.624 58.2049C205.53 58.0144 205.212 57.1885 206.546 56.6803C207.118 56.4897 207.245 56.1721 207.88 55.7909C210.04 54.5839 213.153 54.711 215.694 54.5204C220.967 54.2028 226.684 54.5204 232.021 54.5839C235.26 54.5839 237.865 54.6474 241.232 54.3933C246.314 54.1392 251.46 53.8851 256.542 53.631H256.923C261.751 53.3769 266.579 53.3769 271.407 53.2499C272.932 53.1863 279.729 53.3134 280.873 53.6945C279.729 54.7745 273.758 55.6003 275.663 56.9979C276.87 57.8873 279.03 58.6496 280.555 59.0308C281.127 59.1578 283.795 59.539 283.033 60.3648C282.524 61.0001 279.602 62.1436 282.207 62.3342C283.795 62.4612 284.367 62.7153 284.938 64.0494C285.447 65.2564 282.651 65.7646 281.762 66.0187C280.047 66.4634 272.297 68.2422 271.09 69.2586C269.692 70.5927 273.44 71.2279 274.139 71.355C275.473 71.482 282.715 71.482 281.444 73.7055C281.381 73.896 280.047 75.2301 280.555 74.4678C280.491 74.4678 279.348 75.1031 279.157 75.1666C276.299 76.3101 267.85 77.8982 266.325 78.9782C265.563 79.677 266.007 79.9946 266.897 80.3122C268.231 80.8205 270.391 81.1381 271.915 81.5193C275.282 82.218 280.682 82.6627 284.303 82.9168C284.748 82.9168 291.672 83.0439 290.719 84.1238C289.893 84.9497 285.891 86.0932 284.494 86.6649C282.334 87.5543 281.826 88.1896 279.983 89.333C277.125 91.3024 270.962 91.493 267.405 92.0012C264.8 92.3188 258.13 93.0176 256.351 94.6693C255.271 95.6857 255.271 95.6222 253.62 95.8128C251.841 96.0033 247.585 96.2574 246.187 95.6857Z" fill="url(#paint3_linear_142_1880)"/>
</g>
<g style="mix-blend-mode:multiply">
<path d="M28.0998 134.882C28.481 134.564 31.4667 133.992 33.1184 133.421C36.9936 131.959 38.7088 131.134 43.2192 129.863C47.9202 128.466 63.5477 124.209 64.9453 121.922C65.1359 120.08 61.0067 120.144 57.5127 120.016C47.0308 119.699 41.504 119.635 33.5631 117.094C27.6551 115.252 36.2313 113.981 38.1371 111.758C40.9322 108.518 49.8895 106.993 56.2422 105.659C59.6726 104.961 72.8862 102.547 75.3002 101.721C78.6671 100.577 82.4152 98.3538 84.7657 97.7821C99.885 94.2881 118.562 93.3352 134.317 91.1753C135.968 90.9212 134.888 91.1118 136.603 91.3659C142.829 92.5729 158.393 91.1118 166.398 90.7306C169.891 90.6036 178.531 89.9683 180.119 91.2388C181.898 92.827 180.183 92.5094 185.138 92.7635C190.093 93.0176 193.333 92.7 189.712 96.0034C187.171 98.1633 186.98 97.9727 193.142 97.7821C195.302 97.7186 202.671 97.4009 202.989 98.4174L202.862 98.6715C200.956 100.196 196.827 101.022 199.431 102.483C202.163 104.77 193.523 105.659 192.761 108.137C192.062 110.106 195.302 108.328 189.14 110.551C185.773 111.822 184.63 112.52 189.204 112.838C191.046 112.965 200.893 112.838 201.274 113.537C202.29 114.998 182.66 118.937 185.329 120.715C189.902 123.066 201.274 120.652 185.011 126.56C174.021 130.88 197.017 129.736 186.027 132.912C182.597 133.865 178.912 134.628 178.595 136.343C178.214 138.693 173.258 139.773 168.748 140.853C162.777 142.314 161.506 142.441 155.153 143.267C141.114 144.982 127.9 146.253 113.797 148.286C106.619 149.239 99.3133 150.382 92.0077 151.526C87.0526 152.352 74.1567 153.114 68.5664 153.559C62.1502 154.067 47.3484 156.036 42.3298 155.401C36.4218 154.575 40.8052 152.415 27.0199 152.733C19.2696 152.923 13.2346 153.177 24.2247 149.683C28.0998 148.476 33.6902 147.079 34.7066 144.982C35.9136 142.632 33.4361 143.903 33.1184 142.95C32.8008 141.616 42.6475 138.058 42.6475 137.042L42.4569 136.851C41.2499 136.279 26.5752 137.359 27.7187 135.263L28.0998 134.882Z" fill="url(#paint4_linear_142_1880)"/>
</g>
<g style="mix-blend-mode:multiply">
<path d="M110.176 117.031C110.557 116.84 113.607 116.332 115.258 115.887C119.197 114.934 120.912 114.363 125.422 113.41C130.251 112.33 146.005 109.026 147.53 107.756C147.847 106.803 143.782 107.184 140.288 107.375C129.933 108.01 124.47 108.391 116.783 107.756C111.065 107.248 119.642 105.977 121.738 104.707C124.724 102.864 133.681 101.403 140.034 100.26C143.464 99.6879 156.678 97.4645 159.155 96.8928C162.522 96.0669 166.461 94.6693 168.811 94.2246C184.058 91.3024 202.544 89.3966 218.299 87.1732C219.95 86.9191 218.87 87.1096 220.522 87.1096C226.621 87.1732 242.121 85.3309 250.062 84.505C253.556 84.1874 262.196 83.2345 263.657 83.7427C265.308 84.378 263.593 84.378 268.485 84.1239C273.376 83.8698 276.553 83.4886 272.741 85.3944C270.136 86.6649 269.946 86.6014 276.108 86.0297C278.204 85.8391 285.573 85.1403 285.764 85.585L285.637 85.712C283.668 86.6649 279.538 87.3637 282.016 87.9355C284.493 88.8884 275.917 89.9683 274.964 91.2389C274.139 92.2553 277.505 91.1118 271.216 92.7635C267.849 93.6529 266.642 94.0341 271.089 93.907C272.932 93.7799 282.651 93.0176 283.032 93.2717C283.922 93.9705 264.228 97.401 266.769 98.0998C271.089 98.9256 282.524 96.8927 266.007 101.086C254.89 104.071 277.696 101.721 266.579 104.135C263.148 104.897 259.464 105.532 259.019 106.422C258.447 107.629 253.492 108.518 248.982 109.408C242.947 110.615 241.676 110.805 235.324 111.631C221.348 113.6 208.198 115.252 194.095 117.285C186.916 118.301 179.547 119.445 172.242 120.588C167.287 121.351 154.518 122.685 148.927 123.32C142.575 124.082 127.773 126.179 122.818 126.242C117.037 126.242 121.547 124.845 107.889 126.052C100.202 126.75 94.2308 127.322 105.285 124.781C109.287 123.828 114.877 122.748 116.021 121.605C117.355 120.334 114.814 121.16 114.623 120.715C114.369 120.016 124.343 117.539 124.406 117.031L124.279 116.967C123.072 116.713 108.524 118.365 109.795 117.285L110.176 117.031Z" fill="url(#paint5_linear_142_1880)"/>
</g>
<path d="M216.111 106.415L226.57 103.104V95.0529L216.111 98.439V106.415Z" fill="#FFD3A6"/>
<path d="M213.176 107.318V99.342L199.104 103.782V111.833L213.176 107.318Z" fill="#FFD3A6"/>
<path d="M221.528 108.071L207.382 112.51V120.637V122.744C207.382 123.271 207.081 123.722 206.705 123.948L213.176 121.916V119.809C213.176 119.283 213.552 118.681 214.154 118.455C214.154 118.455 214.154 118.38 214.229 118.38L221.528 116.122V108.071Z" fill="#FFD3A6"/>
<path d="M204.372 121.54V113.489L198.277 115.445C198.126 115.52 198.051 115.595 197.825 115.595L190.376 118.003V125.98L197.148 123.873H197.223L204.372 121.54Z" fill="#FFD3A6"/>
<path d="M205.952 124.249L199.104 126.431V133.805L213.176 129.14V121.916L206.704 123.948C206.403 124.098 206.253 124.249 205.952 124.249Z" fill="#FFD3A6"/>
<path d="M196.17 134.859V127.409L184.432 131.096V138.847L196.17 134.859Z" fill="#FFD3A6"/>
<path d="M182.55 128.538L187.366 127.033V118.982L175.703 122.669V130.72L182.4 128.613C182.475 128.613 182.55 128.538 182.55 128.538Z" fill="#FFD3A6"/>
<path d="M184.432 116.574L196.17 112.811V104.76L184.432 108.522V116.574Z" fill="#FFD3A6"/>
<path d="M181.422 117.477V109.425L170.511 112.962V121.013L181.422 117.477Z" fill="#FFD3A6"/>
<path d="M167.426 121.916V113.94L152.226 118.756V126.882L167.426 121.916Z" fill="#FFD3A6"/>
<path d="M158.697 128.086L152.226 130.193V138.245L158.697 136.138V128.086Z" fill="#FFD3A6"/>
<path d="M161.707 127.108V135.235V137.267C161.707 138.094 161.03 138.772 160.202 138.772C159.374 138.772 158.697 138.094 158.697 137.267V136.138L152.226 138.245V130.193H152.15V140.653V141.405L167.426 136.514V134.407C167.426 133.805 167.877 133.279 168.404 133.053C168.479 133.053 168.554 132.978 168.63 132.978L172.618 131.698V123.647L161.707 127.108Z" fill="#FFD3A6"/>
<path d="M167.426 136.514L152.15 141.405V149.908L167.426 144.641V136.514Z" fill="#FFD3A6"/>
<path d="M170.511 135.536V143.663L181.422 139.9V132.075L170.511 135.536Z" fill="#FFD3A6"/>
<path d="M83.9763 106.114V98.0629L72.9902 94.5262V102.653L83.9763 106.114Z" fill="#FFD3A6"/>
<path d="M87.0615 98.9658V107.093L101.058 111.532V103.481L87.0615 98.9658Z" fill="#FFD3A6"/>
<path d="M104.067 104.459V112.51L115.73 116.197V108.146L104.067 104.459Z" fill="#FFD3A6"/>
<path d="M118.74 109.124V117.176L129.726 120.637V112.586L118.74 109.124Z" fill="#FFD3A6"/>
<path d="M132.736 113.564V121.615L149.14 126.807V118.756L132.736 113.564Z" fill="#FFD3A6"/>
<path d="M138.455 126.807L127.544 123.271V131.322L131.533 132.601C131.608 132.677 131.683 132.677 131.758 132.677L138.455 134.859V126.807Z" fill="#FFD3A6"/>
<path d="M141.54 127.71V135.762V136.89C141.54 137.718 140.788 138.395 140.035 138.395C139.885 138.395 139.734 138.395 139.584 138.395L149.14 141.405V138.245V130.193L141.54 127.71Z" fill="#FFD3A6"/>
<path d="M124.534 130.344V122.368L112.796 118.605V126.657L117.612 128.162C117.687 128.162 117.687 128.162 117.762 128.237L124.534 130.344Z" fill="#FFD3A6"/>
<path d="M109.786 125.679V117.702L102.337 115.294C102.186 115.294 102.01 115.219 101.81 115.069L95.79 113.188V121.239L102.863 123.496C102.964 123.496 103.039 123.496 103.089 123.496L109.786 125.679Z" fill="#FFD3A6"/>
<path d="M92.7803 120.261V112.209L78.6338 107.77V115.746L85.9328 118.154H86.008L92.7803 120.261Z" fill="#FFD3A6"/>
<path d="M75.6991 114.843V106.792L72.9902 105.964V114.015L75.6991 114.843Z" fill="#FFD3A6"/>
<path d="M78.6338 116.875C78.6338 117.702 77.9566 118.38 77.2041 118.38C77.0536 118.38 76.9031 118.38 76.7526 118.38C76.6774 118.304 76.6774 118.304 76.6774 118.304L72.915 117.176V124.475L83.9764 128.162V120.712V119.584C83.9764 118.756 84.7289 118.079 85.4813 118.079C85.682 118.079 85.8325 118.079 85.9328 118.079L78.6338 115.746V116.875Z" fill="#FFD3A6"/>
<path d="M87.0615 121.615V129.14L101.058 133.805V126.055L93.9843 123.873C93.909 123.797 93.8338 123.797 93.7585 123.797L87.0615 121.615Z" fill="#FFD3A6"/>
<path d="M104.067 127.033V134.859L115.73 138.772V130.72L110.914 129.215C110.914 129.215 110.839 129.14 110.764 129.14L104.067 127.033Z" fill="#FFD3A6"/>
<path d="M118.74 131.774V139.75L129.726 143.437V135.235L125.588 133.88C125.588 133.88 125.588 133.88 125.512 133.805L118.74 131.774Z" fill="#FFD3A6"/>
<path d="M132.736 136.138V144.415L149.14 149.908V141.405L139.584 138.395C139.584 138.395 139.509 138.32 139.433 138.32L132.736 136.138Z" fill="#FFD3A6"/>
<path d="M131.608 110.027C131.608 110.027 131.683 110.027 131.758 110.102L149.141 115.595V89.8609L72.915 63.9758V79.1005L85.9328 83.3144C86.6853 83.5401 87.0615 84.4431 86.8358 85.1956C86.6101 85.948 85.7823 86.3995 84.9546 86.0985L72.915 82.2609V91.3658L85.9328 95.4292C85.9328 95.5045 86.0081 95.5044 86.0833 95.5044L102.863 100.922C102.939 100.922 103.014 100.922 103.089 100.998L117.612 105.588C117.687 105.588 117.762 105.663 117.838 105.663L131.608 110.027Z" fill="black"/>
<path d="M152.15 89.1837V115.596L168.178 110.479C168.404 110.403 168.63 110.328 168.855 110.328L182.174 106.039C182.375 105.989 182.575 105.914 182.776 105.813L196.998 101.299C197.148 101.223 197.224 101.223 197.374 101.148L226.57 91.8926V63.9006L152.15 89.1837Z" fill="black"/>
<path d="M152.15 85.9481L226.57 60.7402V53.667L214.154 57.7303C213.326 57.9561 212.499 57.5046 212.198 56.7521C211.972 55.9244 212.348 55.0967 213.176 54.7957L226.57 50.4313V44.3363L152.15 69.5442V85.9481Z" fill="#FFD443"/>
<path d="M149.141 86.6252V70.2966L72.915 44.4115V60.8154L149.141 86.6252Z" fill="#FFD443"/>
<path d="M72.915 41.1759L149.141 67.061V56.8273L82.9982 34.3284L72.915 30.9423V41.1759Z" fill="black"/>
<path d="M152.15 56.3758V66.3837L226.57 41.1006V30.9423L152.15 56.3758Z" fill="black"/>
<path fill-rule="evenodd" clip-rule="evenodd" d="M82.7725 31.0174H82.6972L76.3765 28.8352L149.667 5.88477L222.883 28.8352L150.269 53.5163L82.7725 31.0174ZM197.449 32.2213C197.6 31.3936 197.224 30.5659 196.396 30.2649L150.119 15.7422C149.818 15.6669 149.517 15.6669 149.216 15.7422L102.939 30.2649C102.111 30.5659 101.66 31.3936 101.961 32.2213C102.186 32.9738 103.089 33.4253 103.842 33.1995L149.667 18.8273L195.493 33.1995C196.321 33.4253 197.148 32.9738 197.449 32.2213Z" fill="black"/>
<path d="M77.7304 72.1025C76.9779 71.8768 76.5264 70.9738 76.7522 70.2213C77.0531 69.3936 77.8809 68.9421 78.6333 69.2431L93.3818 74.0589C94.1343 74.2847 94.5858 75.1124 94.2848 75.9401C94.1343 76.6926 93.2313 77.1441 92.4036 76.9183L77.7304 72.1025ZM104.067 80.6807C103.239 80.3797 102.788 79.552 103.089 78.7242C103.314 77.9718 104.142 77.5203 104.97 77.8213L117.085 81.7341C117.837 81.9599 118.213 82.7876 118.063 83.6906C117.762 84.443 116.934 84.8193 116.182 84.5935L104.067 80.6807ZM128.673 88.6569C127.845 88.5064 127.394 87.6787 127.695 86.851C127.92 86.0232 128.748 85.5718 129.576 85.8727L143.948 90.5381C144.776 90.7638 145.152 91.6668 144.926 92.4193C144.7 93.247 143.798 93.6985 143.045 93.3975L128.673 88.6569Z" fill="#FFD443"/>
<path d="M97.897 78.7994C98.7247 78.7994 99.4019 78.1975 99.4019 77.2945C99.4019 76.542 98.7247 75.7896 97.897 75.7896C97.0693 75.7896 96.4673 76.542 96.4673 77.2945C96.4673 78.1975 97.0693 78.7994 97.897 78.7994Z" fill="#FFD443"/>
<path d="M122.653 87.0767C123.556 87.0767 124.158 86.4747 124.158 85.5717C124.158 84.8192 123.556 84.0668 122.653 84.0668C121.901 84.0668 121.224 84.8192 121.224 85.5717C121.224 86.4747 121.901 87.0767 122.653 87.0767Z" fill="#FFD443"/>
<path d="M221.528 70.1461C222.356 69.8451 223.184 70.3718 223.41 71.1243C223.711 71.952 223.259 72.7797 222.431 73.0055L207.833 77.8213C207.006 78.1223 206.178 77.6708 205.877 76.8431C205.651 76.0906 206.103 75.1876 206.855 74.9619L221.528 70.1461ZM195.342 78.649C196.095 78.4985 196.923 78.8747 197.223 79.6272C197.374 80.4549 196.998 81.2827 196.245 81.5836L184.13 85.4965C183.303 85.7975 182.475 85.346 182.249 84.5183C181.948 83.7658 182.4 82.8629 183.228 82.7124L195.342 78.649ZM170.661 86.7005C171.414 86.4747 172.241 86.851 172.542 87.6034C172.768 88.5064 172.392 89.3341 171.564 89.5599L157.192 94.2252C156.439 94.5262 155.612 94.0747 155.311 93.247C155.085 92.4945 155.536 91.6668 156.289 91.3658L170.661 86.7005Z" fill="#FFC12F"/>
<path d="M202.34 79.7778C203.168 79.7025 203.845 79.1005 203.845 78.1976C203.845 77.4451 203.168 76.6926 202.34 76.6926C201.513 76.6926 200.835 77.4451 200.835 78.1976C200.835 79.1005 201.513 79.7025 202.34 79.7025V79.7778Z" fill="#FFC12F"/>
<path d="M177.508 88.055C178.336 88.055 179.013 87.3778 179.013 86.4748C179.013 85.7223 178.336 84.9698 177.508 84.9698C176.756 84.9698 176.003 85.7223 176.003 86.4748C176.003 87.3778 176.756 88.055 177.508 88.055Z" fill="#FFC12F"/>
<path fill-rule="evenodd" clip-rule="evenodd" d="M106.024 145.619C108.507 145.619 110.764 146.597 112.345 148.253L112.42 148.328C113.925 149.908 114.978 152.166 114.978 154.574C114.978 157.132 113.925 159.314 112.345 160.97C110.764 162.625 108.507 163.678 106.024 163.678C103.541 163.678 101.358 162.625 99.703 160.97C98.0476 159.389 97.0693 157.132 97.0693 154.574C97.0693 152.09 98.0476 149.908 99.703 148.253L99.8535 148.178C101.358 146.597 103.616 145.619 106.024 145.619ZM110.238 150.435C109.109 149.306 107.679 148.629 106.024 148.629C104.444 148.629 102.939 149.306 101.885 150.36V150.435C100.756 151.488 100.079 152.993 100.079 154.574C100.079 156.229 100.756 157.734 101.885 158.863C102.863 159.916 104.368 160.593 106.024 160.593C107.679 160.593 109.109 159.916 110.238 158.863C111.291 157.734 111.968 156.229 111.968 154.574C111.968 152.993 111.291 151.488 110.238 150.435Z" fill="#044269"/>
<path fill-rule="evenodd" clip-rule="evenodd" d="M52.2973 12.2809C53.8775 12.2809 55.3072 12.8829 56.2854 13.9363L56.3607 14.0116C57.3389 15.065 57.9408 16.4195 57.9408 17.9244C57.9408 19.5046 57.3389 20.9343 56.2854 21.9878C55.3072 23.0412 53.8775 23.568 52.2973 23.568C50.7924 23.568 49.3627 23.0412 48.3092 21.9878C47.331 20.9343 46.729 19.5046 46.729 17.9244C46.729 16.3442 47.331 14.9898 48.3092 13.9363L48.3844 13.8611C49.3627 12.8829 50.7924 12.2809 52.2973 12.2809ZM54.1785 16.0432C53.727 15.5918 52.9745 15.2908 52.2973 15.2908C51.5448 15.2908 50.9429 15.5918 50.4914 16.0432C50.0399 16.57 49.6636 17.2472 49.6636 17.9244C49.6636 18.6769 50.0399 19.3541 50.4914 19.8056C50.9429 20.3323 51.5448 20.5581 52.2973 20.5581C52.9745 20.5581 53.727 20.3323 54.1785 19.8056C54.63 19.3541 54.931 18.6769 54.931 17.9244C54.931 17.2472 54.7052 16.6452 54.2537 16.1185L54.1785 16.0432Z" fill="#044269"/>
<path fill-rule="evenodd" clip-rule="evenodd" d="M247.187 69.2432C249.294 69.2432 251.175 70.0709 252.53 71.4253C253.884 72.855 254.787 74.7362 254.787 76.8431C254.787 78.9501 253.884 80.9065 252.53 82.3362H252.455C251.1 83.6906 249.219 84.5184 247.187 84.5184C245.08 84.5184 243.199 83.6906 241.77 82.3362C240.415 80.9065 239.587 78.9501 239.587 76.8431C239.587 74.7362 240.415 72.855 241.77 71.4253C243.199 70.0709 245.08 69.2432 247.187 69.2432ZM250.423 73.5323C249.595 72.7798 248.467 72.2531 247.187 72.2531C245.908 72.2531 244.779 72.7798 243.952 73.5323C243.124 74.4352 242.597 75.5639 242.597 76.8431C242.597 78.1976 243.124 79.2511 243.952 80.154C244.779 80.9817 245.908 81.5085 247.187 81.5085C248.467 81.5085 249.52 80.9817 250.348 80.2293L250.423 80.154C251.251 79.2511 251.777 78.1976 251.777 76.8431C251.777 75.5639 251.251 74.4352 250.423 73.5323Z" fill="#044269"/>
<path d="M192.633 13.0333C191.806 13.0333 191.128 12.3561 191.128 11.5284C191.128 10.7007 191.806 10.0234 192.633 10.0234H217.615C218.518 10.0234 219.12 10.7007 219.12 11.5284C219.12 12.3561 218.518 13.0333 217.615 13.0333H192.633Z" fill="#044269"/>
<path d="M210.542 19.8808C209.714 19.8808 209.037 19.2036 209.037 18.3758C209.037 17.4729 209.714 16.7957 210.542 16.7957H223.033C223.861 16.7957 224.538 17.4729 224.538 18.3758C224.538 19.2036 223.861 19.8808 223.033 19.8808H210.542Z" fill="#044269"/>
<path d="M122.202 0.0908203C123.105 0.0908203 123.782 0.692799 123.782 1.59577C123.782 2.42349 123.105 3.10071 122.202 3.10071H109.711C108.958 3.10071 108.206 2.42349 108.206 1.59577C108.206 0.692799 108.958 0.0908203 109.711 0.0908203H122.202Z" fill="#044269"/>
<path d="M39.5049 126.431C38.6772 126.431 38 125.754 38 124.926C38 124.098 38.6772 123.421 39.5049 123.421H64.5623C65.39 123.421 66.0672 124.098 66.0672 124.926C66.0672 125.754 65.39 126.431 64.5623 126.431H39.5049Z" fill="#044269"/>
<path d="M59.5211 133.279C58.7686 133.279 58.0161 132.677 58.0161 131.774C58.0161 130.946 58.7686 130.269 59.5211 130.269H72.0121C72.8398 130.269 73.5923 130.946 73.5923 131.774C73.5923 132.677 72.8398 133.279 72.0121 133.279H59.5211Z" fill="#044269"/>
<path d="M234.997 136.439C235.825 136.439 236.502 137.116 236.502 137.944C236.502 138.847 235.825 139.524 234.997 139.524H209.94C209.112 139.524 208.435 138.847 208.435 137.944C208.435 137.116 209.112 136.439 209.94 136.439H234.997Z" fill="#044269"/>
<path d="M217.014 142.158C217.917 142.158 218.519 142.835 218.519 143.663C218.519 144.49 217.917 145.168 217.014 145.168H204.523C203.695 145.168 203.018 144.49 203.018 143.663C203.018 142.835 203.695 142.158 204.523 142.158H217.014Z" fill="#044269"/>
<path fill-rule="evenodd" clip-rule="evenodd" d="M71.0336 27.3303L149.216 2.87492C149.441 2.79967 149.818 2.79967 150.119 2.87492L228.225 27.3303C228.677 27.4808 229.053 27.7818 229.203 28.3085C229.504 29.1362 229.053 29.9639 228.225 30.2649L150.119 56.8272C149.818 56.8272 149.517 56.8272 149.216 56.8272L71.0336 30.2649C70.5821 30.1144 70.2059 29.7382 70.0554 29.2867C69.8296 28.459 70.2811 27.6313 71.0336 27.3303ZM149.667 5.88481L76.3761 28.8352L149.667 53.7421L222.883 28.8352L149.667 5.88481Z" fill="#044269"/>
<path fill-rule="evenodd" clip-rule="evenodd" d="M72.0121 102.277L151.172 127.485C151.774 127.635 152.226 128.237 152.226 128.914V140.277C152.226 141.104 151.549 141.781 150.721 141.781C150.495 141.781 150.269 141.782 150.194 141.706L71.0339 116.574C70.432 116.348 69.9805 115.746 69.9805 115.069V103.706C69.9805 102.879 70.6577 102.201 71.4854 102.201C71.7112 102.201 71.8616 102.201 72.0121 102.277ZM149.216 130.043L72.9904 105.738V114.015L149.216 138.245V130.043Z" fill="#044269"/>
<path fill-rule="evenodd" clip-rule="evenodd" d="M150.269 127.484L227.548 102.728C227.698 102.728 227.849 102.653 228.075 102.653C228.827 102.653 229.579 103.405 229.579 104.158V115.595C229.579 116.197 229.128 116.799 228.526 117.025L151.247 141.706C151.021 141.781 150.871 141.781 150.72 141.781C149.817 141.781 149.215 141.104 149.215 140.276V128.914C149.215 128.237 149.592 127.635 150.269 127.484ZM226.57 106.265L152.225 130.043V138.245L226.57 114.542V106.265Z" fill="#044269"/>
<path fill-rule="evenodd" clip-rule="evenodd" d="M72.0121 91.0649L151.172 116.197C151.774 116.423 152.226 117.1 152.226 117.702V129.065C152.226 129.892 151.549 130.645 150.721 130.645C150.495 130.645 150.269 130.57 150.194 130.494L71.0339 105.287C70.432 105.136 69.9805 104.534 69.9805 103.857V92.4946C69.9805 91.6668 70.6577 90.9896 71.4854 90.9896C71.7112 90.9896 71.8616 90.9896 72.0121 91.0649ZM149.216 118.756L72.9904 94.5262V102.728L149.216 127.033V118.756Z" fill="#044269"/>
<path fill-rule="evenodd" clip-rule="evenodd" d="M150.269 116.197L227.548 91.5915C227.698 91.5163 227.849 91.441 228.075 91.441C228.827 91.441 229.579 92.1935 229.579 93.0212V104.384C229.579 105.061 229.128 105.663 228.526 105.813L151.247 130.494C151.021 130.57 150.871 130.645 150.72 130.645C149.817 130.645 149.215 129.892 149.215 129.065V117.702C149.215 117.1 149.592 116.423 150.269 116.197ZM226.57 95.0529L152.225 118.756V127.033L226.57 103.255V95.0529Z" fill="#044269"/>
<path d="M83.9761 96.934C83.9761 96.1063 84.7285 95.4291 85.481 95.4291C86.384 95.4291 87.0612 96.1063 87.0612 96.934V108.221C87.0612 108.974 86.384 109.726 85.481 109.726C84.7285 109.726 83.9761 108.974 83.9761 108.221V96.934Z" fill="#044269"/>
<path d="M101.057 102.352C101.057 101.599 101.734 100.847 102.562 100.847C103.315 100.847 104.067 101.599 104.067 102.352V113.789C104.067 114.617 103.315 115.294 102.562 115.294C101.734 115.294 101.057 114.617 101.057 113.789V102.352Z" fill="#044269"/>
<path d="M115.73 107.017C115.73 106.265 116.408 105.512 117.235 105.512C118.063 105.512 118.74 106.265 118.74 107.017V118.38C118.74 119.283 118.063 119.885 117.235 119.885C116.408 119.885 115.73 119.283 115.73 118.38V107.017Z" fill="#044269"/>
<path d="M129.727 111.457C129.727 110.629 130.404 109.952 131.232 109.952C132.059 109.952 132.736 110.629 132.736 111.457V122.819C132.736 123.647 132.059 124.399 131.232 124.399C130.404 124.399 129.727 123.647 129.727 122.819V111.457Z" fill="#044269"/>
<path d="M92.7798 111.156C92.7798 110.403 93.457 109.651 94.2847 109.651C95.1125 109.651 95.7897 110.403 95.7897 111.156V122.368C95.7897 123.195 95.1125 123.873 94.2847 123.873C93.457 123.873 92.7798 123.195 92.7798 122.368V111.156Z" fill="#044269"/>
<path d="M109.786 116.649C109.786 115.746 110.539 115.069 111.291 115.069C112.119 115.069 112.796 115.746 112.796 116.649V127.785C112.796 128.613 112.119 129.29 111.291 129.29C110.539 129.29 109.786 128.613 109.786 127.785V116.649Z" fill="#044269"/>
<path d="M124.535 121.314C124.535 120.411 125.137 119.809 126.04 119.809C126.867 119.809 127.545 120.411 127.545 121.314V132.451C127.545 133.279 126.867 133.956 126.04 133.956C125.137 133.956 124.535 133.279 124.535 132.451V121.314Z" fill="#044269"/>
<path d="M138.455 125.679C138.455 124.926 139.132 124.174 140.035 124.174C140.788 124.174 141.54 124.926 141.54 125.679V136.89C141.54 137.718 140.788 138.395 140.035 138.395C139.132 138.395 138.455 137.718 138.455 136.89V125.679Z" fill="#044269"/>
<path d="M83.9761 119.583C83.9761 118.756 84.7285 118.078 85.481 118.078C86.384 118.078 87.0612 118.756 87.0612 119.583V130.269C87.0612 131.172 86.384 131.773 85.481 131.773C84.7285 131.773 83.9761 131.172 83.9761 130.269V119.583Z" fill="#044269"/>
<path d="M101.057 125.001C101.057 124.098 101.734 123.421 102.562 123.421C103.315 123.421 104.067 124.098 104.067 125.001V135.912C104.067 136.815 103.315 137.417 102.562 137.417C101.734 137.417 101.057 136.815 101.057 135.912V125.001Z" fill="#044269"/>
<path d="M115.73 129.667C115.73 128.839 116.408 128.086 117.235 128.086C118.063 128.086 118.74 128.839 118.74 129.667V140.653C118.74 141.556 118.063 142.158 117.235 142.158C116.408 142.158 115.73 141.556 115.73 140.653V129.667Z" fill="#044269"/>
<path d="M129.727 134.106C129.727 133.279 130.404 132.601 131.232 132.601C132.059 132.601 132.736 133.279 132.736 134.106V145.168C132.736 145.92 132.059 146.673 131.232 146.673C130.404 146.673 129.727 145.92 129.727 145.168V134.106Z" fill="#044269"/>
<path d="M75.6992 106.039C75.6992 105.211 76.3012 104.534 77.2042 104.534C77.9566 104.534 78.6339 105.211 78.6339 106.039V116.875C78.6339 117.702 77.9566 118.38 77.2042 118.38C76.3012 118.38 75.6992 117.702 75.6992 116.875V106.039Z" fill="#044269"/>
<path d="M213.176 97.3104C213.176 96.4074 213.778 95.8054 214.605 95.8054C215.508 95.8054 216.11 96.4074 216.11 97.3104V108.447C216.11 109.35 215.508 110.027 214.605 110.027C213.778 110.027 213.176 109.35 213.176 108.447V97.3104Z" fill="#044269"/>
<path d="M196.17 102.653C196.17 101.825 196.772 101.148 197.675 101.148C198.503 101.148 199.105 101.825 199.105 102.653V114.09C199.105 114.918 198.503 115.595 197.675 115.595C196.772 115.595 196.17 114.918 196.17 114.09V102.653Z" fill="#044269"/>
<path d="M181.421 107.318C181.421 106.49 182.099 105.813 182.926 105.813C183.754 105.813 184.431 106.49 184.431 107.318V118.756C184.431 119.583 183.754 120.261 182.926 120.261C182.099 120.261 181.421 119.583 181.421 118.756V107.318Z" fill="#044269"/>
<path d="M167.425 111.833C167.425 110.93 168.178 110.328 169.005 110.328C169.758 110.328 170.51 110.93 170.51 111.833V123.12C170.51 123.948 169.758 124.625 169.005 124.625C168.178 124.625 167.425 123.948 167.425 123.12V111.833Z" fill="#044269"/>
<path d="M204.372 111.457C204.372 110.629 205.049 109.952 205.877 109.952C206.705 109.952 207.382 110.629 207.382 111.457V122.744C207.382 123.572 206.705 124.249 205.877 124.249C205.049 124.249 204.372 123.572 204.372 122.744V111.457Z" fill="#044269"/>
<path d="M187.366 116.875C187.366 116.122 187.968 115.37 188.871 115.37C189.699 115.37 190.376 116.122 190.376 116.875V128.087C190.376 128.914 189.699 129.667 188.871 129.667C187.968 129.667 187.366 128.914 187.366 128.087V116.875Z" fill="#044269"/>
<path d="M172.618 121.615C172.618 120.787 173.37 120.11 174.198 120.11C174.95 120.11 175.703 120.787 175.703 121.615V132.752C175.703 133.655 174.95 134.332 174.198 134.332C173.37 134.332 172.618 133.655 172.618 132.752V121.615Z" fill="#044269"/>
<path d="M158.697 125.98C158.697 125.227 159.374 124.475 160.202 124.475C161.029 124.475 161.707 125.227 161.707 125.98V137.267C161.707 138.094 161.029 138.772 160.202 138.772C159.374 138.772 158.697 138.094 158.697 137.267V125.98Z" fill="#044269"/>
<path d="M213.176 119.809C213.176 119.057 213.778 118.304 214.605 118.304C215.508 118.304 216.11 119.057 216.11 119.809V130.193C216.11 131.021 215.508 131.698 214.605 131.698C213.778 131.698 213.176 131.021 213.176 130.193V119.809Z" fill="#044269"/>
<path d="M196.17 125.302C196.17 124.475 196.772 123.797 197.675 123.797C198.503 123.797 199.105 124.475 199.105 125.302V135.912C199.105 136.815 198.503 137.417 197.675 137.417C196.772 137.417 196.17 136.815 196.17 135.912V125.302Z" fill="#044269"/>
<path d="M181.421 130.043C181.421 129.14 182.099 128.463 182.926 128.463C183.754 128.463 184.431 129.14 184.431 130.043V140.954C184.431 141.781 183.754 142.534 182.926 142.534C182.099 142.534 181.421 141.781 181.421 140.954V130.043Z" fill="#044269"/>
<path d="M167.425 134.407C167.425 133.655 168.178 132.902 169.005 132.902C169.758 132.902 170.51 133.655 170.51 134.407V145.393C170.51 146.296 169.758 146.898 169.005 146.898C168.178 146.898 167.425 146.296 167.425 145.393V134.407Z" fill="#044269"/>
<path d="M221.528 106.34C221.528 105.512 222.206 104.835 223.033 104.835C223.786 104.835 224.538 105.512 224.538 106.34V117.176C224.538 118.079 223.786 118.756 223.033 118.756C222.206 118.756 221.528 118.079 221.528 117.176V106.34Z" fill="#044269"/>
<path d="M196.321 30.3401C197.224 30.5659 197.6 31.3936 197.374 32.2213C197.149 32.9738 196.246 33.5005 195.493 33.1995L149.667 18.9026L103.842 33.1995C103.014 33.5005 102.186 32.9738 101.885 32.2213C101.66 31.3936 102.111 30.5659 102.864 30.3401L149.216 15.8174C149.442 15.7422 149.818 15.7422 150.119 15.8174L196.321 30.3401Z" fill="#044269"/>
<path d="M71.0336 43.7342C70.2811 43.4332 69.8296 42.6055 70.0554 41.7777C70.3564 41.0253 71.1841 40.5738 71.9366 40.7995L149.667 67.2866L227.322 40.7995C228.15 40.5738 228.978 41.0253 229.203 41.7777C229.504 42.6055 229.053 43.4332 228.225 43.7342L150.119 70.2965C149.818 70.3717 149.517 70.3717 149.216 70.2965L71.0336 43.7342Z" fill="#044269"/>
<path d="M71.0336 63.2986C70.2811 63.0729 69.8296 62.1699 70.0554 61.4174C70.3564 60.5897 71.1841 60.2135 71.9366 60.5145L149.667 86.851L227.322 60.5145C228.15 60.2135 228.978 60.5897 229.203 61.4174C229.504 62.1699 229.053 63.0729 228.225 63.2986L150.119 89.8609C149.818 90.0114 149.517 90.0114 149.216 89.8609L71.0336 63.2986Z" fill="#044269"/>
<path d="M70.9584 81.5837C70.2059 81.2827 69.7544 80.455 69.9802 79.7025C70.2812 78.8748 71.1089 78.4986 71.8614 78.7243L85.9326 83.3144C86.6851 83.5401 87.0613 84.4431 86.8356 85.1956C86.6098 85.9481 85.7821 86.3995 84.9544 86.0985L70.9584 81.5837Z" fill="#044269"/>
<path d="M227.623 50.1302C228.376 49.8292 229.203 50.2807 229.504 51.1084C229.73 51.8609 229.278 52.6886 228.526 52.9896L214.154 57.7302C213.326 57.9559 212.498 57.5044 212.197 56.7519C211.972 55.9242 212.348 55.0965 213.176 54.7955L227.623 50.1302Z" fill="#044269"/>
<path fill-rule="evenodd" clip-rule="evenodd" d="M150.194 53.7421L227.473 27.4808C227.699 27.4056 227.849 27.3303 228.075 27.3303C228.903 27.3303 229.58 28.0075 229.58 28.8353V125.603C229.58 126.205 229.129 126.807 228.527 127.033L151.248 153.37C151.022 153.445 150.796 153.52 150.646 153.52C149.818 153.52 149.141 152.843 149.141 152.015V55.2471C149.141 54.5698 149.517 53.9679 150.194 53.7421ZM226.57 30.9422L152.151 56.3758V149.908L226.57 124.475V30.9422Z" fill="#044269"/>
<path fill-rule="evenodd" clip-rule="evenodd" d="M71.9365 27.4056L151.097 53.7421C151.699 53.9679 152.15 54.5698 152.15 55.2471V152.015C152.15 152.843 151.473 153.52 150.645 153.52C150.419 153.52 150.269 153.445 150.118 153.445L70.9582 127.033C70.3563 126.807 69.9048 126.205 69.9048 125.603V28.8353C69.9048 28.0075 70.6573 27.3303 71.4097 27.3303C71.6355 27.3303 71.8612 27.3303 71.9365 27.4056ZM149.14 56.3758L72.9147 30.9422V124.475L149.14 149.908V56.3758Z" fill="#044269"/>
<defs>
<linearGradient id="paint0_linear_142_1880" x1="29.106" y1="86.1523" x2="52.0359" y2="4.06328" gradientUnits="userSpaceOnUse">
<stop stop-color="#3546D7"/>
<stop offset="1" stop-color="#C38BF5"/>
</linearGradient>
<linearGradient id="paint1_linear_142_1880" x1="5.45586" y1="109.095" x2="29.0521" y2="25.9266" gradientUnits="userSpaceOnUse">
<stop stop-color="#3546D7"/>
<stop offset="1" stop-color="#C38BF5"/>
</linearGradient>
<linearGradient id="paint2_linear_142_1880" x1="24.0341" y1="118.476" x2="96.4256" y2="-49.4621" gradientUnits="userSpaceOnUse">
<stop stop-color="#3546D7"/>
<stop offset="1" stop-color="#C38BF5"/>
</linearGradient>
<linearGradient id="paint3_linear_142_1880" x1="177.7" y1="97.5439" x2="211.492" y2="19.0761" gradientUnits="userSpaceOnUse">
<stop stop-color="#3546D7"/>
<stop offset="1" stop-color="#C38BF5"/>
</linearGradient>
<linearGradient id="paint4_linear_142_1880" x1="23.9116" y1="155.526" x2="70.9651" y2="37.7249" gradientUnits="userSpaceOnUse">
<stop stop-color="#3546D7"/>
<stop offset="1" stop-color="#C38BF5"/>
</linearGradient>
<linearGradient id="paint5_linear_142_1880" x1="104.952" y1="126.646" x2="127.09" y2="42.065" gradientUnits="userSpaceOnUse">
<stop stop-color="#3546D7"/>
<stop offset="1" stop-color="#C38BF5"/>
</linearGradient>
</defs>
</svg>
