<svg width="201" height="206" viewBox="0 0 201 206" fill="none" xmlns="http://www.w3.org/2000/svg">
<path fill-rule="evenodd" clip-rule="evenodd" d="M169.419 175.765C167.848 174.045 166.283 172.32 164.701 170.6C164.437 170.313 164.133 170.061 163.543 170.256C164.947 171.856 166.306 173.392 167.734 175.014C166.742 175.003 166.146 174.487 165.612 173.885C164.787 172.956 163.979 172.005 163.182 171.053C162.849 170.657 162.505 170.589 161.984 170.732C159.066 171.54 156.125 172.286 153.201 173.077C152.461 173.272 151.756 173.18 151.045 172.991C144.575 171.248 138.104 169.503 131.634 167.757C131.342 167.676 131.043 167.596 130.763 167.499C130.092 167.264 129.897 166.937 130.224 166.192C130.837 164.816 130.453 163.319 130.493 161.875C130.505 161.405 130.017 161.651 129.759 161.657C127.936 161.686 126.119 161.829 124.302 161.582C124.193 161.571 124.084 161.542 123.986 161.382C125.764 161.382 127.535 161.387 129.312 161.37C129.691 161.37 130.27 161.582 130.407 161.238C130.585 160.791 130.43 160.235 129.977 159.868C129.748 159.496 129.364 159.57 129.014 159.564C127.403 159.559 125.792 159.519 124.187 159.576C123.528 159.599 123.373 159.283 123.235 158.773C123.126 158.383 123.23 158.297 123.597 158.297C127.059 158.274 130.487 158.229 133.916 159.043C138.118 160.052 142.4 160.728 146.648 161.548C146.814 161.577 146.986 161.548 147.164 161.491C143.295 160.573 139.488 159.467 135.647 158.464C134.474 158.158 133.304 157.837 132.138 157.501C130.797 157.111 130.132 154.823 131.026 153.728C131.353 153.327 131.737 153.373 132.179 153.465C135.796 154.256 139.408 155.03 143.025 155.804C143.552 155.918 144.08 156.004 144.642 155.987C142.538 155.23 140.434 154.479 138.336 153.717C137.997 153.596 137.659 153.442 137.355 153.253C137.063 153.075 137.006 152.805 137.16 152.467C137.785 151.114 137.602 149.692 137.286 148.334C137.034 147.233 137.246 146.78 138.359 146.729C142.658 146.505 146.946 146.138 151.229 145.714C152.834 145.559 154.365 145.989 155.93 146.121C156.858 146.201 157.781 146.367 158.71 146.534C157.81 146.706 156.898 146.534 156.05 146.356C152.352 145.582 148.689 146.339 145.02 146.522C143.747 146.585 142.48 146.723 141.213 146.803C140.829 146.826 140.457 146.843 140.09 147.084C143.415 147.623 146.706 148.116 149.979 148.701C151.275 148.936 152.524 148.701 153.786 148.586C157.586 148.236 161.387 147.818 165.188 147.422C165.28 147.415 165.37 147.403 165.458 147.388C167.596 147.073 168.358 147.864 167.751 149.905C167.435 150.965 167.332 152.158 168.106 153.218C168.496 153.757 167.946 154.055 167.527 154.198C167.08 154.353 166.581 154.376 165.985 154.485C166.478 155.053 166.283 155.58 166.071 156.125C165.675 157.162 165.933 157.965 166.558 158.962C167.051 159.754 167.693 159.61 168.249 159.937C168.198 160.241 167.854 160.166 167.728 160.407C168.141 160.527 168.593 160.556 168.955 160.866C168.817 161.141 168.502 160.912 168.347 161.112C168.628 161.192 168.903 161.273 169.178 161.364C169.327 161.41 169.597 161.382 169.499 161.657C169.471 161.749 169.247 161.766 168.983 161.869C169.413 161.909 169.711 161.938 170.004 161.966C170.021 162.247 169.643 162.075 169.694 162.379C169.82 162.523 170.044 162.448 170.239 162.477C170.474 162.511 170.984 162.402 170.342 162.786C170.199 162.872 170.537 163.004 170.692 163.016C170.973 163.038 171.431 163.153 171.374 163.325C170.996 164.552 172.108 164.231 172.584 164.558C172.629 164.592 172.652 164.655 172.687 164.701C172.629 164.936 172.343 164.753 172.24 164.976C172.67 165.074 172.991 165.435 173.461 165.423C173.283 166.255 174.235 165.716 174.361 166.203C174.149 166.444 173.719 166.237 173.489 166.616C174.269 166.702 175.003 166.885 175.719 167.436C175.438 167.527 175.215 167.596 174.968 167.671C175.438 168.015 176.098 167.888 176.436 168.41C176.109 168.657 175.817 168.187 175.467 168.393C176.103 168.817 176.958 168.748 177.623 169.224C177.221 169.551 176.837 169.293 176.39 169.476C177.239 169.78 178.001 170.05 178.764 170.319C178.76 170.357 178.754 170.396 178.746 170.434C178.448 170.434 178.152 170.434 177.858 170.434C178.855 170.87 179.698 171.506 180.523 172.171C180.168 172.543 179.641 172.05 179.113 172.24C180.185 172.681 181.229 173.054 182.186 173.644C181.968 173.885 181.745 173.598 181.504 173.776C181.676 174.063 182.048 174.04 182.375 174.275C181.934 174.309 181.601 174.338 181.143 174.372C182.031 174.739 182.948 174.653 183.596 175.307C183.292 175.536 182.983 175.238 182.582 175.421C183.315 175.754 184.055 175.823 184.726 176.253C184.164 176.407 183.711 175.966 183.166 176.258C183.992 176.493 184.806 176.66 185.402 177.405C185.144 177.422 184.921 177.439 184.634 177.457C185.098 177.875 185.74 177.611 186.159 178.036C185.918 178.345 185.58 178.058 185.287 178.242C185.878 178.752 186.726 178.58 187.432 179.09C186.875 179.348 186.394 179.131 185.912 179.148C186.165 179.601 186.738 179.452 187.036 179.933C186.388 180.031 185.878 179.618 185.305 179.635C185.385 180.048 185.93 179.887 186.061 180.323C184.571 180.082 183.092 180.042 181.584 179.32C181.796 179.652 181.939 179.876 182.106 180.139C180.77 179.864 179.503 179.572 178.213 179.016C178.431 179.572 178.924 179.773 179.044 180.346C178.454 180.053 177.932 179.796 177.393 179.526C177.227 179.859 177.732 179.967 177.56 180.311C176.946 180.185 176.465 179.767 175.891 179.434C175.782 179.83 176.184 179.962 176.212 180.248C175.954 180.42 175.765 180.197 175.565 180.117C175.135 179.95 174.768 179.503 174.235 179.962C174.131 180.048 173.787 179.853 173.564 179.778C173.277 179.687 173.048 179.4 172.738 179.864C172.503 180.214 172.09 179.922 171.764 179.755C171.575 179.658 171.15 179.159 171.311 179.956C171.339 180.105 171.139 180.151 171.053 180.059C170.468 179.469 169.631 180.311 169.064 179.698C168.261 180.397 167.716 179.48 166.994 179.366C167.12 179.624 167.229 179.853 167.407 180.208C166.272 179.738 164.953 180.495 164.059 179.325C164.196 179.572 164.34 179.818 164.609 180.3C163.468 179.515 162.259 180.266 161.313 179.526C161.25 179.48 161.066 179.474 161.061 179.492C160.682 180.581 160.269 179.601 159.885 179.509C159.748 179.48 159.49 179.366 159.501 179.492C159.581 180.61 159.077 179.87 158.75 179.75C158.475 179.646 158.12 179.348 158.217 180.048C158.263 180.369 157.902 180.185 157.724 180.191C157.323 180.214 156.956 179.509 156.48 180.139C156.446 180.185 155.89 179.801 155.551 179.675C155.402 179.618 154.949 179.056 155.053 179.847C154.731 179.83 154.399 180.008 154.089 179.824C153.854 179.681 153.745 179.515 153.459 179.876C153.155 180.26 152.765 179.79 152.444 179.641C151.905 179.4 151.578 179.383 151.739 180.145C151.263 180.019 150.896 179.824 150.506 179.52C150.42 179.813 150.747 180.025 150.569 180.323C149.864 180.271 149.417 179.71 148.678 179.199C148.964 179.692 149.136 179.99 149.302 180.283C149.245 180.311 149.199 180.346 149.153 180.357C148.58 180.478 148.328 179.486 147.497 180.008C147.153 180.225 146.27 179.601 145.57 179.337C145.548 179.687 145.525 179.973 145.502 180.317C145.026 179.996 144.602 179.715 144.183 179.434C144.011 179.606 144.091 179.738 144.154 179.876C144.235 180.042 144.332 180.266 144.16 180.369C143.965 180.483 143.77 180.334 143.604 180.18C143.277 179.876 143.019 179.486 142.566 179.303C142.372 179.675 142.859 179.893 142.71 180.3C142.142 180.203 141.798 179.646 141.254 179.52C140.95 180.397 140.755 180.38 139.345 179.354C139.218 179.652 139.769 180.036 139.31 180.231C138.915 180.403 138.674 180.002 138.439 179.732C138.278 179.555 138.169 179.32 137.871 179.297C137.774 179.71 138.238 179.979 138.158 180.426C137.802 180.449 137.556 180.225 137.281 180.053C136.983 179.87 136.765 179.09 136.26 179.939C136.123 180.168 135.653 179.939 135.412 179.658C135.028 179.217 134.747 179.148 134.655 179.87C134.575 180.483 134.323 180.409 134.002 179.99C133.841 179.784 133.692 179.549 133.405 179.474C133.136 179.75 133.463 180.094 133.193 180.392C132.66 180.277 132.482 179.646 131.972 179.434C131.703 179.618 132.024 180.076 131.686 180.191C131.336 180.311 131.198 179.91 130.946 179.778C130.613 179.601 130.287 179.234 130.189 180.013C130.115 180.615 129.805 180.168 129.587 180.042C129.243 179.847 128.836 179.274 128.699 180.231C128.653 180.541 128.418 180.466 128.246 180.26C128.097 180.071 127.948 179.876 127.781 179.698C127.644 179.555 127.621 179.285 127.352 179.291C126.956 179.658 127.839 180.208 127.266 180.42C126.847 180.569 126.583 180.013 126.297 179.715C126.257 179.669 126.079 179.664 126.062 179.692C125.351 180.936 124.944 179.796 124.434 179.486C124.307 179.411 124.193 179.325 124.055 179.234C123.797 180.432 123.797 180.432 122.524 179.583C122.158 179.692 122.542 180.311 122.072 180.311C121.699 180.317 121.653 179.922 121.47 179.698C121.298 179.492 121.177 179.228 120.822 179.308C120.667 179.71 121.229 180.266 120.85 180.432C120.398 180.633 120.174 179.95 119.801 179.71C119.704 179.646 119.618 179.56 119.492 179.452C118.752 181.361 118.282 179.331 117.64 179.36C117.405 179.555 117.783 179.996 117.365 180.117C116.981 180.225 116.843 179.887 116.637 179.681C116.494 179.538 116.373 179.28 116.132 179.411C115.909 179.532 116.001 179.79 116.012 179.996C116.029 180.174 116.115 180.392 115.897 180.472C115.639 180.564 115.53 180.34 115.421 180.157C115.33 179.996 115.221 179.847 115.123 179.698C115.032 179.549 114.997 179.302 114.774 179.348C114.585 179.388 114.562 179.601 114.521 179.79C114.384 180.461 114.051 180.329 113.759 179.916C113.369 179.366 113.065 179.262 112.75 179.962C112.635 180.214 112.349 180.38 112.194 180.071C111.603 178.918 111.34 179.761 110.996 180.231C110.961 180.271 110.893 180.283 110.784 180.34C110.422 179.469 109.998 179.371 109.471 180.243C109.282 180.552 109.098 180.415 109.006 180.082C108.938 179.83 109.098 179.538 108.817 179.251C108.531 179.664 108.255 180.059 107.975 180.461C107.115 179.394 107.115 179.394 106.541 180.214C106.031 179.543 105.481 179.022 104.816 180.025C104.122 179.767 103.428 179.641 102.752 180.071C102.339 179.159 102.156 179.583 101.903 180.185C101.772 180.512 101.651 180.443 101.193 179.646C100.906 179.767 101.124 180.139 100.849 180.294C100.797 180.283 100.711 180.277 100.642 180.237C100.315 180.042 100.109 179.102 99.5817 180.082C99.5014 180.237 99.1976 180.099 99.1116 179.962C98.5039 178.993 98.16 179.555 97.7873 180.231C97.3803 179.71 96.9618 179.234 96.3427 179.979C96.1707 180.185 95.9299 179.973 95.8439 179.778C95.4942 178.993 95.0069 179.463 94.8464 179.784C94.4107 180.644 94.1584 180.18 93.8374 179.744C93.7571 179.629 93.717 179.446 93.5106 179.492C93.1667 179.704 93.6654 180.34 93.1667 180.357C92.5876 180.375 92.8112 179.618 92.4501 179.348C92.2265 179.36 92.1577 179.56 92.1004 179.704C91.8882 180.271 91.6819 180.438 91.3207 179.796C91.0971 179.394 90.8563 179.429 90.5869 179.818C90.3117 180.208 89.9964 180.34 89.7614 179.727C89.5493 179.182 89.1136 179.377 88.9186 179.669C88.5575 180.22 88.3339 180.323 88.0014 179.675C87.8179 179.32 87.5772 179.406 87.3822 179.692C87.2619 179.87 87.1472 180.048 87.0268 180.22C86.9408 180.346 86.8491 180.489 86.6714 180.438C86.3962 180.363 86.5567 180.151 86.551 179.99C86.5338 179.75 86.7746 179.4 86.3733 179.303C86.0751 179.234 86.0178 179.572 85.8917 179.767C85.6223 180.174 85.3643 180.73 85.0948 179.773C84.9917 179.411 84.8082 179.463 84.5617 179.646C83.6158 180.357 83.61 180.357 83.3635 178.89C82.9622 179.36 82.6699 179.727 82.3488 180.059C82.2227 180.191 81.9991 180.438 81.8845 180.042C81.7067 179.4 81.4201 179.538 81.0475 179.876C80.8468 180.059 80.5831 180.283 80.3194 180.139C79.9296 179.916 80.5086 179.629 80.2965 179.291C79.9066 179.44 79.5053 179.601 79.3104 180.031C79.2015 180.266 79.0868 180.529 78.8174 180.472C78.4161 180.397 78.6798 180.025 78.6053 179.796C78.5823 179.715 78.5709 179.629 78.5537 179.543C77.2409 180.386 77.2409 180.386 76.9657 179.492C76.6332 179.71 76.3351 179.973 75.9911 180.122C75.1656 180.466 75.7217 179.612 75.3777 179.44C74.9019 179.721 74.3859 180.031 73.8585 180.34C73.6751 179.979 74.0534 179.669 73.8356 179.337C73.2394 179.612 72.9412 180.3 72.2705 180.529C72.0699 180.059 72.6833 179.778 72.4884 179.308C72.173 179.234 72.0641 179.549 71.8921 179.71C71.5539 180.025 71.3475 180.512 71.015 179.624C70.8373 179.148 70.3615 179.704 70.0863 179.87C69.7366 180.094 69.5818 180.403 69.4041 179.698C69.2665 179.153 68.7792 179.423 68.4524 179.664C67.5467 180.34 67.5467 180.346 67.3231 179.28C66.853 179.641 66.6179 180.266 65.844 180.483C66.0389 180.025 66.1765 179.687 66.3542 179.268C65.5918 179.411 65.3051 180.22 64.5943 180.323C64.3019 180.099 64.6458 179.755 64.4567 179.469C63.9866 179.71 63.6598 180.185 63.1209 180.323C62.8973 179.945 63.4362 179.646 63.1782 179.28C62.8285 179.268 62.7311 179.652 62.4444 179.744C62.2725 179.796 62.0317 179.996 61.9629 179.939C61.1775 179.331 60.5239 179.761 59.9048 180.266C59.6698 179.807 60.1742 179.687 60.1169 179.262C59.6296 179.784 58.9703 179.962 58.5347 180.615C58.3397 179.962 58.9359 179.641 58.827 179.079C58.334 179.572 57.8639 180.019 57.2964 180.334C57.0671 180.076 57.3422 179.778 57.153 179.497C56.9295 179.532 56.6772 179.572 56.425 179.601C56.1441 179.629 55.7886 180.988 55.5994 179.555C55.4676 179.595 55.33 179.629 55.2096 179.687C54.8828 179.836 54.5675 179.996 54.2522 180.145C53.9541 179.824 54.4013 179.578 54.2866 179.228C53.9025 179.411 53.4898 179.543 53.1458 179.778C52.8534 179.973 52.7445 179.967 52.4063 179.778C51.9018 179.486 51.3056 179.945 50.6348 179.962C50.7552 179.738 50.8584 179.532 51.0419 179.194C50.6062 179.474 50.3023 179.658 50.0099 179.853C49.7577 180.025 49.5398 180.42 49.2589 179.864C49.1844 179.732 48.9895 179.87 48.8519 179.933C48.6627 180.031 48.5882 180.386 48.2156 180.053C47.8028 179.692 48.4793 179.624 48.2041 179.354C48.0378 179.497 47.8257 179.681 47.6136 179.864C47.5219 179.945 47.4302 180.031 47.2983 179.962C46.5244 179.589 45.3778 179.555 44.4262 179.887C44.1969 179.698 44.5351 179.503 44.4147 179.308C44.3287 179.222 44.2599 179.314 44.2026 179.366C43.8471 179.669 43.572 180.248 43.0102 179.583C42.8152 179.348 42.6433 179.652 42.4827 179.755C42.1846 179.945 41.8923 180.151 41.4795 180.266C41.6457 179.979 41.812 179.692 42.047 179.28C41.4394 179.606 40.9406 179.87 40.4476 180.134C40.2125 179.847 40.5966 179.578 40.3845 179.297C39.903 179.572 39.4099 179.939 38.8137 179.629C38.143 179.28 37.8105 180.025 37.2659 180.099C37.0194 179.75 37.4321 179.555 37.4493 179.188C36.8588 179.543 36.3199 179.87 35.718 180.237C35.7352 179.761 36.2454 179.732 36.234 179.228C35.6091 179.784 34.8523 179.876 34.1931 180.203C33.9294 179.887 34.2733 179.669 34.2332 179.331C33.7688 179.612 33.1726 179.526 32.7025 180.369C32.8917 179.297 32.4675 179.383 32.0719 179.624C31.6821 179.864 31.2751 180.025 30.7132 180.214C30.8336 179.841 30.9196 179.578 31.0629 179.125C30.6215 179.423 30.3349 179.704 29.9508 179.721C29.7788 179.732 29.3488 180.472 29.4348 179.555C29.4463 179.423 29.1252 179.543 28.9647 179.612C28.4144 179.847 27.864 180.082 27.1188 180.397C27.3309 180.059 27.4398 179.882 27.6003 179.629C26.9468 179.658 26.4881 180.036 25.9779 180.197C25.783 179.778 26.3219 179.675 26.1958 179.297C25.5422 179.675 24.7626 179.675 24.132 180.162C23.9485 179.761 24.3899 179.715 24.4301 179.434C23.6561 179.538 23.0313 179.95 22.3548 180.3C22.1885 179.91 22.7331 179.675 22.5554 179.274C22.2115 179.738 21.6267 179.778 21.1452 180.225C21.2082 179.646 21.7299 179.652 21.879 179.257C21.0133 179.366 20.2164 179.566 19.54 180.071C19.3393 179.773 19.6947 179.669 19.5973 179.383C19.1043 179.853 18.5081 179.95 17.9405 180.168C17.929 179.796 18.3819 179.818 18.4163 179.509C17.5048 179.859 16.5474 180.036 15.59 180.099C15.4754 180.105 14.7015 180.908 14.7874 179.807C14.7932 179.692 14.0938 180.105 13.5893 180.031C14.002 179.497 14.5581 179.434 15.097 179.285C14.5123 179.257 13.9275 179.222 13.188 179.182C13.7727 178.443 14.6441 178.615 15.355 178.219C14.9537 178.179 14.6327 178.144 14.2371 178.104C14.7645 177.56 15.5155 177.76 16.0372 177.376C15.7735 177.141 15.4926 177.376 15.2002 177.285C15.4295 176.442 16.341 176.814 16.8169 176.356C16.4328 176.321 16.0831 176.298 15.5614 176.253C16.2952 175.783 17.0691 175.966 17.6653 175.496C17.35 175.467 17.0691 175.439 16.7481 175.41C17.264 174.682 18.0838 174.957 18.9839 174.647C18.4049 174.556 18.0781 174.498 17.7227 174.441C18.1068 173.919 18.9323 174.412 19.2361 173.661C18.8635 173.621 18.4966 173.581 17.929 173.518C18.7374 173.226 19.3737 172.996 20.0158 172.767C19.9183 172.526 19.5801 172.796 19.4368 172.543C19.9871 172.555 20.5145 172.521 21.0706 172.125C20.4916 172.085 20.0101 172.056 19.4712 172.016C19.7979 171.764 20.1075 171.397 20.4916 171.552C21.0706 171.775 20.7897 171.139 21.1108 171.036C21.4834 170.904 21.8618 170.881 22.2516 170.812C22.1885 170.302 21.5751 170.589 21.4318 170.164C22.2631 169.952 23.0943 169.734 23.9772 169.505C23.5128 169.253 22.9911 169.471 22.5554 169.052C23.272 168.748 23.9714 168.622 24.7454 168.628C24.4702 168.278 24.046 168.49 23.7823 168.209C24.2122 167.734 24.8944 168.032 25.3473 167.676C25.1295 167.407 24.6995 167.516 24.3957 167.264C25.0148 166.707 25.8403 166.965 26.4881 166.621C26.362 166.329 26.0066 166.444 25.8403 166.237C25.8117 166.106 25.9149 166.094 25.9951 166.088C26.6257 166.037 27.1245 165.114 26.8035 164.558C22.9739 157.845 20.9445 150.518 19.5342 142.997C18.1698 135.722 17.2698 128.372 16.4328 121.017C15.613 113.857 15.2919 106.673 15.527 99.4729C15.7219 93.6025 16.3238 87.7894 18.1583 82.1655C20.2623 75.7275 23.7536 70.1437 28.9017 65.7524C31.556 63.4937 33.2299 60.8164 34.0268 57.5086C34.2275 56.6945 34.5313 56.6143 35.1734 57.0442C35.5288 57.2793 35.9301 57.4341 36.3085 57.629C37.3977 58.1965 37.3633 58.1736 38.0169 57.0958C39.5475 54.5619 40.0062 51.7987 39.9144 48.8864C39.8342 46.45 40.1896 44.0536 40.5508 41.6458C40.717 40.5394 40.5221 39.3355 40.6196 38.166C40.8661 35.3512 41.4107 32.5822 41.812 29.7846C41.9381 28.8788 42.4827 28.4202 43.2509 28.0934C46.3008 26.7692 49.5169 26.236 52.8076 26.0526C58.913 25.72 64.686 26.9698 70.1551 29.6757C70.2621 29.7292 70.371 29.7808 70.4819 29.8305C72.0125 30.5356 72.861 31.5847 72.8725 33.4135C72.8839 36.171 73.1476 38.9342 73.1304 41.6974C73.1247 42.0299 73.2623 42.4828 72.603 42.328C72.0813 42.2077 72.2246 42.6548 72.196 42.9185C72.024 44.7014 71.8405 46.4844 71.703 48.273C71.6456 49.0183 71.3647 49.6087 70.7857 50.0731C69.685 50.956 69.4328 52.1083 69.7366 53.4325C70.1035 55.0549 70.4876 56.6773 70.8545 58.2997C71.1239 59.4692 70.7628 59.9393 69.5646 60.0368C69.1977 60.0654 68.8365 60.0884 68.4754 60.1285C67.4549 60.2374 67.0479 60.6616 66.9562 61.6993C66.9504 61.7566 66.9447 61.8197 66.9504 61.877C67.0536 62.8917 65.8383 62.6108 65.6835 63.0866C65.4828 63.6771 65.8039 64.4166 64.8522 64.6345C63.9636 64.8409 63.4993 65.4142 63.4018 66.3773C63.247 67.8506 62.3642 68.5213 60.8564 68.4296C59.8589 68.3666 58.9875 67.9309 58.1391 67.4493C56.9295 66.7556 55.7313 66.039 54.5274 65.3282C53.9197 64.967 53.3636 65.0759 52.8534 65.5173C51.9476 66.297 51.2769 67.2831 50.4915 68.1659C50.2106 68.4812 50.4858 68.5959 50.6864 68.7048C51.4355 69.1099 52.1884 69.5036 52.9451 69.8858C53.9943 70.4132 54.0057 70.4132 53.4382 71.3935C52.9165 72.2878 52.4235 73.1993 51.833 74.0421C51.3973 74.6669 51.34 75.2803 51.4431 76.0084C52.8076 85.823 55.8746 95.1847 58.9818 104.535C59.1595 105.074 59.0793 105.315 58.655 105.647C57.5314 106.524 56.4651 107.464 55.3701 108.387C54.6707 107.115 52.6814 106.306 51.3514 106.731C50.1246 107.126 48.892 107.51 47.5792 107.923C47.9691 108.399 48.4621 108.439 48.9207 108.45C49.7692 108.479 50.6291 108.479 51.4718 108.405C52.5381 108.307 53.593 108.187 54.5618 108.76C53.593 110.107 53.6789 111.185 54.9287 112.848C54.9574 112.819 55.0204 112.779 55.0147 112.767C54.2809 111.197 55.0434 110.176 56.1785 109.156C61.5329 104.311 66.2109 98.8423 70.7054 93.2069C71.0036 92.8285 71.2615 92.41 71.5424 92.0145C72.3852 90.8163 72.6661 89.5551 72.3909 88.0645C71.9093 85.4733 71.7316 82.8763 72.3508 80.222C72.8266 78.1582 72.9986 76.0313 73.7954 74.0363C73.8184 73.9847 73.8298 73.9217 73.8528 73.8643C74.3229 72.5859 74.8331 72.1445 75.6471 72.3165C76.4899 72.4942 76.9829 73.3598 76.9084 74.5637C76.8338 75.7275 76.53 76.8397 76.1516 77.9346C75.8765 78.72 75.7217 79.5169 75.865 80.3482C76.0599 81.4546 76.7765 81.8788 77.8428 81.5635C78.5365 81.3571 79.0868 80.9272 79.5856 80.4399C81.1163 78.9494 82.4233 77.2639 83.5756 75.481C84.4012 74.2026 84.4184 72.649 84.791 71.2158C85.0547 70.1896 85.3184 69.1634 85.6108 68.143C85.7083 67.7933 85.886 67.4665 86.1382 67.1971C86.4707 66.8359 86.8663 66.618 87.3536 66.7499C87.8409 66.8818 87.9555 67.3518 88.0186 67.7589C88.1848 68.8022 88.2938 69.8628 88.4142 70.9119C88.8212 74.386 88.6549 77.82 87.7663 81.2081C87.7147 81.4087 87.7205 81.6208 87.7721 81.8444C88.3855 80.5431 88.781 79.1787 88.9817 77.7627C89.3601 75.1256 89.2167 72.5114 88.6664 69.903C88.5689 69.4558 88.2594 68.8882 88.8097 68.4697C88.9932 68.3322 89.2339 68.3092 89.4174 68.4067C89.9678 68.7105 89.899 69.2723 89.9047 69.7826C89.9849 73.6121 89.9849 77.4302 88.7467 81.1393C88.0702 83.1744 87.0784 84.9574 85.5305 86.4536C82.1883 89.6984 79.0639 93.1266 76.4497 97.002C76.014 97.6556 75.9796 98.1257 76.3408 98.7907C77.9116 101.669 79.4193 104.581 80.9959 107.453C81.3685 108.135 81.3628 108.588 80.8296 109.207C76.7134 113.925 72.4884 118.535 68.0225 122.932C67.0708 123.872 66.0275 124.732 64.7204 125.139C64.1815 125.305 64.0783 125.569 64.2102 126.067C64.5828 127.478 65.0299 128.854 65.6434 130.184C66.1421 131.267 66.1134 131.279 65.0127 131.703C59.2627 133.95 54.1433 137.224 49.4539 141.202C48.829 141.73 48.1926 142.245 47.6193 142.847C54.0936 139.19 60.5679 135.532 67.0422 131.875C67.0995 131.959 67.1549 132.045 67.2084 132.133C63.4076 134.718 60.0424 137.82 56.7689 141.042C60.9348 138.37 65.1007 135.699 69.2665 133.027C69.3391 133.084 69.4136 133.142 69.4901 133.199C69.2722 134.535 68.9283 135.836 68.3206 137.086C70.1952 135.785 71.3131 133.864 72.5113 131.898C73.1419 133.348 73.8757 134.615 75.1255 135.532C74.7471 134.839 74.3687 134.145 73.8986 133.279C77.3326 134.764 80.3997 136.495 83.6444 137.923C82.517 136.83 81.3895 135.737 80.2621 134.644C86.0293 135.808 91.2462 138.273 96.6293 140.291C95.6146 139.322 94.382 138.645 93.0749 137.682C96.5548 138.599 99.8282 139.408 102.998 140.583C107.436 142.228 111.833 143.983 116.023 146.207C117.457 146.969 118.769 147.887 119.733 149.234C121.223 151.332 121.59 153.476 120.902 156.394C119.761 154.605 118.5 152.995 117.021 151.561C113.874 148.529 110.084 146.574 106.077 144.997C99.0543 142.228 91.8252 140.193 84.3381 139.178C81.4488 138.789 78.5709 138.405 75.7389 137.682C74.9363 137.482 74.2139 137.103 73.4629 136.782C72.9871 136.576 72.54 136.53 72.0584 136.748C68.9569 138.169 66.0963 139.993 63.1954 142.005C63.8089 142.045 64.1815 141.741 64.5771 141.563C67.6556 140.187 70.8201 139.052 74.0362 138.049C74.2942 137.969 74.5235 137.86 74.8159 137.992C76.4555 138.703 78.1065 139.385 79.9812 140.182C76.6045 141.179 73.7209 142.698 70.8889 144.361C74.6267 143.352 78.4218 142.63 82.5093 142.039C81.3054 142.796 80.3194 143.421 79.3334 144.04C79.3525 144.078 79.3735 144.116 79.3964 144.155C80.8354 143.49 82.2972 142.859 83.7132 142.142C84.3954 141.798 85.0547 141.666 85.8057 141.73C88.1275 141.93 90.4493 142.131 92.8743 142.87C90.4665 143.191 88.311 143.776 86.1898 144.533C87.7434 144.43 89.297 144.476 90.8449 144.361C96.6293 143.942 102.133 145.089 107.43 147.336C110.594 148.678 113.673 150.203 116.31 152.45C118.517 154.33 120.443 156.446 121.573 159.209C122.748 162.093 122.226 164.592 120.163 166.857C118.833 168.318 117.319 169.562 115.525 170.789C117.136 171.139 118.569 171.449 119.996 171.764C120.564 171.884 121.114 172.045 121.636 172.303C121.825 172.4 122.049 172.492 122.072 172.727C122.1 173.014 121.842 173.128 121.63 173.231C120.633 173.702 119.566 173.942 118.5 174.154C115.295 174.796 112.045 174.894 108.8 175.032C106.828 175.118 104.85 175.089 102.89 175.467C107.115 175.467 111.345 175.456 115.576 175.467C126.664 175.496 137.757 175.53 148.844 175.593C149.377 175.593 149.75 175.324 150.191 175.169C151.326 174.762 152.501 174.682 153.694 174.705C154.084 174.71 154.324 174.688 154.508 174.149C154.731 173.501 155.563 173.478 156.211 173.421C156.91 173.358 157.546 173.294 158.251 172.996C160.08 172.211 161.966 172.899 163.824 173.168C163.228 173.197 162.649 173.598 162.047 173.283C161.984 173.994 162.649 173.919 163.015 174.103C163.669 174.435 164.334 174.688 164.609 175.462C164.712 175.748 164.775 175.977 164.38 175.926C161.594 175.599 158.796 176.023 156.01 175.794C155.637 175.765 155.419 175.662 155.333 175.232C155.27 174.923 155.161 174.516 154.731 174.407C154.691 174.487 154.634 174.539 154.64 174.59C154.737 175.783 154.737 175.783 153.528 175.788C136.358 175.794 119.188 175.731 102.018 175.84C91.8137 175.903 81.6036 175.955 71.3934 175.846C63.161 175.754 54.9287 175.823 46.6964 175.805C46.1804 175.805 45.6645 175.805 45.1256 175.805C45.5039 174.699 45.3033 174.298 44.1625 173.977C43.4115 173.759 42.6318 173.707 41.8464 173.937C41.6113 174.005 41.1986 174.303 41.0553 173.908C40.9234 173.541 41.5024 173.73 41.6515 173.358C40.7228 172.922 39.6736 172.819 38.7965 173.14C38.0341 173.415 37.4264 173.346 36.6811 173.145C37.0709 172.727 37.5754 172.744 38.0226 172.629C36.4977 171.598 35.5861 171.873 34.474 173.73C34.044 174.447 33.3962 174.808 32.542 174.946C33.293 174.034 34.0555 173.134 34.8007 172.217C34.9154 172.079 35.2364 171.97 35.0186 171.724C34.8523 171.54 34.56 171.454 34.3708 171.689C32.9204 173.478 30.9368 174.768 29.6011 176.665C29.5724 176.706 29.5839 176.774 29.5781 176.855C30.3635 176.895 31.1432 176.992 31.9286 176.889C32.2382 176.849 32.5305 176.792 32.6681 176.459C32.7541 176.247 32.7484 176.012 32.5821 175.869C32.393 175.697 32.1808 175.817 32.0146 175.972C31.9286 176.052 31.8254 176.149 31.7967 176.253C31.6362 176.751 31.2865 176.809 30.8566 176.677C30.5814 176.597 30.4782 176.356 30.5126 176.104C30.5757 175.685 30.891 175.502 31.2865 175.473C32.0891 175.421 32.8974 175.37 33.7 175.358C34.1415 175.353 34.3135 175.588 34.0899 176.012C33.9638 176.247 33.8204 176.482 33.895 176.774C36.8187 176.121 39.7654 176.362 42.6834 176.356C73.6808 176.31 104.672 176.31 135.67 176.31C143.174 176.304 150.678 176.287 158.183 176.384C160.791 176.413 163.4 176.476 166.014 176.493C165.687 175.358 165.687 175.37 166.845 175.548C167.676 175.679 168.548 175.421 169.35 175.828C169.557 176.207 169.912 176.568 169.453 177.015C169.969 177.015 170.394 177.015 170.904 177.015C170.359 176.556 169.889 176.161 169.419 175.765ZM129.977 159.868C129.981 159.876 129.985 159.883 129.989 159.891L129.966 159.862C129.97 159.866 129.973 159.868 129.977 159.868ZM158.699 173.117C158.607 173.507 159.169 173.472 159.037 173.816C158.911 173.948 158.762 173.896 158.613 173.879C157.77 173.759 156.933 173.776 156.102 173.959C155.826 174.017 155.563 174.114 155.528 174.447C155.494 174.774 155.723 174.928 155.964 175.077C156.337 175.301 156.761 175.33 157.168 175.433C158.114 175.679 159.054 175.077 160.023 175.49C160.332 175.622 160.751 175.335 160.78 174.848C160.355 174.923 159.977 174.699 159.57 174.647C159.444 174.63 159.266 174.521 159.306 174.349C159.323 174.258 159.45 174.177 159.547 174.126C159.759 174.011 160.029 173.793 160.195 173.851C160.969 174.109 161.445 173.518 162.035 173.277C160.923 173.168 159.811 172.899 158.699 173.117ZM163.984 175.198C163.182 174.504 162.27 174.401 161.307 174.286C160.642 174.206 160.803 174.51 160.803 174.842C161.714 175.788 162.459 175.88 163.984 175.198ZM20.5719 177.967C73.698 178.185 126.744 178.11 179.824 178.018C174.945 173.616 170.462 168.834 165.767 164.128C165.486 164.839 165.681 165.24 166.031 165.618C168.341 168.158 170.743 170.6 173.26 172.933C174.808 174.367 176.327 175.823 177.949 177.353C126.033 177.353 74.2713 177.353 22.7561 177.353C24.0116 176.006 25.3301 174.579 26.6659 173.168C27.7838 171.993 28.9189 170.829 30.054 169.666C30.2718 169.442 30.5413 169.23 30.2374 168.909C29.9049 168.559 29.6985 168.926 29.4807 169.098C29.2972 169.253 29.1482 169.454 28.9762 169.625C26.2302 172.406 23.5529 175.261 20.5719 177.967ZM30.547 171.936C30.8738 171.856 31.2235 171.953 31.3439 172.205C31.4872 172.509 31.1375 172.75 30.9254 172.928C30.5069 173.289 30.1801 173.782 29.4979 173.799C29.1711 173.805 28.8558 174.109 28.6666 174.441C29.1826 174.814 29.303 174.103 29.9049 174.109C28.9361 175.186 28.3914 176.373 27.2449 176.992C27.864 177.193 28.2825 176.9 28.6896 176.407C29.9278 174.923 31.0801 173.358 32.5707 172.091C33.7058 171.127 33.6656 171.082 32.1522 170.6C31.791 171.024 32.886 171.179 32.3471 171.638C32.1006 171.85 31.8999 172.148 31.5044 171.833C31.0457 171.471 30.5126 171.173 30.9712 170.462C31.0572 170.325 31.2636 170.193 31.0744 169.998C30.8623 169.786 30.6731 169.969 30.5069 170.067C30.117 170.285 29.8934 170.606 30.2317 171.019C30.461 171.305 30.4438 171.638 30.5413 171.936C30.5413 171.936 30.5432 171.936 30.547 171.936ZM30.5413 171.936C30.5374 171.936 30.5336 171.936 30.5298 171.936C30.5336 171.94 30.5374 171.942 30.5413 171.942C30.5413 171.942 30.5413 171.94 30.5413 171.936ZM29.2227 171.706C28.9934 172.068 28.8845 172.423 28.4144 172.532C28.2424 172.572 28.0819 172.71 28.0933 172.916C28.1105 173.157 28.3399 173.128 28.5004 173.174C28.6781 173.214 28.8615 173.231 29.0221 173.3C29.2342 173.398 29.4176 173.432 29.5896 173.237C29.7731 173.031 29.7215 172.847 29.5208 172.704C29.1539 172.446 29.4291 172.349 29.624 172.205C29.8992 172.005 30.1858 171.884 30.5298 171.936C30.1342 171.592 29.6928 170.967 29.2227 171.706ZM34.9899 113.667C33.5395 110.778 32.1579 107.86 30.8795 104.896C29.5839 101.915 28.3628 98.9111 27.1016 95.9185C25.8403 92.9375 24.5562 89.9621 23.4383 86.6485C24.0288 96.1421 31.8139 109.62 34.9899 113.667ZM43.8127 88.0875C45.4179 93.3789 50.7609 103.388 52.7273 104.856C50.5775 98.8996 48.055 93.1094 43.8127 88.0875ZM52.2228 92.2094C51.7757 85.8459 51.3686 79.471 47.4875 74.0134C49.0698 80.0787 50.3023 86.2358 52.2228 92.2094ZM47.5104 83.2146C46.8282 77.4703 43.549 73.0101 38.4755 70.6941C42.1445 74.5809 44.8504 78.8691 47.5104 83.2146ZM39.5303 76.7766C41.2903 79.8322 46.897 87.1186 48.1582 88.0015C46.3295 83.507 44.2771 79.2589 39.5303 76.7766ZM169.987 172.016C169.998 172.561 170.864 172.417 170.588 172.973C170.428 173.3 170.038 173.507 169.66 173.415C169.281 173.323 168.874 173.094 168.731 172.75C168.576 172.36 169.064 172.326 169.299 172.188C170.743 171.322 170.755 171.236 169.442 170.279C169.27 170.159 169.109 170.01 168.926 169.906C168.679 169.769 168.295 169.7 168.163 169.895C167.711 170.554 166.954 170.623 166.186 170.973C168.049 172.343 169.396 174.063 170.72 175.788C171.792 177.181 173.065 177.067 174.567 176.78C173.942 175.811 173.071 175.244 172.131 174.602C172.423 174.493 172.589 174.441 172.75 174.372C172.956 174.281 173.3 174.475 173.386 174.172C173.478 173.845 173.226 173.604 172.973 173.426C172.733 173.249 172.44 173.128 172.222 172.928C171.941 172.664 171.38 172.847 171.282 172.463C171.047 171.546 170.468 171.999 169.987 172.016ZM67.604 175.427C60.2602 175.1 52.9337 174.951 45.6587 173.724C45.6989 174.464 46.0199 174.665 46.6161 174.659C47.4588 174.653 48.3589 174.55 49.1271 174.911C50.4628 175.536 51.8387 175.45 53.2261 175.439C54.3497 175.427 55.4733 175.427 56.597 175.427C60.266 175.427 63.935 175.427 67.604 175.427ZM28.6093 174.991C28.6208 174.848 28.5462 174.762 28.4144 174.728C28.1679 174.665 27.9443 174.676 27.7608 174.9C27.2965 175.467 26.6544 175.823 26.0868 176.264C25.8633 176.436 25.3015 176.574 25.634 176.958C25.9091 177.273 26.3047 176.952 26.5512 176.683C27.0442 176.144 27.5946 175.685 28.2539 175.364C28.4144 175.284 28.5806 175.198 28.6093 174.991ZM166.805 168.645C167.195 169.121 167.395 169.786 168.135 169.574C168.387 169.499 168.444 169.046 168.347 168.897C167.98 168.347 167.453 168.244 166.805 168.645ZM27.9729 173.145C27.0328 173.243 26.8665 173.874 26.4366 174.418C26.9984 174.418 27.4283 174.418 28.0589 174.418C27.4857 174.005 27.6863 173.627 27.9729 173.145ZM169.138 176.872C168.616 176.333 168.06 176.728 167.785 176.276C167.642 176.041 167.481 175.783 167.149 175.932C167.08 175.96 167.034 176.144 167.051 176.247C167.109 176.562 167.269 176.837 167.619 176.86C168.055 176.895 168.496 176.872 169.138 176.872ZM166.862 169.998C166.392 169.648 165.985 169.431 165.549 169.706C165.274 169.883 165.567 170.067 165.693 170.21C166.191 170.784 166.409 170.119 166.862 169.998Z" fill="url(#paint0_linear_127_2289)"/>
<path fill-rule="evenodd" clip-rule="evenodd" d="M107.172 78.2845C107.332 79.2877 107.619 79.924 108.691 79.7291C107.837 79.9412 107.934 80.4457 108.078 81.0305C108.278 81.8503 108.158 82.7331 108.932 83.4096C109.379 83.7994 109.385 84.5332 109.264 85.1409C109.115 85.869 109.259 86.5856 109.207 87.3079C109.195 87.4857 109.19 87.7723 109.356 87.7952C110.439 87.9615 109.941 88.6666 109.797 89.1539C109.287 90.8852 109.614 92.6567 109.448 94.4052C109.408 94.8237 109.671 94.9211 110.021 94.8925C110.64 94.8523 110.755 95.139 110.554 95.6664C110.485 95.8326 110.525 96.0448 110.445 96.1996C109.19 98.7851 109.809 101.565 109.608 104.26C109.574 104.65 109.648 104.913 110.136 104.862C110.772 104.793 110.743 105.166 110.6 105.601C110.566 105.716 110.548 105.842 110.491 105.951C109.471 107.797 109.66 109.821 109.631 111.816C109.625 112.188 109.574 112.527 110.153 112.538C110.732 112.55 110.6 112.2 110.709 111.856C111.087 110.675 110.806 109.483 110.892 108.302C111.047 106.289 112.211 104.896 113.713 103.715C114.705 102.936 115.794 102.282 116.597 101.273C116.929 100.855 117.055 99.4558 116.705 99.0602C116.104 98.3838 116.109 97.8621 116.769 97.1397C116.688 97.6385 116.574 98.1086 116.889 98.5213C117.267 99.0086 117.737 98.8481 118.253 98.6532C117.617 99.1118 117.199 99.6335 117.434 100.442C117.634 101.124 117.984 101.68 118.546 102.162C119.652 103.108 120.948 103.813 121.888 104.959C122.84 106.112 123.378 107.407 123.275 108.892C123.207 109.958 123.39 110.99 123.442 112.039C123.447 112.131 123.424 112.274 123.47 112.303C124.215 112.779 125.035 112.429 125.821 112.504C126.331 112.555 126.302 112.143 126.319 111.822C126.337 111.306 126.354 110.784 126.325 110.274C126.291 109.591 126.331 109.03 127.26 109.242C127.311 109.259 127.42 109.253 127.432 109.23C127.707 108.588 128.326 107.854 128.188 107.31C127.191 103.366 127.409 99.645 129.708 96.1766C130.997 94.2332 132.792 92.8344 134.735 91.6305C136.042 90.8222 137.229 89.859 138.244 88.7526C138.57 88.3972 139.356 87.6519 138.634 86.8608C138.582 86.8034 138.599 86.6888 138.582 86.5971C138.49 86.0524 139.155 85.6798 139.052 85.3014C138.937 84.8829 138.444 84.6192 138.903 84.0689C139.098 83.8396 138.932 83.5185 138.553 83.2892C136.558 82.0968 136.472 79.6546 138.467 78.0265C138.066 78.8176 137.751 79.4998 137.877 80.2508C138.009 81.019 138.358 81.6955 139.029 82.1369C140.147 82.8822 141.219 82.6758 142.669 81.3515C142.194 82.4694 141.574 83.1688 140.548 83.3179C139.872 83.4153 139.643 83.5931 140.032 84.2122C140.227 84.5218 140.376 84.797 139.906 85.0148C139.551 85.1811 139.74 85.4161 139.895 85.5995C140.302 86.0811 140.457 86.4939 140.038 87.1302C139.677 87.6691 140.193 88.2825 140.52 88.6494C142.331 90.6846 144.859 91.8369 146.883 93.6083C150.3 96.5951 151.676 100.373 151.005 104.868C150.879 105.745 150.913 106.622 150.512 107.499C150.34 107.877 151.022 109.161 151.263 109.144C152.868 109.047 152.421 110.136 152.432 110.939C152.455 112.515 152.438 112.515 153.998 112.527C156.256 112.538 156.222 112.538 156.251 110.245C156.273 108.823 156.124 107.465 155.557 106.152C155.264 105.481 155.127 104.764 155.07 104.031C155.127 104.002 155.178 103.956 155.236 103.95C156.594 103.836 156.594 103.841 156.583 102.5C156.56 100.281 156.526 98.0627 156.509 95.8498C156.503 95.1963 156.371 94.6001 156.101 94.0039C155.809 93.3675 155.586 92.7025 155.385 92.0375C155.018 90.782 155.035 90.7419 156.354 90.6502C156.933 90.61 156.881 90.2718 156.881 89.9164C156.864 87.4685 157.093 84.9976 156.199 82.6299C156.004 82.1197 155.889 81.598 156.766 81.6382C157.128 81.6496 157.162 81.3343 157.162 81.042C157.156 80.5547 157.214 80.0616 157.139 79.5858C156.944 78.3017 156.875 77.092 157.701 75.9283C157.953 75.5671 157.741 74.8677 157.741 74.3231C157.747 73.7326 157.798 73.1593 158.366 72.8039C158.578 72.672 158.71 72.5459 158.538 72.3051C158.234 71.8809 158.4 71.4395 158.446 70.9866C158.59 69.4616 158.693 67.931 158.842 66.406C158.876 66.0506 158.744 65.9016 158.463 65.7009C157.747 65.1907 157.626 64.6977 158.005 63.746C158.062 64.8926 158.383 65.6608 159.788 65.4487C159.214 65.85 159.083 66.2742 159.226 66.7443C159.444 67.4609 159.684 68.3953 159.576 68.917C159.352 69.9375 160.023 70.8089 159.765 71.6458C159.535 72.3682 159.662 72.7007 160.178 73.1135C160.539 73.4058 160.47 73.8874 160.464 74.3116C160.447 75.1543 160.424 75.9627 160.997 76.7137C161.381 77.2239 161.444 77.9233 161.284 78.5596C161.1 79.3106 161.141 80.0616 161.118 80.8184C161.101 81.2827 161.101 81.7586 161.811 81.684C162.19 81.6496 162.259 81.8789 162.173 82.2114C162.058 82.6815 162.041 83.1918 161.857 83.6332C160.98 85.7773 161.548 88.0131 161.376 90.203C161.324 90.8394 161.857 90.6444 162.155 90.6215C162.918 90.5699 163.113 90.7247 162.929 91.5732C162.637 92.9146 161.714 94.0555 161.691 95.4543C161.651 97.9595 161.68 100.465 161.68 103.05C162.918 102.099 164.15 101.199 165.331 100.235C165.641 99.9832 165.876 99.5819 165.801 99.1061C165.756 98.8022 165.681 98.4812 165.87 98.2175C166.134 97.8563 165.996 97.6672 165.692 97.4206C165.211 97.0193 165.188 96.5149 165.549 95.9416C165.698 97.1627 165.916 97.3518 167.103 97.0595C166.14 97.6328 166.329 98.3551 166.426 99.0545C166.535 99.88 167.154 100.356 167.716 100.832C168.76 101.715 169.952 102.397 170.927 103.366C172.537 104.977 173.237 106.874 172.916 109.15C172.778 110.165 173.202 111.168 173.082 112.194C173.042 112.561 173.369 112.515 173.604 112.515C174.452 112.527 175.306 112.504 176.155 112.532C176.625 112.55 176.705 112.326 176.7 111.93C176.688 108.158 176.694 104.392 176.688 100.625C176.688 100.063 176.407 99.5762 176.224 99.066C175.84 98.0054 175.496 96.9391 175.266 95.8384C175.175 95.4199 175.209 95.1963 175.771 95.1676C177.399 95.0988 177.41 95.0644 177.405 93.3962C177.382 90.0253 177.347 86.6544 177.33 83.2835C177.324 82.5382 177.193 81.8331 176.803 81.191C175.949 79.7922 175.885 78.1985 175.673 76.6391C175.61 76.1347 175.885 76.192 176.201 76.169C178.07 76.0601 178.075 76.0601 178.075 74.2084C178.081 72.7179 178.058 71.2274 178.081 69.7425C178.11 68.1259 178.11 66.5322 177.256 65.0588C176.929 64.5027 177.009 63.8205 176.889 63.1957C176.786 62.651 177.605 62.6338 177.468 61.9688C177.29 61.1032 178.104 61.493 178.482 61.4357C178.901 61.3726 178.998 61.1548 178.975 60.8223C178.878 59.4349 179.113 58.0476 178.798 56.6602C178.425 54.9977 179.056 53.7365 180.598 52.8708C181.034 52.6243 181.183 52.4925 180.764 52.0396C180.242 51.4663 180.575 50.7726 180.747 50.1363C180.798 49.9356 181.034 49.6605 180.97 49.563C180.391 48.6859 181.039 47.8718 181.056 47.0348C181.079 46.1061 181.475 45.1659 180.426 44.3805C179.744 43.8703 179.962 43.0046 180.816 42.0702C180.346 42.9874 180.489 43.6639 181.022 44.2372C181.527 44.7818 182.134 44.5066 182.713 44.3347C182.828 44.4952 182.667 44.5754 182.599 44.5926C181.464 44.8277 181.538 45.6532 181.71 46.4787C181.842 47.1208 181.664 47.8317 182.123 48.3992C182.174 48.4566 182.192 48.6113 182.151 48.6572C181.549 49.4082 182.146 50.0503 182.318 50.7325C182.507 51.472 182.18 52.0166 181.595 52.481C182.071 52.7734 182.524 52.9912 182.914 53.2951C183.923 54.0747 184.318 55.6685 183.888 56.9526C183.447 58.2769 183.757 59.6585 183.653 61.0057C183.619 61.4701 184.049 61.3841 184.33 61.3898C184.834 61.4013 185.029 61.5675 185.092 62.1294C185.155 62.6568 185.815 62.9893 185.654 63.7001C185.522 64.2562 185.54 64.8524 185.247 65.3684C184.674 66.3716 184.513 67.4437 184.536 68.6017C184.588 70.8203 184.548 73.0389 184.508 75.2575C184.496 75.8365 184.588 76.106 185.27 76.1289C186.841 76.1862 186.829 76.2321 186.726 77.7685C186.652 78.8692 186.508 79.9699 185.866 80.8929C185.207 81.8388 185.224 82.9051 185.207 83.9542C185.167 87.2907 185.213 90.633 185.173 93.9695C185.161 94.8409 185.35 95.3167 186.313 95.1504C187.122 95.0186 187.3 95.3683 187.064 96.0906C186.824 96.813 186.72 97.5869 186.394 98.2634C185.683 99.7023 185.568 101.21 185.585 102.775C185.614 105.75 185.585 108.732 185.534 111.707C185.522 112.378 185.694 112.67 186.388 112.561C186.629 112.521 186.875 112.584 187.116 112.578C187.563 112.567 187.735 112.704 187.735 113.215C187.712 118.924 187.718 124.64 187.718 130.35C187.718 132.689 187.684 135.034 187.724 137.373C187.735 138.043 187.592 138.256 186.887 138.244C183.212 138.21 179.537 138.227 175.863 138.227C175.863 138.353 175.863 138.477 175.863 138.6C177.766 138.674 179.669 138.731 181.572 138.817C183.481 138.909 185.39 139.035 187.3 139.144C187.529 139.161 187.838 139.11 187.81 139.482C187.787 139.901 187.449 139.821 187.191 139.809C184.703 139.7 182.215 139.603 179.726 139.471C176.998 139.322 174.269 139.138 171.546 138.984C166.994 138.726 162.459 138.296 157.902 138.187C149.308 137.986 140.709 138.112 132.11 138.187C128.217 138.221 124.33 138.193 120.438 138.284C138.634 138.491 156.824 138.88 174.962 140.44C170.239 140.228 165.515 139.958 160.791 139.815C154.84 139.631 148.884 139.557 142.933 139.414C135.945 139.242 128.962 139.379 121.98 139.781C119.406 139.93 116.837 140.188 114.269 140.417C113.736 140.463 113.254 140.4 112.778 140.147C107.395 137.321 101.645 135.504 95.7692 134.048C95.4482 133.967 95.1214 133.893 94.7946 133.813C93.4933 133.492 93.4875 133.492 93.5793 132.139C93.6251 131.508 93.9634 130.946 93.9806 130.293C93.9863 130.006 94.2901 129.771 94.6398 129.765C94.9207 129.765 95.2762 129.817 95.3163 130.109C95.4596 131.101 96.5661 131.548 96.5087 132.632C96.6043 132.613 96.7017 132.592 96.8011 132.569C96.8011 131.961 96.8011 131.348 96.8011 130.74C96.7954 129.616 96.824 128.487 96.7552 127.369C96.7266 126.853 97.0763 126.096 96.1246 125.93C95.9526 125.901 96.0501 125.609 96.0501 125.431C96.0558 123.723 94.7488 122.02 93.1436 121.653C93.0633 121.636 92.9658 121.625 92.8798 121.636C91.5097 121.883 89.9332 123.82 89.9848 125.236C90.002 125.597 90.2083 125.924 89.6121 126.027C89.3026 126.079 89.4058 126.498 89.4 126.75C89.3771 128.389 89.3828 130.029 89.3427 131.674C89.337 131.961 89.5949 132.448 88.9127 132.431C88.3223 132.414 88.3108 132.03 88.3051 131.628C88.2936 130.017 88.2936 128.407 88.2764 126.796C88.2764 126.429 88.3853 125.987 87.7432 125.976C87.4222 125.976 87.577 125.655 87.577 125.466C87.5426 123.614 86.482 122.169 84.7507 121.642C84.6418 121.613 84.5157 121.59 84.4067 121.613C82.8417 121.98 81.5747 123.849 81.2881 125.408C80.99 127.013 81.1046 128.596 80.99 130.189C80.9556 130.631 80.7033 130.597 80.4396 130.539C78.4847 130.115 76.4954 129.782 74.5864 129.203C73.7379 128.951 73.0901 128.126 72.2933 127.627C71.9092 127.38 71.806 126.681 71.5939 126.176C71.2958 125.454 72.0353 125.305 72.3391 125.001C76.1056 121.286 79.5969 117.314 83.1627 113.415C83.7532 112.773 84.3723 112.509 85.2265 112.538C86.5909 112.578 87.9611 112.515 89.3255 112.538C89.8644 112.544 90.0364 112.378 90.0708 111.81C90.1281 110.795 90.2485 109.781 90.2313 108.754C90.1797 106.352 91.5498 104.741 93.3385 103.389C94.0895 102.827 94.8577 102.288 95.5857 101.697C96.3769 101.061 96.4629 99.559 95.8036 98.8367C95.3392 98.3322 95.2991 97.799 95.7635 97.1799C95.8552 98.7048 96.4113 99.0602 97.6782 98.4755C97.6897 98.6876 97.512 98.7736 97.403 98.9054C97.1909 99.1749 96.5775 99.0946 96.6807 99.5877C96.8126 100.23 96.8355 100.935 97.3285 101.457C98.0681 102.23 98.9223 102.85 99.7936 103.463C102.11 105.085 103.359 107.207 102.907 110.148C102.792 110.876 103.337 111.558 103.228 112.332C103.199 112.544 103.491 112.498 103.663 112.515C105.721 112.739 105.67 112.722 105.756 110.681C105.825 109.001 105.446 107.442 104.965 105.871C104.827 105.418 104.529 104.816 105.486 104.856C105.836 104.868 105.762 104.506 105.762 104.283C105.767 102.311 105.825 100.333 105.721 98.3608C105.676 97.5066 105.263 96.6754 105.074 95.8212C104.976 95.3798 104.798 94.795 105.658 94.8581C106.06 94.8867 106.048 94.5256 106.042 94.2676C106.002 92.5191 106.272 90.7476 105.71 89.0221C105.567 88.5864 105.177 87.9213 106.18 87.8526C106.484 87.8354 106.467 87.4857 106.455 87.2563C106.421 86.5627 106.547 85.8805 106.363 85.1753C106.197 84.5504 106.277 83.8052 106.753 83.3752C107.705 82.5153 107.418 81.3917 107.607 80.3712C107.653 80.0903 107.47 79.9298 107.298 79.7463C106.954 79.3909 106.92 78.9839 107.172 78.2845ZM154.175 133.933C154.749 132.368 155.264 130.797 155.299 129.112C155.305 128.682 155.454 128.326 155.975 128.315C156.48 128.309 156.738 128.63 156.669 129.066C156.583 129.593 156.726 129.937 157.088 130.31C157.334 130.562 157.374 130.963 157.363 131.342C157.351 132.007 157.328 132.678 157.386 133.343C157.409 133.583 157.03 134.128 157.775 134.065C158.263 134.025 158.653 134.065 158.624 133.36C158.544 131.118 158.521 128.871 158.463 126.624C158.458 126.406 158.555 126.039 158.217 126.039C157.586 126.039 157.764 125.632 157.758 125.294C157.735 123.66 156.663 122.215 155.115 121.728C155.012 121.693 154.88 121.682 154.777 121.711C153.138 122.169 152.031 123.729 152.169 125.42C152.186 125.643 152.278 125.907 152.014 125.941C151.378 126.016 151.573 126.48 151.55 126.83C151.383 129.135 151.808 131.434 151.607 133.738C151.601 133.778 151.722 133.83 151.899 133.962C151.681 133.039 152.725 132.397 152.111 131.479C152.014 131.325 152.289 130.763 152.828 131.026C153.269 131.239 153.579 131.531 153.699 132.007C153.866 132.649 154.015 133.291 154.175 133.933ZM113.977 133.79C114.038 133.797 114.097 133.807 114.154 133.818C114.154 132.97 114.149 132.127 114.16 131.284C114.166 130.854 114.143 130.356 114.493 130.098C114.871 129.817 114.917 129.53 114.888 129.117C114.854 128.687 115.049 128.401 115.536 128.481C115.995 128.556 116.276 128.779 116.086 129.295C116.023 129.467 115.932 129.616 116.046 129.805C116.728 130.969 116.591 132.345 117.044 133.572C117.124 133.801 116.941 134.191 117.382 134.168C117.726 134.151 118.162 134.202 118.162 133.641C118.156 133.165 118.517 132.758 118.391 132.23C118.316 131.904 118.609 131.686 118.958 131.669C119.331 131.646 119.469 131.886 119.417 132.19C119.32 132.809 119.87 133.205 119.864 133.973C120.042 133.308 119.79 132.878 119.824 132.431C119.87 131.829 119.635 131.084 120.632 131.009C120.85 130.998 120.856 130.751 120.862 130.568C120.954 128.229 120.558 125.953 119.922 123.711C119.887 123.597 119.83 123.482 119.761 123.385C119.153 122.548 118.316 121.814 117.353 121.797C116.167 121.768 114.819 123.528 114.67 124.783C114.607 125.259 115.026 125.993 114.068 126.096C114.028 126.102 113.982 126.371 113.982 126.515C113.977 128.94 113.977 131.365 113.977 133.79ZM174.768 132.013C175.014 130.144 174.922 128.303 174.871 126.457C174.871 126.343 174.836 126.142 174.779 126.131C174.097 125.976 174.366 125.437 174.343 125.041C174.246 123.539 173.042 122.043 171.58 121.659C171.471 121.63 171.339 121.642 171.23 121.676C169.574 122.158 168.479 123.597 168.456 125.317C168.456 125.517 168.576 125.85 168.37 125.901C167.693 126.068 167.894 126.606 167.877 126.996C167.825 128.149 167.842 129.301 167.842 130.453C167.842 130.826 167.665 131.221 168.014 131.628C168.152 131.273 167.968 130.757 168.536 130.791C169.092 130.826 169.092 131.21 169.092 131.64C169.086 132.104 169.218 132.546 169.551 132.93C169.235 131.995 169.952 131.176 169.797 130.247C169.734 129.868 170.095 129.674 170.474 129.691C170.846 129.708 171.001 129.949 171.024 130.293C171.041 130.528 170.841 130.866 171.058 130.986C171.913 131.445 171.729 132.282 171.861 133.021C171.89 132.076 172.945 131.428 172.549 130.344C172.44 130.046 172.824 129.8 173.231 129.823C173.644 129.851 173.976 130.126 173.885 130.425C173.604 131.296 174.366 131.525 174.768 132.013ZM97.7814 132.632C98.5783 132.471 98.7961 132.047 98.6929 131.399C98.5611 130.574 99.5471 130.086 99.3579 129.221C99.3006 128.963 99.3694 128.647 99.6847 128.544C100.017 128.429 100.361 128.475 100.625 128.716C100.854 128.923 100.843 129.198 100.671 129.456C100.545 129.651 100.493 129.794 100.722 129.977C101.399 130.522 101.531 131.284 101.554 132.104C101.571 132.586 101.685 133.067 101.726 133.549C101.749 133.836 101.903 133.904 102.144 133.876C102.402 133.841 102.396 133.652 102.362 133.463C102.299 133.142 102.23 132.815 102.161 132.488C102.081 132.162 101.972 131.783 102.196 131.525C102.534 131.13 102.677 130.757 102.591 130.23C102.528 129.88 102.78 129.582 103.176 129.547C103.537 129.513 103.99 129.691 103.904 130.035C103.64 131.101 104.764 131.548 104.73 132.718C104.902 132.362 104.976 132.282 104.976 132.202C104.988 130.321 104.999 128.435 104.993 126.555C104.993 126.354 105.022 126.062 104.747 126.039C104.277 125.999 104.38 125.741 104.38 125.414C104.391 124.199 103.961 123.236 102.924 122.462C101.806 121.63 100.923 121.59 99.8223 122.479C98.8363 123.276 98.2802 124.153 98.4178 125.426C98.435 125.603 98.5439 125.878 98.3547 125.919C97.512 126.091 97.8101 126.761 97.7986 127.226C97.7585 129.009 97.7814 130.797 97.7814 132.632ZM166.684 133.738C166.696 133.742 166.705 133.746 166.713 133.75C166.713 131.359 166.719 128.963 166.713 126.572C166.713 126.366 166.742 126.085 166.466 126.05C165.991 125.999 166.105 125.683 166.1 125.385C166.082 123.969 165.532 122.851 164.213 122.215C163.812 122.02 163.439 121.47 163.015 121.693C161.806 122.347 160.499 122.915 160.206 124.566C160.12 125.059 160.648 125.941 159.604 126.119C159.576 126.125 159.564 126.343 159.564 126.463C159.564 128.441 159.564 130.419 159.564 132.397C159.822 131.8 159.472 131.061 160.051 130.602C160.349 130.373 160.51 130.195 160.493 129.811C160.476 129.456 160.625 129.117 161.072 129.163C161.502 129.203 161.685 129.502 161.691 129.92C161.691 130.075 161.467 130.235 161.743 130.373C162.345 130.688 162.247 131.267 162.276 131.806C162.31 132.454 162.173 133.13 162.551 133.927C162.614 133.188 163.302 132.798 162.946 132.099C162.883 131.972 162.975 131.663 163.279 131.663C163.56 131.663 163.806 131.686 163.973 131.978C164.116 132.225 163.967 132.592 164.408 132.832C164.638 131.875 164.403 130.837 165.102 130.081C165.113 130.069 164.993 129.949 164.947 129.868C164.781 129.582 164.747 129.284 164.976 129.031C165.159 128.831 165.429 128.871 165.664 128.934C166.031 129.031 166.008 129.381 166.088 129.662C166.151 129.868 165.836 130.115 166.174 130.298C166.684 130.579 166.679 131.084 166.684 131.565C166.69 132.293 166.684 133.016 166.684 133.738ZM183.172 133.904C183.195 133.761 183.229 133.623 183.229 133.48C183.178 130.705 183.407 127.925 183.023 125.156C182.822 123.666 181.395 121.951 179.916 121.573C179.835 121.556 179.744 121.55 179.663 121.573C178.024 121.963 176.711 123.786 176.803 125.54C176.814 125.712 176.935 125.976 176.677 125.976C175.96 125.976 176.138 126.486 176.132 126.87C176.126 128.659 176.155 130.453 176.132 132.242C176.12 132.93 176.464 133.457 176.711 134.071C176.82 133.973 176.883 133.939 176.9 133.893C176.923 133.813 176.929 133.715 176.935 133.629C177.015 132.379 176.717 131.061 177.577 129.949C177.703 129.782 177.514 129.679 177.479 129.547C177.382 129.158 177.301 128.756 177.703 128.475C177.972 128.292 178.259 128.447 178.471 128.579C178.861 128.819 178.912 129.175 178.677 129.588C178.385 130.103 179.096 130.04 179.17 130.384C179.21 130.556 179.423 130.602 179.618 130.459C179.887 130.258 179.738 130.046 179.698 129.805C179.629 129.398 179.646 128.98 180.202 128.94C180.781 128.894 181.125 129.301 181.034 129.777C180.896 130.476 181.292 130.94 181.498 131.508C181.773 131.376 181.555 130.94 181.951 130.883C182.146 131.967 182.862 132.85 183.172 133.904ZM144.131 133.939C144.131 133.279 144.108 132.66 144.137 132.041C144.166 131.348 144.854 130.86 144.716 130.081C144.664 129.765 145.054 129.622 145.398 129.662C145.777 129.708 145.92 129.92 145.903 130.287C145.886 130.522 145.782 130.774 145.983 130.981C146.631 131.634 146.614 132.465 146.574 133.285C146.539 133.887 146.608 134.225 147.376 134.088C147.921 133.99 148.179 133.927 147.926 133.325C147.818 133.079 148.012 132.758 147.967 132.54C147.766 131.491 148.62 130.579 148.27 129.519C148.127 129.083 148.488 128.825 148.884 128.796C149.245 128.773 149.629 129.003 149.503 129.393C149.205 130.281 149.99 130.402 150.432 131.038C150.432 129.387 150.432 127.971 150.426 126.555C150.426 126.377 150.437 126.119 150.243 126.085C149.744 125.982 149.876 125.632 149.864 125.311C149.83 123.602 148.895 122.324 147.325 121.797C147.17 121.745 147.055 121.751 146.9 121.808C145.203 122.45 144.429 123.614 144.515 125.466C144.521 125.638 144.653 125.884 144.424 125.93C143.862 126.027 143.999 126.452 143.994 126.778C143.948 128.963 143.925 131.147 143.902 133.331C143.902 133.52 143.81 133.761 144.131 133.939ZM109.843 134.002C110.164 133.973 110.222 133.847 110.21 133.732C110.067 132.534 110.634 131.456 110.761 130.304C110.812 129.846 111.122 129.381 111.534 129.278C111.913 129.192 111.959 129.794 112.217 130.04C112.314 130.138 112.291 130.379 112.314 130.556C112.36 130.883 112.457 131.17 112.876 131.376C112.876 130.619 112.893 129.954 112.876 129.289C112.842 127.954 112.744 126.647 112.446 125.305C112.073 123.631 111.42 122.29 109.78 121.745C109.625 121.688 109.505 121.699 109.35 121.756C107.619 122.381 106.696 123.711 106.77 125.511C106.776 125.678 106.914 125.936 106.662 125.959C106.002 126.016 106.209 126.492 106.203 126.842C106.169 128.475 106.151 130.115 106.134 131.755C106.128 132.448 106.134 133.142 106.134 133.944C106.478 133.629 106.329 132.987 106.558 133.125C107.436 133.641 106.983 132.832 107.011 132.683C107.126 131.978 106.77 131.198 107.178 130.551C107.499 130.046 107.934 129.645 107.768 128.957C107.699 128.705 107.883 128.487 108.146 128.412C108.462 128.315 108.76 128.412 108.989 128.624C109.184 128.808 109.19 129.043 109.041 129.289C108.938 129.456 108.628 129.582 108.978 129.868C109.511 130.31 109.528 130.969 109.58 131.611C109.643 132.408 109.752 133.199 109.843 134.002ZM121.813 130.768C121.985 130.551 122.146 130.344 122.473 130.425C122.691 130.47 122.897 130.591 122.897 130.837C122.88 131.818 123.831 132.62 123.401 133.675C123.338 133.836 123.401 133.985 123.596 134.002C123.82 134.025 124.009 133.887 123.935 133.692C123.442 132.46 124.284 131.399 124.353 130.241C124.376 129.92 124.519 129.651 124.909 129.651C125.167 129.645 125.494 129.714 125.442 130C125.259 131.009 126.09 131.846 125.844 132.867C125.775 133.148 125.74 133.497 125.964 133.887C126.142 133.107 125.912 132.328 126.377 131.703C126.635 131.359 126.864 131.049 126.652 130.562C126.514 130.241 126.749 129.972 127.088 129.891C127.449 129.8 127.644 130.017 127.77 130.333C127.867 130.568 127.701 130.883 127.988 131.084C128.303 130.86 128.148 130.533 128.177 130.258C128.389 128.172 127.925 126.165 127.512 124.147C127.242 122.857 126.193 122.416 125.259 121.814C125.121 121.728 124.972 121.802 124.829 121.86C123.241 122.433 122.37 123.7 122.398 125.42C122.398 125.586 122.559 125.844 122.341 125.896C121.607 126.05 121.831 126.612 121.825 127.036C121.796 128.28 121.813 129.524 121.813 130.768ZM136.553 128.292C136.524 128.682 136.478 129.255 136.444 129.828C136.432 129.972 136.386 130.161 136.598 130.184C136.799 130.207 136.937 130.103 136.908 129.863C136.896 129.714 136.891 129.565 136.896 129.421C136.919 129.077 137.028 128.831 137.441 128.871C137.837 128.911 138.077 129.072 138.026 129.507C138.009 129.679 137.883 129.926 137.951 130.006C138.869 130.963 138.479 132.179 138.605 133.285C138.651 133.658 138.49 134.105 139.155 134.065C139.78 134.025 139.557 133.601 139.568 133.274C139.608 132.213 139.648 131.153 139.683 130.092C139.694 129.754 140.308 129.507 139.792 129.077C139.574 128.888 139.648 128.573 139.832 128.332C140.004 128.103 140.233 128.103 140.485 128.154C140.818 128.229 140.881 128.498 140.927 128.768C140.967 129.003 140.904 129.307 141.03 129.473C141.918 130.677 142.056 132.127 142.417 133.509C142.475 133.732 142.383 134.099 142.692 134.094C143.122 134.088 142.939 133.681 142.939 133.451C142.95 131.571 142.985 129.691 142.91 127.81C142.882 127.151 143.334 126.257 142.297 125.873C142.257 125.855 142.274 125.643 142.285 125.529C142.411 123.969 141.781 122.869 140.399 122.112C139.866 121.82 139.534 121.883 139.012 122.1C136.868 122.978 137.378 125.202 136.575 126.75C136.392 127.111 136.553 127.65 136.553 128.292ZM135.503 130.442C135.503 130.132 135.515 129.92 135.498 129.714C135.395 128.309 135.429 126.933 135.096 125.5C134.747 123.975 134.46 122.748 132.981 122.009C132.545 121.791 132.259 121.865 131.829 122.009C129.622 122.765 129.685 124.95 129.364 126.538C128.905 128.814 129.22 131.25 129.209 133.612C129.209 133.858 129.192 134.168 129.547 134.128C129.937 134.082 130.573 134.409 130.682 133.91C131.003 132.431 131.29 130.94 131.668 129.473C131.766 129.1 131.834 128.756 132.31 128.739C132.717 128.722 132.941 128.917 132.929 129.335C132.912 129.742 132.935 130.258 133.422 130.224C133.927 130.189 133.956 129.719 133.852 129.238C133.772 128.837 133.755 128.321 134.391 128.309C135.005 128.292 135.125 128.728 135.114 129.232C135.108 129.616 135.01 130.029 135.503 130.442ZM180.541 97.3748C180.533 97.3748 180.527 97.3748 180.523 97.3748C180.523 97.885 180.529 98.401 180.518 98.9169C180.506 99.5934 181.028 99.3755 181.366 99.387C181.704 99.3985 182.192 99.5762 182.18 98.8997C182.163 97.8678 182.197 96.8416 182.18 95.8155C182.174 95.2823 181.905 94.7721 181.372 94.8122C180.919 94.8409 180.512 95.2307 180.535 95.8326C180.552 96.3429 180.541 96.8588 180.541 97.3748Z" fill="url(#paint1_linear_127_2289)"/>
<path d="M172.945 57.7493C173.042 59.9278 171.752 61.3897 170.359 62.8343C171.305 62.9203 171.305 62.9203 171.832 63.4994C171.036 63.7688 170.485 64.3994 169.654 64.6459C168.846 64.8867 168.026 65.0759 167.269 64.8408C166.581 64.623 165.916 64.623 165.234 64.5599C163.743 64.4281 162.843 63.4936 162.849 62.0432C163.21 62.3413 163.531 62.6452 163.893 62.8974C164.414 63.2586 165.045 63.5051 165.584 63.1095C166.111 62.7254 165.085 62.4216 165.498 61.9171C166.197 62.2267 167.04 62.4674 167.917 62.5534C168.232 62.5821 168.513 62.628 168.519 62.1464C168.53 60.9884 169.287 60.2718 170.118 59.6469C170.944 59.0335 171.764 58.4258 172.446 57.5143C172.48 57.8525 172.503 58.0818 172.538 58.4258C172.704 58.1564 172.824 57.9557 172.945 57.7493Z" fill="url(#paint2_linear_127_2289)"/>
<path d="M126.32 54.7225C128.475 52.2402 131.153 53.3409 132.116 55.8519C131.348 55.8232 130.734 55.399 130.058 55.1868C129.175 54.9117 128.728 55.485 128.034 56.0582C128.556 56.1844 128.917 56.2704 129.278 56.3563C129.467 56.3965 129.622 56.4825 129.645 56.7003C129.668 56.9182 129.519 57.0271 129.353 57.1131C129.192 57.1933 129.02 57.3252 128.854 57.3252C127.77 57.3252 126.664 57.6004 125.62 57.1991C125.219 57.05 124.474 56.7691 125.294 56.15C125.489 56.0009 125.494 55.8519 125.351 55.6971C124.921 55.227 124.525 54.7168 124.032 54.3212C123.539 53.9371 122.96 53.6218 122.272 54.0346C122.737 53.2664 123.373 52.7103 124.25 52.7217C125.477 52.7447 125.844 53.8224 126.32 54.7225Z" fill="url(#paint3_linear_127_2289)"/>
<path d="M145.433 37.0481C144.263 35.592 142.36 35.8729 141.19 34.4454C143.099 34.8123 145.014 34.2505 146.522 35.2251C147.68 35.9704 148.523 36.0793 149.658 35.42C150.266 35.0646 150.369 35.1792 151.223 35.8442C150.632 35.9016 150.157 36.0564 149.772 36.343C149.4 36.6239 148.586 36.4749 148.792 37.4093C148.867 37.7418 147.359 38.3323 146.866 38.08C145.96 37.6042 145.06 37.7074 144.131 37.8737C143.971 37.9023 143.736 38.0227 143.65 37.8049C143.558 37.5813 143.736 37.3806 143.914 37.2775C144.315 37.0367 144.768 36.9793 145.433 37.0481Z" fill="url(#paint4_linear_127_2289)"/>
<path d="M154.668 51.4661C153.854 52.2401 152.822 52.6929 151.916 53.2318C151.848 53.3751 151.876 53.4038 151.968 53.3923C152.45 53.335 153.08 53.3981 153.023 53.9026C152.989 54.2695 152.484 54.6593 151.79 54.602C150.781 54.516 149.744 54.6765 148.718 54.7396C148.597 54.7453 148.477 54.7854 148.362 54.8141C148.047 54.8943 147.777 54.8026 147.72 54.4873C147.628 53.9886 148.058 54.2007 148.276 54.1491C148.523 54.086 148.907 54.2408 148.993 53.9255C149.067 53.6274 148.7 53.5013 148.483 53.358C148.179 53.1573 147.852 52.991 147.542 52.8076C146.568 52.2343 146.304 51.3056 146.252 49.9698C147.565 51.3801 149.411 51.4833 150.65 52.6643C150.948 52.9452 151.131 52.9395 151.481 52.7216C152.455 52.1139 153.516 51.684 154.668 51.4661Z" fill="url(#paint5_linear_127_2289)"/>
<path d="M140.525 139.872C139.774 139.918 139.029 139.975 138.278 140.01C131.158 140.319 124.038 140.589 116.952 141.351C115.971 141.454 115.117 141.443 114.257 140.95C115.656 140.256 137.544 139.299 140.525 139.872Z" fill="url(#paint6_linear_127_2289)"/>
<path d="M104.833 50.956C105.973 50.5088 106.994 50.0445 108.123 49.9757C108.645 49.947 108.771 49.798 108.702 49.2705C108.588 48.3819 108.461 47.4475 109.356 46.6506C109.333 47.287 109.688 47.5851 110.101 47.8832C110.783 48.3819 111.408 48.961 110.674 49.9413C110.927 49.9585 111.076 49.9699 111.225 49.9699C111.437 49.9757 111.695 49.9413 111.746 50.2107C111.804 50.5088 111.442 50.4515 111.334 50.5948C110.508 51.6783 109.396 51.128 108.37 51.2025C107.24 51.2885 106.134 51.3114 105.033 51.0764C105.005 51.0706 104.976 51.0477 104.833 50.956Z" fill="url(#paint7_linear_127_2289)"/>
<path d="M89.5321 131.651C89.5034 130.86 89.5493 130.207 90.4092 130C90.8621 129.891 90.6786 129.553 90.65 129.261C90.6098 128.911 90.713 128.59 91.0111 128.383C91.292 128.183 91.6073 128.269 91.8768 128.412C92.1405 128.55 92.3698 128.877 92.1921 129.077C91.6933 129.633 92.1004 129.886 92.3927 130.31C92.9717 131.152 92.7252 132.19 92.8399 133.142C92.8686 133.394 92.4959 133.314 92.3125 133.268C91.6933 133.119 91.0856 132.901 90.4665 132.786C89.7499 132.649 89.3543 132.339 89.5321 131.651Z" fill="url(#paint8_linear_127_2289)"/>
<path d="M131.519 45.745C132.58 45.917 133.571 46.3068 134.638 46.3469C134.901 46.3526 135.2 46.4616 135.303 46.0775C135.543 45.1659 136.3 44.908 137.074 44.7188C137.802 44.5468 138.547 44.4493 139.39 44.3003C139.069 45.4354 137.756 45.4583 137.389 46.41C137.561 46.6966 138.14 46.2667 138.152 46.731C138.158 47.0692 137.756 47.224 137.504 47.4362C136.896 47.9521 136.231 47.6884 135.601 47.5852C134.082 47.3387 132.591 46.9833 131.519 45.745Z" fill="url(#paint9_linear_127_2289)"/>
<path d="M83.7017 130.551C83.8966 131.227 83.6329 131.376 82.9736 131.141C82.6411 131.015 82.2684 130.992 81.9187 130.895C81.0474 130.66 80.7951 129.84 81.4315 129.158C81.7124 128.859 81.9187 128.647 81.8155 128.189C81.7582 127.902 81.7468 127.489 82.1423 127.329C82.4175 127.22 82.6984 127.306 82.9048 127.495C83.1742 127.753 83.2029 128.08 83.0137 128.407C82.922 128.567 82.8188 128.682 83.0653 128.831C83.6959 129.221 83.736 129.857 83.7017 130.551Z" fill="url(#paint10_linear_127_2289)"/>
<path d="M86.9177 129.61C86.7056 129.914 86.9349 129.971 87.1298 130.069C87.3821 130.201 87.5254 130.447 87.6056 130.705C87.7432 131.152 88.1216 131.663 87.8063 132.064C87.5196 132.437 86.998 132.081 86.6368 131.961C86.1266 131.789 85.2953 132.075 85.2093 131.106C85.1864 130.837 85.152 130.648 85.3985 130.499C85.6909 130.315 85.817 130.069 85.6622 129.736C85.4673 129.324 85.559 128.962 85.8686 128.67C86.0635 128.487 86.3502 128.492 86.5508 128.613C86.9177 128.836 87.0209 129.203 86.9177 129.61Z" fill="url(#paint11_linear_127_2289)"/>
<path d="M158.417 38.5674C159.243 38.3668 160.063 37.633 160.883 38.556C161.003 38.6878 161.164 38.6706 161.295 38.5904C162.379 37.9311 162.981 38.7795 163.697 39.3127C162.826 39.1866 162.012 39.0604 161.192 39.5821C160.659 39.9261 160.39 39.1464 159.885 39.0432C159.409 38.9458 158.974 38.5904 158.417 38.5674Z" fill="url(#paint12_linear_127_2289)"/>
<path d="M145.57 61.9688C146.23 61.3267 146.671 60.312 147.881 60.7248C148.081 60.7936 148.121 60.6503 148.219 60.5413C148.735 59.9394 149.474 59.8649 150.277 60.3866C149.675 60.5815 149.159 60.7649 148.918 61.4299C148.838 61.6535 148.098 61.7452 147.674 61.7108C146.946 61.6478 146.258 61.6592 145.57 61.9688Z" fill="url(#paint13_linear_127_2289)"/>
<path d="M170.486 43.9849C171.902 45.269 173.524 45.5671 175.324 45.0282C175.278 45.3722 175.095 45.4295 174.935 45.5098C174.132 45.9398 173.197 45.9054 172.349 46.1977C171.879 46.3583 170.652 44.9136 170.486 43.9849Z" fill="url(#paint14_linear_127_2289)"/>
<path d="M36.5433 175.937C35.8668 175.857 35.4139 176.138 34.8979 176.333C35.4082 174.819 37.1395 173.535 38.4695 173.656C38.7332 173.679 39.1976 173.575 39.1804 174.011C39.1689 174.303 38.7733 174.303 38.5096 174.309C37.7586 174.321 37.0764 174.493 36.4859 174.986C36.1305 175.29 35.9356 175.576 36.5433 175.937Z" fill="url(#paint15_linear_127_2289)"/>
<path d="M141.54 70.7284C142.039 70.2583 142.28 69.3526 143.3 69.7997C143.61 69.9316 143.661 69.1978 144.171 69.387C144.802 69.622 145.175 69.9889 145.289 70.6654C144.647 70.3673 142.807 70.4418 141.54 70.7284Z" fill="url(#paint16_linear_127_2289)"/>
<path d="M125.626 35.9073C124.875 37.5183 123.281 37.203 122.083 37.7017C123.017 36.6755 124.267 36.2628 125.626 35.9073Z" fill="url(#paint17_linear_127_2289)"/>
<path d="M129.966 159.863C130.006 160.178 129.845 160.155 129.587 160.149C128.251 160.121 126.921 160.126 125.586 160.126C125.379 160.126 125.093 160.086 125.012 160.304C124.892 160.608 125.144 160.659 125.374 160.614C125.569 160.573 125.213 160.356 125.442 160.298C125.591 160.258 125.769 160.218 125.826 160.407C125.867 160.539 125.89 160.694 125.746 160.82C125.379 161.135 124.818 160.952 124.72 160.482C124.691 160.321 124.777 160.08 124.485 160.098C124.29 160.109 124.273 160.27 124.267 160.43C124.267 160.614 124.519 160.889 124.198 160.963C123.883 161.044 123.849 160.711 123.768 160.487C123.723 160.35 123.682 160.212 123.585 159.891C125.786 159.891 127.89 159.891 129.989 159.891L129.966 159.863Z" fill="url(#paint18_linear_127_2289)"/>
<path d="M44.7125 174.653C44.7182 175.473 44.4316 175.828 43.7035 175.834C42.6257 175.846 41.548 175.954 40.4473 175.76C40.7568 175.507 40.7568 175.513 41.7945 175.502C42.299 175.502 42.8035 175.444 43.3079 175.416C43.8583 175.387 44.1392 174.854 44.7125 174.653Z" fill="url(#paint19_linear_127_2289)"/>
<path d="M37.8682 175.743C38.602 175.387 39.4275 175.112 39.3988 174.057C39.3931 173.833 39.5078 173.776 39.6568 173.805C40.1154 173.891 40.5053 174.097 40.746 174.521C40.8263 174.653 40.7288 174.831 40.6658 174.82C39.8575 174.636 39.5823 175.49 38.9689 175.679C38.5848 175.794 38.2179 175.754 37.8682 175.743Z" fill="url(#paint20_linear_127_2289)"/>
<path d="M120.266 42.9988C120.827 41.514 122.501 41.9784 123.149 40.8949C122.943 41.858 122.605 42.6205 121.424 42.4313C121.022 42.3682 120.747 42.781 120.266 42.9988Z" fill="url(#paint21_linear_127_2289)"/>
<path d="M129.983 161.015C128.847 161.015 127.712 161.066 126.577 160.992C125.924 160.952 126.491 160.533 126.434 160.241C126.921 160.935 127.391 161.175 127.942 160.384C128.005 160.298 128.234 160.287 128.372 160.31C128.945 160.407 129.398 160.826 129.983 161.015Z" fill="url(#paint22_linear_127_2289)"/>
<path d="M137.642 63.1784C136.696 63.1211 135.75 63.0638 134.815 63.0007C135.532 62.0949 136.868 62.1694 137.642 63.1784Z" fill="url(#paint23_linear_127_2289)"/>
<path d="M170.852 173.948C171.414 174.711 171.85 175.616 173.02 175.639C173.404 175.645 173.49 175.989 173.409 176.316C173.318 176.7 172.991 176.746 172.687 176.671C172.257 176.568 171.965 176.241 171.678 175.932C171.294 175.507 170.921 175.077 170.549 174.642C170.405 174.476 170.044 174.384 170.199 174.097C170.319 173.885 170.629 173.942 170.87 173.965L170.852 173.948Z" fill="url(#paint24_linear_127_2289)"/>
<path d="M169.585 171.151C169.448 171.678 168.932 171.615 168.57 171.775C168.209 171.942 167.831 172.091 167.47 171.77C167.447 171.752 167.412 171.735 167.407 171.707C167.315 171.454 167.47 171.242 167.642 171.179C168.141 171.001 168.175 170.096 168.892 170.359C169.207 170.48 169.522 170.732 169.585 171.151Z" fill="url(#paint25_linear_127_2289)"/>
<path d="M170.87 173.965C170.784 173.553 170.99 173.249 171.328 173.088C171.615 172.951 171.907 173.077 172.137 173.318C172.326 173.518 172.503 173.73 172.349 174.029C172.205 174.298 171.947 174.246 171.712 174.189C171.42 174.12 171.139 174.029 170.852 173.948L170.87 173.965Z" fill="url(#paint26_linear_127_2289)"/>
<defs>
<linearGradient id="paint0_linear_127_2289" x1="18.5493" y1="180.615" x2="180.84" y2="19.3663" gradientUnits="userSpaceOnUse">
<stop stop-color="#3546D7"/>
<stop offset="1" stop-color="#C38BF5"/>
</linearGradient>
<linearGradient id="paint1_linear_127_2289" x1="75.1025" y1="140.44" x2="178.269" y2="32.9148" gradientUnits="userSpaceOnUse">
<stop stop-color="#3546D7"/>
<stop offset="1" stop-color="#C38BF5"/>
</linearGradient>
<linearGradient id="paint2_linear_127_2289" x1="163.16" y1="64.9484" x2="170.838" y2="55.7511" gradientUnits="userSpaceOnUse">
<stop stop-color="#3546D7"/>
<stop offset="1" stop-color="#C38BF5"/>
</linearGradient>
<linearGradient id="paint3_linear_127_2289" x1="122.575" y1="57.4172" x2="126.701" y2="49.7919" gradientUnits="userSpaceOnUse">
<stop stop-color="#3546D7"/>
<stop offset="1" stop-color="#C38BF5"/>
</linearGradient>
<linearGradient id="paint4_linear_127_2289" x1="141.499" y1="38.141" x2="144.259" y2="31.5358" gradientUnits="userSpaceOnUse">
<stop stop-color="#3546D7"/>
<stop offset="1" stop-color="#C38BF5"/>
</linearGradient>
<linearGradient id="paint5_linear_127_2289" x1="146.511" y1="54.8416" x2="151.204" y2="47.6951" gradientUnits="userSpaceOnUse">
<stop stop-color="#3546D7"/>
<stop offset="1" stop-color="#C38BF5"/>
</linearGradient>
<linearGradient id="paint6_linear_127_2289" x1="115.066" y1="141.403" x2="115.328" y2="137.84" gradientUnits="userSpaceOnUse">
<stop stop-color="#3546D7"/>
<stop offset="1" stop-color="#C38BF5"/>
</linearGradient>
<linearGradient id="paint7_linear_127_2289" x1="105.045" y1="51.2773" x2="109.722" y2="45.1108" gradientUnits="userSpaceOnUse">
<stop stop-color="#3546D7"/>
<stop offset="1" stop-color="#C38BF5"/>
</linearGradient>
<linearGradient id="paint8_linear_127_2289" x1="89.5929" y1="133.317" x2="94.215" y2="130.614" gradientUnits="userSpaceOnUse">
<stop stop-color="#3546D7"/>
<stop offset="1" stop-color="#C38BF5"/>
</linearGradient>
<linearGradient id="paint9_linear_127_2289" x1="131.761" y1="47.7448" x2="134.641" y2="41.943" gradientUnits="userSpaceOnUse">
<stop stop-color="#3546D7"/>
<stop offset="1" stop-color="#C38BF5"/>
</linearGradient>
<linearGradient id="paint10_linear_127_2289" x1="81.1589" y1="131.245" x2="84.8243" y2="129.054" gradientUnits="userSpaceOnUse">
<stop stop-color="#3546D7"/>
<stop offset="1" stop-color="#C38BF5"/>
</linearGradient>
<linearGradient id="paint11_linear_127_2289" x1="85.2775" y1="132.23" x2="88.8324" y2="129.915" gradientUnits="userSpaceOnUse">
<stop stop-color="#3546D7"/>
<stop offset="1" stop-color="#C38BF5"/>
</linearGradient>
<linearGradient id="paint12_linear_127_2289" x1="158.58" y1="39.6692" x2="159.576" y2="36.7125" gradientUnits="userSpaceOnUse">
<stop stop-color="#3546D7"/>
<stop offset="1" stop-color="#C38BF5"/>
</linearGradient>
<linearGradient id="paint13_linear_127_2289" x1="145.715" y1="61.9688" x2="147.265" y2="58.637" gradientUnits="userSpaceOnUse">
<stop stop-color="#3546D7"/>
<stop offset="1" stop-color="#C38BF5"/>
</linearGradient>
<linearGradient id="paint14_linear_127_2289" x1="170.635" y1="46.2101" x2="172.55" y2="42.5378" gradientUnits="userSpaceOnUse">
<stop stop-color="#3546D7"/>
<stop offset="1" stop-color="#C38BF5"/>
</linearGradient>
<linearGradient id="paint15_linear_127_2289" x1="35.0297" y1="176.333" x2="37.6919" y2="172.589" gradientUnits="userSpaceOnUse">
<stop stop-color="#3546D7"/>
<stop offset="1" stop-color="#C38BF5"/>
</linearGradient>
<linearGradient id="paint16_linear_127_2289" x1="141.655" y1="70.7284" x2="142.676" y2="68.2704" gradientUnits="userSpaceOnUse">
<stop stop-color="#3546D7"/>
<stop offset="1" stop-color="#C38BF5"/>
</linearGradient>
<linearGradient id="paint17_linear_127_2289" x1="122.192" y1="37.7017" x2="123.819" y2="34.8694" gradientUnits="userSpaceOnUse">
<stop stop-color="#3546D7"/>
<stop offset="1" stop-color="#C38BF5"/>
</linearGradient>
<linearGradient id="paint18_linear_127_2289" x1="123.782" y1="160.977" x2="124.226" y2="158.725" gradientUnits="userSpaceOnUse">
<stop stop-color="#3546D7"/>
<stop offset="1" stop-color="#C38BF5"/>
</linearGradient>
<linearGradient id="paint19_linear_127_2289" x1="40.5785" y1="175.875" x2="41.3321" y2="173.555" gradientUnits="userSpaceOnUse">
<stop stop-color="#3546D7"/>
<stop offset="1" stop-color="#C38BF5"/>
</linearGradient>
<linearGradient id="paint20_linear_127_2289" x1="37.9576" y1="175.759" x2="39.9438" y2="173.161" gradientUnits="userSpaceOnUse">
<stop stop-color="#3546D7"/>
<stop offset="1" stop-color="#C38BF5"/>
</linearGradient>
<linearGradient id="paint21_linear_127_2289" x1="120.354" y1="42.9988" x2="122.524" y2="40.3773" gradientUnits="userSpaceOnUse">
<stop stop-color="#3546D7"/>
<stop offset="1" stop-color="#C38BF5"/>
</linearGradient>
<linearGradient id="paint22_linear_127_2289" x1="126.374" y1="161.032" x2="126.753" y2="159.462" gradientUnits="userSpaceOnUse">
<stop stop-color="#3546D7"/>
<stop offset="1" stop-color="#C38BF5"/>
</linearGradient>
<linearGradient id="paint23_linear_127_2289" x1="134.902" y1="63.1784" x2="135.402" y2="61.6405" gradientUnits="userSpaceOnUse">
<stop stop-color="#3546D7"/>
<stop offset="1" stop-color="#C38BF5"/>
</linearGradient>
<linearGradient id="paint24_linear_127_2289" x1="170.262" y1="176.701" x2="173.156" y2="173.673" gradientUnits="userSpaceOnUse">
<stop stop-color="#3546D7"/>
<stop offset="1" stop-color="#C38BF5"/>
</linearGradient>
<linearGradient id="paint25_linear_127_2289" x1="167.447" y1="171.959" x2="169.153" y2="169.946" gradientUnits="userSpaceOnUse">
<stop stop-color="#3546D7"/>
<stop offset="1" stop-color="#C38BF5"/>
</linearGradient>
<linearGradient id="paint26_linear_127_2289" x1="170.898" y1="174.235" x2="172.15" y2="172.806" gradientUnits="userSpaceOnUse">
<stop stop-color="#3546D7"/>
<stop offset="1" stop-color="#C38BF5"/>
</linearGradient>
</defs>
</svg>
