<svg width="26" height="26" viewBox="0 0 26 26" fill="none" xmlns="http://www.w3.org/2000/svg">
<g clip-path="url(#clip0_149_5242)">
<mask id="mask0_149_5242" style="mask-type:luminance" maskUnits="userSpaceOnUse" x="0" y="0" width="26" height="26">
<path d="M0 0H26V26H0V0Z" fill="white"/>
</mask>
<g mask="url(#mask0_149_5242)">
<path d="M17.021 5.64937C16.7413 6.59372 16.1526 7.41686 15.3495 7.987C14.5463 8.55716 13.5751 8.84131 12.5912 8.79399C10.3279 8.68826 8.49472 6.84109 8.4059 4.57707C8.38207 3.98484 8.47814 3.39388 8.68834 2.83969C8.89855 2.2855 9.21854 1.77949 9.62914 1.35204C10.0397 0.924573 10.5325 0.58447 11.0777 0.352135C11.623 0.119802 12.2096 2.7157e-05 12.8023 0H12.8085C12.8305 0.0003092 12.8516 0.00838119 12.8681 0.0227825C12.8846 0.0371838 12.8956 0.0569825 12.8989 0.0786608C12.9022 0.100339 12.8977 0.122494 12.8863 0.14119C12.8748 0.159887 12.8571 0.173914 12.8362 0.180781C12.3049 0.357915 11.8232 0.658603 11.4306 1.05814C11.0381 1.45768 10.7459 1.94464 10.5782 2.47905C10.4105 3.01345 10.372 3.58002 10.4658 4.13221C10.5597 4.68439 10.7832 5.20643 11.118 5.65543C11.4529 6.10441 11.8895 6.46755 12.392 6.71498C12.8945 6.96241 13.4485 7.08707 14.0085 7.07872C14.5686 7.07037 15.1186 6.92926 15.6135 6.66697C16.1084 6.40468 16.534 6.02871 16.8554 5.56994C16.868 5.55188 16.8866 5.53891 16.908 5.53332C16.9294 5.52773 16.952 5.52989 16.9719 5.53943C16.9918 5.54896 17.0076 5.56525 17.0166 5.58537C17.0256 5.60551 17.0271 5.62818 17.021 5.64937Z" fill="url(#paint0_linear_149_5242)"/>
<path d="M16.3482 3.08294C15.6232 3.5179 15.0165 4.12465 14.5816 4.84961C14.0562 4.03428 13.6303 3.60837 12.8149 3.08304C13.6303 2.55766 14.0562 2.13175 14.5816 1.31641C15.107 2.13165 15.5328 2.55756 16.3482 3.08294Z" fill="url(#paint1_linear_149_5242)"/>
<path d="M13.868 5.2015C13.6969 5.30787 13.5366 5.43081 13.3896 5.56854C13.2249 5.73137 13.0802 5.91338 12.9588 6.11068C12.6884 5.69108 12.4692 5.47186 12.0498 5.20171C12.4695 4.9313 12.6886 4.71212 12.9588 4.29272C13.2293 4.71192 13.4484 4.93088 13.868 5.2015Z" fill="url(#paint2_linear_149_5242)"/>
<path d="M11.0649 21.9144C11.3928 20.4883 11.2232 18.993 10.5842 17.6766L9.37049 15.1767C9.36673 15.1692 9.36298 15.1622 9.35922 15.1546L9.99805 11.3391C10.0619 10.9571 9.97149 10.5654 9.74662 10.25C9.52173 9.93469 9.18082 9.72158 8.79884 9.65754C8.78757 9.65545 8.7759 9.65418 8.76462 9.65291L8.36152 12.2049C8.35386 12.254 8.32893 12.2987 8.29122 12.331C8.25352 12.3633 8.20551 12.381 8.15585 12.381C8.14495 12.381 8.13407 12.3802 8.12331 12.3785C8.09623 12.3743 8.07026 12.3647 8.04688 12.3504C8.02351 12.3361 8.00318 12.3173 7.98706 12.2952C7.97092 12.273 7.95933 12.2479 7.95292 12.2212C7.94651 12.1946 7.9454 12.1669 7.94968 12.1399L8.38742 9.36722V9.36675C8.37396 9.0594 8.2554 8.76596 8.05155 8.53552C7.8477 8.30508 7.57091 8.15162 7.26749 8.10079C7.23783 8.09584 7.20782 8.09331 7.17775 8.09326C7.04944 8.0934 6.92533 8.13898 6.82743 8.22192C6.72953 8.30486 6.66416 8.4198 6.64293 8.54634L6.42843 9.82694C6.43708 9.77543 6.44266 9.72346 6.44514 9.67129L6.15345 11.5299C6.14562 11.579 6.12058 11.6236 6.08282 11.6559C6.04504 11.6882 5.997 11.7059 5.94733 11.706C5.93644 11.706 5.92556 11.7051 5.91478 11.7035C5.88773 11.6993 5.86176 11.6898 5.83839 11.6755C5.81502 11.6613 5.79468 11.6425 5.77856 11.6204C5.76244 11.5983 5.75084 11.5732 5.74443 11.5465C5.73802 11.5199 5.73693 11.4923 5.7412 11.4652L6.16351 8.77511C5.95562 8.50567 5.65341 8.32499 5.31769 8.26937C5.28832 8.26442 5.2586 8.2619 5.22882 8.26186C5.10303 8.26204 4.98138 8.30677 4.88544 8.38813C4.78949 8.46948 4.72546 8.58218 4.70471 8.70625L3.58325 15.4029C3.57581 15.4473 3.57161 15.4922 3.57071 15.5372C3.56056 15.5814 3.5507 15.6257 3.54279 15.6712C3.46238 16.1331 3.52969 16.6087 3.73515 17.0303L5.41671 20.4901C5.56479 20.7947 5.6417 21.129 5.64162 21.4677V23.0263H11.0786L11.038 22.7809C10.9901 22.4931 10.9993 22.1987 11.0649 21.9144ZM9.40289 18.2971C9.37547 18.2971 9.34833 18.2918 9.32298 18.2813C9.29764 18.2709 9.27461 18.2555 9.25523 18.2361C9.23584 18.2166 9.22047 18.1936 9.21 18.1683C9.19954 18.1431 9.19417 18.1159 9.19422 18.0885C9.19207 17.6742 9.04217 17.2741 8.77149 16.9605C8.50082 16.6468 8.1271 16.4399 7.71757 16.3771C7.66644 16.3695 7.61996 16.3432 7.58712 16.3032C7.55429 16.2633 7.53744 16.2126 7.53983 16.161L7.60782 14.7239C7.62257 14.4036 7.50968 14.0907 7.29392 13.8536C7.07817 13.6166 6.77719 13.4748 6.45702 13.4594C6.3904 13.4562 6.32378 13.4661 6.26099 13.4887C6.19822 13.5112 6.1405 13.5459 6.09115 13.5907C6.04181 13.6357 6.00181 13.6898 5.97345 13.7502C5.94507 13.8106 5.9289 13.8759 5.92584 13.9426L5.72922 18.0983C5.72669 18.1519 5.70367 18.2023 5.66491 18.2394C5.62615 18.2764 5.57463 18.2972 5.52102 18.2972C5.51763 18.2974 5.51424 18.2972 5.51086 18.2969C5.48348 18.2957 5.45661 18.2889 5.4318 18.2774C5.407 18.2657 5.38473 18.2491 5.36628 18.2289C5.34784 18.2086 5.33357 18.1849 5.32431 18.1591C5.31504 18.1333 5.31094 18.1059 5.31225 18.0786L5.50878 13.923C5.51447 13.8016 5.54402 13.6825 5.59573 13.5727C5.64746 13.4627 5.72032 13.364 5.81018 13.2822C5.90005 13.2005 6.00513 13.1373 6.11945 13.0961C6.23376 13.055 6.35506 13.0368 6.47642 13.0425C6.90712 13.0633 7.31201 13.254 7.60223 13.5729C7.89246 13.8919 8.04431 14.3129 8.02448 14.7437L7.96537 16.0011C8.43311 16.1158 8.84909 16.3836 9.14731 16.7618C9.44553 17.1401 9.6089 17.6071 9.6115 18.0886C9.61143 18.144 9.58942 18.1969 9.55031 18.236C9.5112 18.2751 9.45818 18.297 9.40289 18.2971Z" fill="url(#paint3_linear_149_5242)"/>
<path d="M11.4952 23.4438H5.2402C5.13208 23.4438 5.04443 23.5315 5.04443 23.6396V25.8043C5.04443 25.9124 5.13208 26 5.2402 26H11.4952C11.6033 26 11.6909 25.9124 11.6909 25.8043V23.6396C11.6909 23.5315 11.6033 23.4438 11.4952 23.4438Z" fill="url(#paint4_linear_149_5242)"/>
<path d="M14.8653 21.9144C14.5373 20.4883 14.707 18.993 15.3459 17.6767L16.5593 15.1768C16.5631 15.1692 16.5669 15.1622 16.5706 15.1547L15.9318 11.3393C15.868 10.9573 15.9583 10.5656 16.1832 10.2503C16.4081 9.93493 16.749 9.72182 17.1311 9.65778C17.1423 9.65569 17.154 9.65443 17.1653 9.65315L17.5684 12.2052C17.5761 12.2542 17.6009 12.2989 17.6387 12.3312C17.6764 12.3635 17.7244 12.3813 17.7741 12.3813C17.785 12.3813 17.7958 12.3804 17.8066 12.3788C17.8336 12.3745 17.8596 12.365 17.883 12.3507C17.9064 12.3364 17.9267 12.3176 17.9428 12.2954C17.9589 12.2733 17.9706 12.2481 17.977 12.2215C17.9834 12.1948 17.9845 12.1672 17.9802 12.1401L17.5425 9.36747V9.367C17.5559 9.05964 17.6745 8.7662 17.8783 8.53577C18.0822 8.30534 18.3589 8.15186 18.6623 8.10103C18.6921 8.09608 18.722 8.09356 18.7522 8.09351C18.8805 8.09358 19.0046 8.13911 19.1025 8.22201C19.2005 8.30491 19.2659 8.41983 19.2873 8.54637L19.5018 9.82698C19.493 9.77547 19.4875 9.7235 19.485 9.67134L19.7767 11.5299C19.7845 11.579 19.8096 11.6237 19.8473 11.6559C19.8851 11.6882 19.9331 11.706 19.9828 11.706C19.9937 11.706 20.0046 11.7052 20.0154 11.7036C20.0424 11.6993 20.0684 11.6898 20.0917 11.6756C20.1151 11.6613 20.1355 11.6426 20.1516 11.6204C20.1677 11.5983 20.1793 11.5732 20.1857 11.5466C20.1921 11.52 20.1932 11.4923 20.1889 11.4653L19.7664 8.7749C19.9743 8.50546 20.2766 8.32478 20.6123 8.26916C20.6417 8.26421 20.6714 8.26169 20.7011 8.26165C20.827 8.26183 20.9487 8.30658 21.0446 8.38792C21.1405 8.46927 21.2045 8.58197 21.2253 8.70604L22.3469 15.4028C22.3543 15.4472 22.3585 15.4921 22.3594 15.5371C22.3696 15.5813 22.3794 15.6256 22.3874 15.6711C22.4677 16.133 22.4005 16.6086 22.195 17.0302L20.5134 20.4901C20.3653 20.7947 20.2884 21.1291 20.2885 21.4677V23.0263H14.8515L14.8921 22.781C14.9401 22.4932 14.9308 22.1987 14.8653 21.9144ZM16.5272 18.2971C16.5547 18.2971 16.5818 18.2918 16.6072 18.2813C16.6325 18.2709 16.6555 18.2555 16.6749 18.2362C16.6943 18.2168 16.7096 18.1937 16.7201 18.1684C16.7305 18.1431 16.736 18.1159 16.7359 18.0885C16.7381 17.6742 16.888 17.2742 17.1586 16.9605C17.4293 16.6468 17.803 16.44 18.2125 16.3772C18.2638 16.3695 18.3102 16.3432 18.3431 16.3033C18.3758 16.2633 18.3927 16.2127 18.3903 16.161L18.3223 14.724C18.3076 14.4038 18.4204 14.0907 18.6362 13.8537C18.852 13.6166 19.153 13.4748 19.4732 13.4595C19.5397 13.4562 19.6064 13.4662 19.6692 13.4887C19.732 13.5112 19.7897 13.5459 19.839 13.5909C19.8884 13.6357 19.9283 13.6899 19.9568 13.7503C19.9851 13.8106 20.0012 13.876 20.0043 13.9427L20.2009 18.0982C20.2034 18.1518 20.2264 18.2024 20.2652 18.2394C20.304 18.2765 20.3555 18.2971 20.409 18.2973C20.4124 18.2973 20.4159 18.2971 20.4192 18.2969C20.4466 18.2956 20.4735 18.289 20.4983 18.2773C20.523 18.2656 20.5454 18.2492 20.5639 18.2289C20.5822 18.2086 20.5965 18.1848 20.6058 18.1591C20.6151 18.1332 20.6191 18.1059 20.6178 18.0785L20.4212 13.9229C20.4157 13.8015 20.386 13.6825 20.3344 13.5726C20.2827 13.4626 20.2097 13.3639 20.1199 13.2821C20.0301 13.2005 19.9249 13.1372 19.8106 13.0961C19.6964 13.0549 19.5751 13.0367 19.4537 13.0424C19.023 13.0632 18.6181 13.2541 18.3279 13.5729C18.0377 13.8918 17.8857 14.3129 17.9056 14.7436L17.9649 16.0008C17.4972 16.1156 17.0812 16.3834 16.7829 16.7616C16.4847 17.1399 16.3213 17.6068 16.3187 18.0885C16.3187 18.1437 16.3407 18.1968 16.3798 18.2359C16.4189 18.275 16.472 18.297 16.5272 18.2971Z" fill="url(#paint5_linear_149_5242)"/>
<path d="M14.4355 26H20.6905C20.7986 26 20.8863 25.9124 20.8863 25.8043V23.6396C20.8863 23.5316 20.7986 23.4438 20.6905 23.4438H14.4355C14.3274 23.4438 14.2397 23.5316 14.2397 23.6396V25.8043C14.2397 25.9124 14.3274 26 14.4355 26Z" fill="url(#paint6_linear_149_5242)"/>
</g>
</g>
<defs>
<linearGradient id="paint0_linear_149_5242" x1="8.66765" y1="8.79908" x2="17.8058" y2="0.904181" gradientUnits="userSpaceOnUse">
<stop stop-color="#3546D7"/>
<stop offset="1" stop-color="#C38BF5"/>
</linearGradient>
<linearGradient id="paint1_linear_149_5242" x1="12.9237" y1="4.84961" x2="16.6031" y2="1.60555" gradientUnits="userSpaceOnUse">
<stop stop-color="#3546D7"/>
<stop offset="1" stop-color="#C38BF5"/>
</linearGradient>
<linearGradient id="paint2_linear_149_5242" x1="12.1057" y1="6.11068" x2="13.999" y2="4.44128" gradientUnits="userSpaceOnUse">
<stop stop-color="#3546D7"/>
<stop offset="1" stop-color="#C38BF5"/>
</linearGradient>
<linearGradient id="paint3_linear_149_5242" x1="3.74725" y1="23.0263" x2="15.5765" y2="17.6358" gradientUnits="userSpaceOnUse">
<stop stop-color="#3546D7"/>
<stop offset="1" stop-color="#C38BF5"/>
</linearGradient>
<linearGradient id="paint4_linear_149_5242" x1="5.24894" y1="26" x2="7.21558" y2="21.4916" gradientUnits="userSpaceOnUse">
<stop stop-color="#3546D7"/>
<stop offset="1" stop-color="#C38BF5"/>
</linearGradient>
<linearGradient id="paint5_linear_149_5242" x1="14.9396" y1="23.0263" x2="26.7687" y2="17.6358" gradientUnits="userSpaceOnUse">
<stop stop-color="#3546D7"/>
<stop offset="1" stop-color="#C38BF5"/>
</linearGradient>
<linearGradient id="paint6_linear_149_5242" x1="14.4443" y1="26" x2="16.4109" y2="21.4916" gradientUnits="userSpaceOnUse">
<stop stop-color="#3546D7"/>
<stop offset="1" stop-color="#C38BF5"/>
</linearGradient>
<clipPath id="clip0_149_5242">
<rect width="26" height="26" fill="white"/>
</clipPath>
</defs>
</svg>
