<svg width="26" height="26" viewBox="0 0 26 26" fill="none" xmlns="http://www.w3.org/2000/svg">
<path d="M12.698 14.9088C12.6542 14.0489 12.5013 13.3566 12.1704 12.7962C11.7843 12.1422 11.0353 11.5605 9.99959 11.1903C7.7545 10.388 5.24469 9.32387 3.46034 7.81526L2.691 9.14745L12.698 14.9088ZM23.7792 21.442L22.3303 18.2317L17.4015 15.3798L15.3519 16.566L23.7792 21.442ZM13.428 14.9095L23.4361 9.14745L22.667 7.81526C21.3091 8.92173 19.7279 9.74363 18.1177 10.4099L16.0964 11.2022C14.1994 11.9349 13.5224 12.803 13.428 14.9095ZM16.5321 10.2846C18.5301 9.51958 20.6125 8.65472 22.255 7.24443L19.2738 4.05933C15.5393 6.09499 13.4153 5.29377 13.4153 9.77079V12.2583C14.0254 11.3291 15.0435 10.8732 16.0592 10.4653L16.5321 10.2846ZM8.76825 14.6676L0.992676 10.1672L1.46794 9.34372L23.2398 21.9406H21.3354C21.2079 21.9062 10.7503 15.8002 8.76825 14.6676ZM11.3486 16.9713L2.76012 21.9406H4.66431L12.2995 17.5217L11.3486 16.9713ZM3.66951 18.2317L2.22072 21.442L10.6479 16.566L8.59834 15.3798L3.66951 18.2317ZM13.7003 15.6105L24.5319 9.34372L25.0074 10.1672L14.6513 16.1607L13.7003 15.6105ZM3.87202 7.24443L6.85334 4.05933C10.5878 6.09499 12.7118 5.29377 12.7118 9.77079V12.2595C12.2225 11.5137 11.4549 10.9997 10.2834 10.5483C8.04553 9.68574 5.71355 8.82728 3.87202 7.24443Z" fill="url(#paint0_linear_149_5259)"/>
<defs>
<linearGradient id="paint0_linear_149_5259" x1="1.73159" y1="21.9406" x2="20.2362" y2="0.0298364" gradientUnits="userSpaceOnUse">
<stop stop-color="#3546D7"/>
<stop offset="1" stop-color="#C38BF5"/>
</linearGradient>
</defs>
</svg>
