<svg width="41" height="40" viewBox="0 0 41 40" fill="none" xmlns="http://www.w3.org/2000/svg">
<g clip-path="url(#clip0_360_362)">
<path d="M31.4253 31.7419H31.8769L32.5137 33.2704C32.5838 33.4387 32.7482 33.5483 32.9305 33.5483H33.6834C33.9328 33.5483 34.135 33.3461 34.135 33.0967V29.9354H31.4253V31.7419H31.4253Z" fill="white"/>
<path d="M33.6834 27.2258H31.4253V29.0322H34.135V27.6774C34.135 27.428 33.9328 27.2258 33.6834 27.2258Z" fill="white"/>
<path d="M22.8442 9.1613C23.0936 9.1613 23.2958 8.9591 23.2958 8.70968C23.2958 8.46025 23.0936 8.25806 22.8442 8.25806C22.5948 8.25806 22.3926 8.46025 22.3926 8.70968C22.3926 8.9591 22.5948 9.1613 22.8442 9.1613Z" fill="white"/>
<path d="M33.2314 20.9032C33.4808 20.9032 33.683 20.701 33.683 20.4516C33.683 20.2022 33.4808 20 33.2314 20C32.982 20 32.7798 20.2022 32.7798 20.4516C32.7798 20.701 32.982 20.9032 33.2314 20.9032Z" fill="white"/>
<path d="M8.39299 19.0968C8.39299 18.8474 8.19077 18.6452 7.94137 18.6452C7.69196 18.6452 7.48975 18.8474 7.48975 19.0968V19.5484C7.48975 19.7978 7.69196 20 7.94137 20C8.19077 20 8.39299 19.7978 8.39299 19.5484V19.0968Z" fill="white"/>
<path d="M7.94137 20.9032C7.69196 20.9032 7.48975 21.1054 7.48975 21.3548V21.8065C7.48975 22.0559 7.69196 22.2581 7.94137 22.2581C8.19077 22.2581 8.39299 22.0559 8.39299 21.8065V21.3548C8.39299 21.1054 8.19083 20.9032 7.94137 20.9032Z" fill="white"/>
<path d="M6.58639 20.9032H7.03801C7.28741 20.9032 7.48963 20.701 7.48963 20.4516C7.48963 20.2022 7.28741 20 7.03801 20H6.58639C6.33698 20 6.13477 20.2022 6.13477 20.4516C6.13477 20.701 6.33698 20.9032 6.58639 20.9032Z" fill="white"/>
<path d="M9.74793 20.4516C9.74793 20.2022 9.54571 20 9.29631 20H8.84469C8.59529 20 8.39307 20.2022 8.39307 20.4516C8.39307 20.701 8.59529 20.9032 8.84469 20.9032H9.29631C9.54571 20.9032 9.74793 20.701 9.74793 20.4516Z" fill="white"/>
<path d="M11.1025 16.3871C13.8461 16.3871 16.0702 14.163 16.0702 11.4194C15.1913 13.2829 12.9682 14.0812 11.1046 13.2023C9.24102 12.3234 8.44279 10.1001 9.32169 8.23655C9.50481 7.84832 9.75352 7.4946 10.0569 7.19095C10.3606 6.88655 10.7143 6.63645 11.1025 6.45157C8.35891 6.45162 6.13477 8.67576 6.13477 11.4194C6.13477 14.163 8.35891 16.3871 11.1025 16.3871Z" fill="white"/>
<path d="M11.8926 9.72308L11.6528 11.1936L12.9087 10.4994L14.1647 11.1936L13.9248 9.72308L14.941 8.68165L13.5369 8.46718L12.9087 7.12906L12.2805 8.46718L10.8765 8.68165L11.8926 9.72308Z" fill="white"/>
<path d="M31.4253 8.7097C31.6747 8.7097 31.8769 8.50748 31.8769 8.25807V7.80645C31.8769 7.55705 31.6747 7.35483 31.4253 7.35483C31.1759 7.35483 30.9736 7.55705 30.9736 7.80645V8.25807C30.9736 8.50748 31.1758 8.7097 31.4253 8.7097Z" fill="white"/>
<path d="M31.8769 10.5161V10.0645C31.8769 9.8151 31.6747 9.61288 31.4253 9.61288C31.1759 9.61288 30.9736 9.8151 30.9736 10.0645V10.5161C30.9736 10.7655 31.1759 10.9678 31.4253 10.9678C31.6747 10.9678 31.8769 10.7655 31.8769 10.5161Z" fill="white"/>
<path d="M30.5219 8.70969H30.0703C29.8209 8.70969 29.6187 8.91191 29.6187 9.16131C29.6187 9.41071 29.8209 9.61293 30.0703 9.61293H30.5219C30.7713 9.61293 30.9735 9.41071 30.9735 9.16131C30.9735 8.91191 30.7713 8.70969 30.5219 8.70969Z" fill="white"/>
<path d="M32.3281 9.61287H32.7797C33.0291 9.61287 33.2313 9.41065 33.2313 9.16125C33.2313 8.91184 33.0291 8.70963 32.7797 8.70963H32.3281C32.0787 8.70963 31.8765 8.91184 31.8765 9.16125C31.8765 9.41065 32.0787 9.61287 32.3281 9.61287Z" fill="white"/>
<path d="M23.2959 13.2258C23.2959 13.4752 23.4981 13.6774 23.7475 13.6774C23.9969 13.6774 24.1991 13.4752 24.1991 13.2258V12.7742C24.1991 12.5248 23.9969 12.3226 23.7475 12.3226C23.4981 12.3226 23.2959 12.5248 23.2959 12.7742V13.2258Z" fill="white"/>
<path d="M23.7475 14.5806C23.4981 14.5806 23.2959 14.7828 23.2959 15.0322V15.4839C23.2959 15.7333 23.4981 15.9355 23.7475 15.9355C23.9969 15.9355 24.1991 15.7333 24.1991 15.4839V15.0322C24.1991 14.7828 23.9969 14.5806 23.7475 14.5806Z" fill="white"/>
<path d="M22.393 14.5806H22.8446C23.0941 14.5806 23.2963 14.3784 23.2963 14.129C23.2963 13.8796 23.0941 13.6774 22.8446 13.6774H22.393C22.1436 13.6774 21.9414 13.8796 21.9414 14.129C21.9414 14.3784 22.1436 14.5806 22.393 14.5806Z" fill="white"/>
<path d="M24.6508 14.5806H25.1025C25.3519 14.5806 25.5541 14.3784 25.5541 14.129C25.5541 13.8796 25.3519 13.6774 25.1025 13.6774H24.6508C24.4014 13.6774 24.1992 13.8796 24.1992 14.129C24.1992 14.3784 24.4014 14.5806 24.6508 14.5806Z" fill="white"/>
<path d="M6.13477 30.6129C6.13557 32.0588 7.18984 33.2884 8.61864 33.5101V27.7159C7.18989 27.9375 6.13568 29.1671 6.13477 30.6129Z" fill="white"/>
<path d="M16.037 31.8957C15.2643 32.0698 14.7153 32.7562 14.7153 33.5484H18.483L16.6843 31.7498L16.037 31.8957Z" fill="white"/>
<path d="M27.4126 28.5806H30.522V27.2258H28.477L27.4126 28.5806Z" fill="white"/>
<path d="M12.6805 27.8987L11.9136 27.2083L11.3961 27.726C11.2247 27.6945 11.0509 27.6782 10.8767 27.6774H9.52197V33.5484H10.8768C12.4959 33.5506 13.8101 32.2398 13.8123 30.6207C13.8128 30.2012 13.7233 29.7864 13.5498 29.4043L14.1274 28.8267C13.5988 28.5965 13.1103 28.2832 12.6805 27.8987Z" fill="white"/>
<path d="M27.8321 26.5849C29.5066 24.4537 29.1364 21.3684 27.0052 19.6939C26.1405 19.0144 25.0728 18.6452 23.9731 18.6452H20.4497C17.1866 18.6452 14.1772 20.4052 12.5774 23.2493L11.3296 25.4676L13.2851 27.2275C14.4566 28.2806 16.0922 28.6472 17.6011 28.1948L17.2062 27.8C16.8535 27.4475 16.8534 26.8758 17.2059 26.5231C17.206 26.523 17.2061 26.5229 17.2062 26.5228L19.1225 24.6069C19.4749 24.2542 20.0466 24.2541 20.3993 24.6065L20.3997 24.6069L22.9541 27.1618C24.0124 28.2196 24.0126 29.9351 22.9548 30.9932C22.9546 30.9935 22.9543 30.9937 22.9541 30.9939L21.6013 32.3465C21.855 33.0654 22.5339 33.5467 23.2962 33.5483H30.522V29.4838H25.5543L27.8321 26.5849Z" fill="white"/>
<path d="M22.3155 27.8002L19.7608 25.2455L17.8448 27.1614L19.7609 29.0774L17.5254 31.3128L19.4414 33.2289L22.3156 30.3547C23.0209 29.6492 23.0208 28.5056 22.3155 27.8002Z" fill="white"/>
</g>
<defs>
<clipPath id="clip0_360_362">
<rect width="28" height="28" fill="white" transform="translate(6.13477 6)"/>
</clipPath>
</defs>
</svg>
